SplineFontDB: 3.0
FontName: Corben-Regular
FullName: Corben Regular
FamilyName: Corben
Weight: Regular
Copyright: Copyright (c) 2010, 2011 by vernon adams (vern@newtypography.co.uk), with Reserved Font Name Corben.
Version: 1.100
ItalicAngle: 0
UnderlinePosition: -103
UnderlineWidth: 102
Ascent: 1638
Descent: 410
sfntRevision: 0x00010000
LayerCount: 2
Layer: 0 1 "Back"  1
Layer: 1 1 "Fore"  0
NeedsXUIDChange: 1
XUID: [1021 14 500265001 14938298]
FSType: 0
OS2Version: 2
OS2_WeightWidthSlopeOnly: 0
OS2_UseTypoMetrics: 1
CreationTime: 1317818700
ModificationTime: 1318246256
PfmFamily: 17
TTFWeight: 400
TTFWidth: 5
LineGap: 0
VLineGap: 0
Panose: 2 15 5 3 2 0 0 2 0 4
OS2TypoAscent: 2826
OS2TypoAOffset: 0
OS2TypoDescent: -969
OS2TypoDOffset: 0
OS2TypoLinegap: 0
OS2WinAscent: 2826
OS2WinAOffset: 0
OS2WinDescent: 969
OS2WinDOffset: 0
HheadAscent: 2826
HheadAOffset: 0
HheadDescent: -969
HheadDOffset: 0
OS2SubXSize: 1434
OS2SubYSize: 1331
OS2SubXOff: 0
OS2SubYOff: 287
OS2SupXSize: 1434
OS2SupYSize: 1331
OS2SupXOff: 0
OS2SupYOff: 977
OS2StrikeYSize: 102
OS2StrikeYPos: 512
OS2Vendor: 'newt'
OS2CodePages: 00000001.00000000
OS2UnicodeRanges: 8000006f.4000000b.00000000.00000000
Lookup: 4 0 1 "'liga' Standard Ligatures in Latin lookup 0"  {"'liga'"  } ['liga' ('DFLT' <'dflt' > 'latn' <'dflt' > ) ]
Lookup: 258 0 0 "'kern' Horizontal Kerning in Latin lookup 0"  {"'kern'" [344,0,2] } ['kern' ('DFLT' <'dflt' > 'latn' <'dflt' > ) ]
MarkAttachClasses: 1
DEI: 91125
KernClass2: 6 6 "'kern'" 
 1 A
 3 T V
 1 W
 3 v w
 1 G
 1 a
 7 c e o q
 1 d
 3 c_k
 1 O
 0 {} 0 {} 0 {} 0 {} 0 {} 0 {} 0 {} 0 {} 0 {} 0 {} 0 {} -95 {} 0 {} -173 {} -138 {} -171 {} -210 {} -73 {} 0 {} -256 {} -209 {} -245 {} -211 {} -131 {} 0 {} 0 {} 0 {} 0 {} 0 {} 0 {} 0 {} 0 {} 0 {} 0 {} 0 {} 50 {}
TtTable: prep
PUSHW_1
 511
SCANCTRL
PUSHB_1
 4
SCANTYPE
EndTTInstrs
ShortTable: maxp 16
  1
  0
  267
  171
  6
  172
  4
  1
  0
  0
  0
  0
  0
  0
  3
  1
EndShort

StartChar: ffi
Encoding: 346 64259 0
Width: 2080
Flags: HMW
LayerCount: 2
Fore
SplineSet
1497 863 m 0,0,1
 1497 912 1497 912 1560 938 c 128,-1,2
 1623 964 1623 964 1683 964 c 128,-1,3
 1743 964 1743 964 1766.5 961.5 c 128,-1,4
 1790 959 1790 959 1814.5 951.5 c 0,5,6
 1865 936.040816327 1865 936.040816327 1865 888 c 2,7,-1
 1865 249 l 2,8,9
 1865 183.166666667 1865 183.166666667 1885.5 166.083333333 c 128,-1,10
 1906 149 1906 149 1918 143.5 c 128,-1,11
 1930 138 1930 138 1957.5 130 c 128,-1,12
 1985 122 1985 122 2002.5 115.5 c 128,-1,13
 2020 109 2020 109 2020 82 c 128,-1,14
 2020 55 2020 55 2006.5 38 c 128,-1,15
 1993 21 1993 21 1965 13.5 c 0,16,17
 1918.33333333 1 1918.33333333 1 1837 1 c 2,18,-1
 1715 1 l 2,19,20
 1608.08333333 1 1608.08333333 1 1583.54166667 10.5 c 128,-1,21
 1559 20 1559 20 1545.5 29.5 c 0,22,23
 1519 48.1481481481 1519 48.1481481481 1519 90 c 0,24,25
 1519 108 1519 108 1589.5 142.5 c 128,-1,26
 1660 177 1660 177 1663 182 c 1,27,28
 1672 208 1672 208 1672 282 c 2,29,-1
 1672 644 l 2,30,31
 1672 701 1672 701 1668.5 731 c 128,-1,32
 1665 761 1665 761 1649.5 781 c 128,-1,33
 1634 801 1634 801 1615.5 809 c 128,-1,34
 1597 817 1597 817 1547 830.5 c 128,-1,35
 1497 844 1497 844 1497 863 c 0,0,1
340 0 m 2,36,-1
 254 -1 l 1,37,38
 123.111111111 -1 123.111111111 -1 92 39 c 0,39,40
 78 57 78 57 78 82.5 c 128,-1,41
 78 108 78 108 98 118 c 128,-1,42
 118 128 118 128 142.5 129 c 128,-1,43
 167 130 167 130 187 144.5 c 128,-1,44
 207 159 207 159 207 191 c 2,45,-1
 207 833 l 1,46,-1
 137 833 l 2,47,48
 111 833 111 833 93.5 851.5 c 128,-1,49
 76 870 76 870 76 905 c 128,-1,50
 76 940 76 940 99 951 c 128,-1,51
 122 962 122 962 184 962 c 2,52,-1
 207 962 l 1,53,-1
 207 1109 l 2,54,55
 207 1282 207 1282 327 1375.5 c 128,-1,56
 447 1469 447 1469 656 1469 c 0,57,58
 773 1469 773 1469 885 1439.5 c 128,-1,59
 997 1410 997 1410 1045 1355 c 1,60,61
 1171 1456 1171 1456 1385 1456 c 0,62,63
 1873 1456 1873 1456 1873 1251 c 0,64,65
 1873 1129 1873 1129 1740 1129 c 0,66,67
 1696 1129 1696 1129 1666.5 1162 c 128,-1,68
 1637 1195 1637 1195 1637 1234.5 c 128,-1,69
 1637 1274 1637 1274 1663 1305 c 1,70,71
 1591 1373 1591 1373 1396 1373 c 0,72,73
 1260 1373 1260 1373 1175.5 1308.5 c 128,-1,74
 1091 1244 1091 1244 1091 1122 c 0,75,76
 1091 1050 1091 1050 1118 964 c 1,77,-1
 1260 964 l 2,78,79
 1332 964 1332 964 1332 920 c 0,80,81
 1332 886 1332 886 1310.5 861 c 128,-1,82
 1289 836 1289 836 1263 836 c 2,83,-1
 1115 836 l 1,84,-1
 1115 282 l 2,85,86
 1115 125 1115 125 1227 125 c 1,87,88
 1258.00386235 115.957206814 1258.00386235 115.957206814 1264.00193118 106.554015369 c 128,-1,89
 1270 97.1508239239 1270 97.1508239239 1270 75.575411962 c 128,-1,90
 1270 54 1270 54 1254.5 36.5 c 128,-1,91
 1239 19 1239 19 1206 12 c 0,92,93
 1154.14285714 1 1154.14285714 1 1073 1 c 2,94,-1
 1060 1 l 1,95,-1
 948 -1 l 1,96,97
 816.763157895 -1 816.763157895 -1 785.5 43 c 0,98,99
 772 62 772 62 772 90 c 0,100,101
 772 107 772 107 840.5 141 c 128,-1,102
 909 175 909 175 913 182 c 1,103,104
 922 227 922 227 922 282 c 2,105,-1
 922 835 l 1,106,-1
 397 836 l 1,107,-1
 397 191 l 2,108,109
 397 133.448979592 397 133.448979592 461.5 129.5 c 128,-1,110
 526 125.551020408 526 125.551020408 526 78 c 0,111,112
 526 23.4444444444 526 23.4444444444 465.5 10 c 0,113,114
 420.5 0 420.5 0 340 0 c 2,36,-1
954 1245 m 1,115,116
 944 1250 944 1250 908.5 1271.5 c 128,-1,117
 873 1293 873 1293 851.5 1303.5 c 128,-1,118
 830 1314 830 1314 795 1329 c 0,119,120
 727.333333333 1358 727.333333333 1358 654 1358 c 0,121,122
 353 1358 353 1358 353 1170 c 0,123,124
 353 1052 353 1052 397 962 c 1,125,-1
 874 962 l 1,126,127
 904 964 904 964 924 964 c 1,128,129
 918 1009 918 1009 918 1090 c 128,-1,130
 918 1171 918 1171 954 1245 c 1,115,116
EndSplineSet
LCarets2: 2 0 0 
Ligature2: "'liga'" f f i
EndChar

StartChar: numbersign
Encoding: 5 35 4
Width: 1418
Flags: HMW
LayerCount: 2
Fore
SplineSet
-2 506 m 256,0,1
 -2 544 -2 544 21 564.5 c 128,-1,2
 44 585 44 585 83 585 c 2,3,-1
 286 585 l 1,4,-1
 386 1030 l 1,5,-1
 188 1030 l 2,6,7
 107 1030 107 1030 107 1106 c 0,8,9
 107 1144 107 1144 130 1164.5 c 128,-1,10
 153 1185 153 1185 192 1185 c 2,11,-1
 421 1185 l 1,12,-1
 529 1666 l 1,13,14
 535 1707 535 1707 560.5 1734.5 c 128,-1,15
 586 1762 586 1762 619.5 1762 c 0,16,17
 653 1762 653 1762 676.5 1739 c 128,-1,18
 700 1716 700 1716 700 1686 c 128,-1,19
 700 1656 700 1656 697 1640 c 2,20,-1
 598 1185 l 1,21,-1
 1021 1185 l 1,22,-1
 1129 1666 l 1,23,24
 1136 1707 1136 1707 1161.5 1734.5 c 128,-1,25
 1187 1762 1187 1762 1220 1762 c 0,26,27
 1253 1762 1253 1762 1276.5 1739 c 128,-1,28
 1300 1716 1300 1716 1300 1686 c 128,-1,29
 1300 1656 1300 1656 1297 1640 c 2,30,-1
 1198 1185 l 1,31,-1
 1362 1185 l 2,32,33
 1398 1185 1398 1185 1421 1167 c 128,-1,34
 1444 1149 1444 1149 1444 1115 c 0,35,36
 1444 1030 1444 1030 1359 1030 c 2,37,-1
 1163 1030 l 1,38,-1
 1063 585 l 1,39,-1
 1253 585 l 2,40,41
 1289 585 1289 585 1312 567 c 128,-1,42
 1335 549 1335 549 1335 515 c 0,43,44
 1335 430 1335 430 1250 430 c 2,45,-1
 1028 430 l 1,46,-1
 933 -6 l 2,47,48
 924 -49 924 -49 897.5 -77 c 128,-1,49
 871 -105 871 -105 836.5 -105 c 0,50,51
 802 -105 802 -105 778.5 -83 c 128,-1,52
 755 -61 755 -61 755 -33 c 128,-1,53
 755 -5 755 -5 758 10 c 2,54,-1
 852 430 l 1,55,-1
 428 430 l 1,56,-1
 333 -6 l 1,57,58
 326 -48 326 -48 300 -77 c 128,-1,59
 274 -106 274 -106 239.5 -106 c 0,60,61
 205 -106 205 -106 180 -83.5 c 128,-1,62
 155 -61 155 -61 155 -33 c 128,-1,63
 155 -5 155 -5 158 10 c 2,64,-1
 252 430 l 1,65,-1
 79 430 l 2,66,67
 -2 430 -2 430 -2 506 c 256,0,1
463 585 m 1,68,-1
 886 585 l 1,69,-1
 986 1030 l 1,70,-1
 563 1030 l 1,71,-1
 463 585 l 1,68,-1
EndSplineSet
EndChar

StartChar: dollar
Encoding: 6 36 5
Width: 1095
Flags: HMW
LayerCount: 2
Fore
SplineSet
866 921 m 2,0,-1
 865 921 l 2,1,2
 819 921 819 921 807.5 929.5 c 128,-1,3
 796 938 796 938 796 1000 c 128,-1,4
 796 1062 796 1062 756.5 1117 c 128,-1,5
 717 1172 717 1172 649 1196 c 1,6,-1
 608 813 l 1,7,8
 826 748 826 748 900 701.5 c 128,-1,9
 974 655 974 655 1015.5 602 c 128,-1,10
 1057 549 1057 549 1057 470 c 0,11,12
 1057 349 1057 349 981.5 275 c 128,-1,13
 906 201 906 201 794.5 163 c 128,-1,14
 683 125 683 125 559 125 c 2,15,-1
 534 125 l 1,16,-1
 515 -59 l 1,17,18
 515 -120 515 -120 495.5 -140.5 c 128,-1,19
 476 -161 476 -161 458 -161 c 0,20,21
 420 -161 420 -161 420 -117 c 128,-1,22
 420 -73 420 -73 424 -33 c 128,-1,23
 428 7 428 7 435 59.5 c 128,-1,24
 442 112 442 112 444 131 c 1,25,26
 298 144 298 144 216 178.5 c 0,27,28
 71 239.506097561 71 239.506097561 71 291 c 0,29,30
 71 293 71 293 82 318 c 0,31,32
 115 393 115 393 115 517 c 0,33,34
 115 540 115 540 128.5 557 c 128,-1,35
 142 574 142 574 154.5 574 c 128,-1,36
 167 574 167 574 171 572.5 c 128,-1,37
 175 571 175 571 178.5 569 c 128,-1,38
 182 567 182 567 185 563 c 128,-1,39
 188 559 188 559 190.5 556.5 c 128,-1,40
 193 554 193 554 196 548 c 128,-1,41
 199 542 199 542 200.5 538.5 c 128,-1,42
 202 535 202 535 204 528.5 c 128,-1,43
 206 522 206 522 207 519 c 128,-1,44
 208 516 208 516 210 509 c 0,45,46
 241.655172414 398.206896552 241.655172414 398.206896552 274 352 c 0,47,48
 335 266 335 266 456 243 c 1,49,-1
 501 653 l 1,50,51
 289.5 714.5 289.5 714.5 220.75 756.25 c 0,52,53
 70 847.796363636 70 847.796363636 70 999 c 0,54,55
 70 1203 70 1203 335 1278 c 0,56,57
 432 1306 432 1306 550 1306 c 2,58,-1
 560 1306 l 2,59,60
 568 1306 568 1306 572 1305 c 1,61,-1
 602 1575 l 2,62,63
 604 1597 604 1597 618.5 1615 c 128,-1,64
 633 1633 633 1633 650 1633 c 128,-1,65
 667 1633 667 1633 679 1622 c 128,-1,66
 691 1611 691 1611 691 1594.5 c 128,-1,67
 691 1578 691 1578 690 1575 c 2,68,-1
 660 1295 l 1,69,70
 892 1251 892 1251 982 1133 c 0,71,72
 1015 1090 1015 1090 1015 1046.5 c 128,-1,73
 1015 1003 1015 1003 999.5 981 c 128,-1,74
 984 959 984 959 943.5 940 c 128,-1,75
 903 921 903 921 866 921 c 2,0,-1
559 234 m 2,76,77
 843 234 843 234 843 417 c 0,78,79
 843 531 843 531 688 592 c 0,80,81
 639 611 639 611 588 627 c 1,82,-1
 546 234 l 1,83,-1
 559 234 l 2,76,77
519 1212 m 2,84,85
 452 1212 452 1212 389.5 1184.5 c 0,86,87
 269 1131.48 269 1131.48 269 1038 c 0,88,89
 269 963 269 963 334.5 919.5 c 128,-1,90
 400 876 400 876 521 839 c 1,91,-1
 562 1211 l 1,92,93
 557 1212 557 1212 549 1212 c 2,94,-1
 519 1212 l 2,84,85
EndSplineSet
EndChar

StartChar: percent
Encoding: 7 37 6
Width: 1955
Flags: HMW
LayerCount: 2
Fore
SplineSet
1389 1636 m 0,0,1
 1432 1636 1432 1636 1432 1578 c 0,2,3
 1432 1548 1432 1548 1413 1510 c 2,4,-1
 662 -32 l 2,5,6
 624.5 -110 624.5 -110 575 -110 c 0,7,8
 557 -110 557 -110 545 -95 c 128,-1,9
 533 -80 533 -80 533 -50.5 c 128,-1,10
 533 -21 533 -21 552 16 c 2,11,-1
 1302 1558 l 2,12,13
 1339.5 1636 1339.5 1636 1389 1636 c 0,0,1
666.5 1340 m 128,-1,15
 768 1231 768 1231 768 1061 c 128,-1,16
 768 891 768 891 655 779 c 128,-1,17
 542 667 542 667 375 667 c 128,-1,18
 208 667 208 667 107 780 c 128,-1,19
 6 893 6 893 6 1062.5 c 128,-1,20
 6 1232 6 1232 118.5 1340.5 c 128,-1,21
 231 1449 231 1449 398 1449 c 128,-1,14
 565 1449 565 1449 666.5 1340 c 128,-1,15
550 1269 m 128,-1,23
 485 1366 485 1366 378.5 1366 c 128,-1,24
 272 1366 272 1366 219 1284.5 c 128,-1,25
 166 1203 166 1203 166 1075 c 128,-1,26
 166 947 166 947 230 850.5 c 128,-1,27
 294 754 294 754 399 754 c 128,-1,28
 504 754 504 754 559.5 835.5 c 128,-1,29
 615 917 615 917 615 1044.5 c 128,-1,22
 615 1172 615 1172 550 1269 c 128,-1,23
1818.5 671 m 128,-1,31
 1920 562 1920 562 1920 392 c 128,-1,32
 1920 222 1920 222 1807 110 c 128,-1,33
 1694 -2 1694 -2 1527 -2 c 128,-1,34
 1360 -2 1360 -2 1259 111 c 128,-1,35
 1158 224 1158 224 1158 393.5 c 128,-1,36
 1158 563 1158 563 1270.5 671.5 c 128,-1,37
 1383 780 1383 780 1550 780 c 128,-1,30
 1717 780 1717 780 1818.5 671 c 128,-1,31
1702 600 m 128,-1,39
 1637 697 1637 697 1530.5 697 c 128,-1,40
 1424 697 1424 697 1371 615 c 128,-1,41
 1318 533 1318 533 1318 405 c 128,-1,42
 1318 277 1318 277 1382 181 c 128,-1,43
 1446 85 1446 85 1551 85 c 128,-1,44
 1656 85 1656 85 1711.5 166.5 c 128,-1,45
 1767 248 1767 248 1767 375.5 c 128,-1,38
 1767 503 1767 503 1702 600 c 128,-1,39
EndSplineSet
EndChar

StartChar: ampersand
Encoding: 8 38 7
Width: 1564
Flags: HMW
LayerCount: 2
Fore
SplineSet
1159 794 m 1,0,1
 1048 784 1048 784 994.5 758 c 128,-1,2
 941 732 941 732 905 667 c 1,3,-1
 808 737 l 1,4,5
 856 930 856 930 1056 978 c 0,6,7
 1079 983 1079 983 1210.5 1003 c 128,-1,8
 1342 1023 1342 1023 1376 1036 c 0,9,10
 1472 1070.5 1472 1070.5 1487 1159 c 1,11,-1
 1608 1094 l 1,12,13
 1568.65067179 969.898272553 1568.65067179 969.898272553 1527 922 c 0,14,15
 1447 831 1447 831 1264 810 c 1,16,17
 1365 631 1365 631 1365 454 c 0,18,19
 1365 212 1365 212 1180.75 53 c 128,-1,20
 996.5 -106 996.5 -106 680 -106 c 0,21,22
 417.036363636 -106 417.036363636 -106 246.5 5 c 0,23,24
 162 60 162 60 114 149.5 c 128,-1,25
 66 239 66 239 66 355 c 0,26,27
 66 549 66 549 252 672 c 0,28,29
 316 715 316 715 406 745 c 1,30,-1
 406 746 l 1,31,32
 301 773 301 773 224 845.5 c 128,-1,33
 147 918 147 918 147 1020 c 0,34,35
 147 1183 147 1183 296.5 1280 c 128,-1,36
 446 1377 446 1377 606.5 1377 c 128,-1,37
 767 1377 767 1377 864.5 1316 c 128,-1,38
 962 1255 962 1255 962 1140 c 0,39,40
 962 1081 962 1081 917 1049.5 c 128,-1,41
 872 1018 872 1018 818.5 1018 c 128,-1,42
 765 1018 765 1018 724 1022 c 1,43,44
 730 1061 730 1061 730 1100 c 0,45,46
 730 1192 730 1192 681 1246.5 c 128,-1,47
 632 1301 632 1301 541.5 1301 c 128,-1,48
 451 1301 451 1301 389 1224 c 128,-1,49
 327 1147 327 1147 327 1040 c 0,50,51
 327 887 327 887 443 828 c 0,52,53
 481 809 481 809 518.5 809 c 128,-1,54
 556 809 556 809 577 790.5 c 128,-1,55
 598 772 598 772 598 742 c 0,56,57
 598 683 598 683 509 683 c 128,-1,58
 420 683 420 683 348 594 c 128,-1,59
 276 505 276 505 276 393 c 0,60,61
 276 199.5 276 199.5 516 138 c 0,62,63
 600 117 600 117 738.5 117 c 128,-1,64
 877 117 877 117 987.5 155.5 c 128,-1,65
 1098 194 1098 194 1165.5 282 c 128,-1,66
 1233 370 1233 370 1233 502 c 128,-1,67
 1233 634 1233 634 1159 794 c 1,0,1
EndSplineSet
EndChar

StartChar: quotesingle
Encoding: 9 39 8
Width: 391
Flags: HMW
LayerCount: 2
Fore
SplineSet
90 1323 m 1,0,1
 90 1378 90 1378 117 1414 c 128,-1,2
 144 1450 144 1450 194 1450 c 0,3,4
 244 1450 244 1450 272.5 1414 c 128,-1,5
 301 1378 301 1378 301 1331 c 1,6,-1
 231 889 l 2,7,8
 229 870 229 870 219 855.5 c 128,-1,9
 209 841 209 841 194 841 c 0,10,11
 165 841 165 841 160 885 c 1,12,-1
 90 1323 l 1,0,1
EndSplineSet
EndChar

StartChar: parenleft
Encoding: 10 40 9
Width: 606
Flags: HMW
LayerCount: 2
Fore
SplineSet
585 -92 m 0,0,1
 503 -92 503 -92 337.5 54.5 c 128,-1,2
 172 201 172 201 100 425 c 0,3,4
 62 540 62 540 62 694 c 128,-1,5
 62 848 62 848 126 1000 c 0,6,7
 248.075040783 1289.92822186 248.075040783 1289.92822186 515 1433 c 0,8,9
 549 1452 549 1452 595 1452 c 128,-1,10
 641 1452 641 1452 641 1412.5 c 128,-1,11
 641 1373 641 1373 570 1328 c 0,12,13
 435 1241 435 1241 357 1072 c 128,-1,14
 279 903 279 903 279 692 c 0,15,16
 279 370 279 370 448 150 c 0,17,18
 505 76 505 76 573 30 c 128,-1,19
 641 -16 641 -16 641 -54 c 128,-1,20
 641 -92 641 -92 585 -92 c 0,0,1
EndSplineSet
EndChar

StartChar: parenright
Encoding: 11 41 10
Width: 612
Flags: HMW
LayerCount: 2
Fore
SplineSet
30 1452 m 0,0,1
 113 1452 113 1452 277 1307 c 128,-1,2
 441 1162 441 1162 514 935 c 0,3,4
 553 816.5 553 816.5 553 680 c 256,5,6
 553 512 553 512 489 360 c 0,7,8
 366.924959217 70.0717781403 366.924959217 70.0717781403 100 -73 c 0,9,10
 66 -92 66 -92 20 -92 c 128,-1,11
 -26 -92 -26 -92 -26 -53 c 128,-1,12
 -26 -14 -26 -14 43 32 c 0,13,14
 178 123 178 123 257 300.5 c 128,-1,15
 336 478 336 478 336 692 c 0,16,17
 336 1001 336 1001 170 1212 c 0,18,19
 114 1283 114 1283 44 1328.5 c 128,-1,20
 -26 1374 -26 1374 -26 1413 c 128,-1,21
 -26 1452 -26 1452 30 1452 c 0,0,1
EndSplineSet
EndChar

StartChar: asterisk
Encoding: 12 42 11
Width: 1185
Flags: HMW
LayerCount: 2
Fore
SplineSet
481 1340 m 0,0,1
 481 1478 481 1478 589 1478 c 0,2,3
 639 1478 639 1478 673.5 1447 c 128,-1,4
 708 1416 708 1416 708 1357.5 c 128,-1,5
 708 1299 708 1299 663 1189.5 c 128,-1,6
 618 1080 618 1080 609 1023 c 1,7,-1
 587 1016 l 1,8,-1
 570 1022 l 1,9,-1
 570 1028 l 1,10,11
 559 1078 559 1078 520 1188 c 128,-1,12
 481 1298 481 1298 481 1340 c 0,0,1
199 633 m 0,13,14
 148 633 148 633 114 663 c 128,-1,15
 80 693 80 693 80 730 c 128,-1,16
 80 767 80 767 97 787 c 0,17,18
 149.702702703 849.00317965 149.702702703 849.00317965 337 899.5 c 0,19,20
 439 927 439 927 509 927 c 2,21,-1
 516 927 l 1,22,-1
 545 916 l 1,23,-1
 481 846 l 2,24,25
 287.5 633 287.5 633 199 633 c 0,13,14
696 1043 m 1,26,27
 822 1181 822 1181 920 1236 c 0,28,29
 961 1258 961 1258 1000 1258 c 128,-1,30
 1039 1258 1039 1258 1071 1233.5 c 128,-1,31
 1103 1209 1103 1209 1103 1162 c 1,32,-1
 1092 1143 l 1,33,-1
 1092 1138 l 1,34,-1
 1098 1138 l 1,35,36
 1095 1055 1095 1055 912 1017 c 0,37,38
 859 1006 859 1006 817 999 c 2,39,-1
 788 994 l 2,40,41
 703 979 703 979 674 965 c 1,42,-1
 645 992 l 1,43,-1
 696 1043 l 1,26,27
479 566 m 0,44,45
 479 622 479 622 541 775 c 1,46,47
 577 847 577 847 577 877 c 1,48,-1
 590 882 l 1,49,50
 617 873 617 873 680 649 c 0,51,52
 704 566 704 566 704 545 c 0,53,54
 704 426 704 426 585 426 c 0,55,56
 479 426 479 426 479 566 c 0,44,45
1071 807 m 128,-1,58
 1098 777 1098 777 1098 738.5 c 128,-1,59
 1098 700 1098 700 1066 664 c 128,-1,60
 1034 628 1034 628 992 628 c 0,61,62
 927.555555556 628 927.555555556 628 869.777777778 677.5 c 128,-1,63
 812 727 812 727 751 798 c 1,64,65
 728 832 728 832 702 856 c 1,66,-1
 702 855 l 1,67,68
 683 866 683 866 653 896 c 1,69,-1
 653 895 l 1,70,71
 652 895 652 895 648 899 c 1,72,-1
 648 914 l 1,73,-1
 674 927 l 1,74,75
 757.348837209 900.209302326 757.348837209 900.209302326 885 877 c 1,76,-1
 931 867 l 2,77,78
 945 864 945 864 966 860 c 128,-1,79
 987 856 987 856 1011 850 c 1,80,-1
 1011 841 l 1,81,57
 1044 837 1044 837 1071 807 c 128,-1,58
151.5 1064 m 0,82,83
 80 1104.85714286 80 1104.85714286 80 1152.92857143 c 128,-1,84
 80 1201 80 1201 108.5 1234.5 c 128,-1,85
 137 1268 137 1268 174.5 1268 c 128,-1,86
 212 1268 212 1268 239.5 1260 c 128,-1,87
 267 1252 267 1252 292.5 1232 c 128,-1,88
 318 1212 318 1212 331.5 1199.5 c 0,89,90
 351.923076923 1180.58974359 351.923076923 1180.58974359 403 1121 c 1,91,-1
 428 1095 l 1,92,93
 476 1041 476 1041 504 1022 c 1,94,-1
 540 994 l 1,95,-1
 507 972 l 1,96,97
 482.543859649 982.070175439 482.543859649 982.070175439 443.771929825 988.035087719 c 128,-1,98
 405 994 405 994 393 996.5 c 2,99,-1
 357 1004 l 2,100,101
 333 1009 333 1009 325 1010.5 c 128,-1,102
 317 1012 317 1012 295 1016.5 c 128,-1,103
 273 1021 273 1021 263 1024 c 128,-1,104
 253 1027 253 1027 234 1032 c 128,-1,105
 215 1037 215 1037 204.5 1041.5 c 128,-1,106
 194 1046 194 1046 178 1052 c 128,-1,107
 162 1058 162 1058 151.5 1064 c 0,82,83
EndSplineSet
EndChar

StartChar: plus
Encoding: 13 43 12
Width: 795
Flags: HMW
LayerCount: 2
Fore
SplineSet
481 321 m 2,0,1
 481 276 481 276 464 254.5 c 128,-1,2
 447 233 447 233 404 233 c 0,3,4
 323 233 323 233 323 325 c 2,5,-1
 323 551 l 1,6,-1
 103 551 l 2,7,8
 51 551 51 551 33 567.5 c 128,-1,9
 15 584 15 584 15 631 c 0,10,11
 15 693 15 693 107 693 c 2,12,-1
 323 693 l 1,13,-1
 323 920 l 2,14,15
 323 1011 323 1011 395 1011 c 0,16,17
 443 1011 443 1011 462 989 c 128,-1,18
 481 967 481 967 481 917 c 2,19,-1
 481 693 l 1,20,-1
 698 693 l 2,21,22
 749 693 749 693 769 677 c 128,-1,23
 789 661 789 661 789 620 c 0,24,25
 789 579 789 579 765.5 565 c 128,-1,26
 742 551 742 551 695 551 c 2,27,-1
 481 551 l 1,28,-1
 481 321 l 2,0,1
EndSplineSet
EndChar

StartChar: comma
Encoding: 14 44 13
Width: 459
Flags: HMW
LayerCount: 2
Fore
SplineSet
207 27 m 1,0,1
 90 31.5 90 31.5 90 118 c 0,2,3
 90 169 90 169 134 197 c 128,-1,4
 178 225 178 225 236 225 c 0,5,6
 363 225 363 225 375 99 c 1,7,8
 375 10 375 10 318 -55 c 128,-1,9
 261 -120 261 -120 178 -120 c 0,10,11
 139 -120 139 -120 139 -97 c 0,12,13
 139 -81.3636363636 139 -81.3636363636 154.5 -68.6818181818 c 0,14,15
 204.773512476 -27.5489443378 204.773512476 -27.5489443378 207 27 c 1,0,1
EndSplineSet
EndChar

StartChar: hyphen
Encoding: 15 45 14
Width: 778
Flags: HMW
LayerCount: 2
Fore
SplineSet
597 585 m 2,0,1
 633 585 633 585 656 567 c 128,-1,2
 679 549 679 549 679 515 c 0,3,4
 679 430 679 430 594 430 c 2,5,-1
 183 430 l 2,6,7
 102 430 102 430 102 506 c 0,8,9
 102 544 102 544 125 564.5 c 128,-1,10
 148 585 148 585 187 585 c 2,11,-1
 597 585 l 2,0,1
EndSplineSet
EndChar

StartChar: period
Encoding: 16 46 15
Width: 460
Flags: HMW
LayerCount: 2
Fore
SplineSet
137.5 32 m 128,-1,1
 95 64 95 64 95 114.5 c 128,-1,2
 95 165 95 165 141 199 c 128,-1,3
 187 233 187 233 234 233 c 128,-1,4
 281 233 281 233 328.5 202 c 128,-1,5
 376 171 376 171 376 128 c 0,6,7
 376 38 376 38 285 8 c 0,8,9
 262 0 262 0 221 0 c 128,-1,0
 180 0 180 0 137.5 32 c 128,-1,1
EndSplineSet
EndChar

StartChar: slash
Encoding: 17 47 16
Width: 652
Flags: HMW
LayerCount: 2
Fore
SplineSet
196 -87 m 1,0,1
 178.857142857 -138.428571429 178.857142857 -138.428571429 162.428571429 -153.214285714 c 128,-1,2
 146 -168 146 -168 120.5 -168 c 128,-1,3
 95 -168 95 -168 56 -156 c 0,4,5
 -18 -132 -18 -132 -18 -83 c 0,6,7
 -18 -66 -18 -66 -6 -25 c 2,8,-1
 495 1597 l 2,9,10
 506 1636 506 1636 523 1657.5 c 128,-1,11
 540 1679 540 1679 591 1679 c 128,-1,12
 642 1679 642 1679 675 1650 c 128,-1,13
 708 1621 708 1621 708 1591.5 c 128,-1,14
 708 1562 708 1562 698 1535 c 1,15,-1
 196 -87 l 1,0,1
EndSplineSet
EndChar

StartChar: zero
Encoding: 18 48 17
Width: 1529
Flags: HMW
LayerCount: 2
Fore
SplineSet
774 111 m 0,0,1
 934 111 934 111 1038 192.5 c 128,-1,2
 1142 274 1142 274 1194.5 405 c 0,3,4
 1247 536 1247 536 1247 686 c 0,5,6
 1247 937 1247 937 1114 1125 c 0,7,8
 981 1313 981 1313 751.5 1313 c 0,9,10
 522 1313 522 1313 400.5 1144.5 c 0,11,12
 279 976 279 976 279 733 c 0,13,14
 279 490 279 490 411.5 300.5 c 0,15,16
 544 111 544 111 774 111 c 0,0,1
757 -25 m 256,17,18
 420 -25 420 -25 232 196 c 0,19,20
 60 398 60 398 60 692.5 c 0,21,22
 60 987 60 987 240 1206 c 0,23,24
 361 1353 361 1353 556 1413 c 0,25,26
 654 1443 654 1443 771 1443 c 0,27,28
 1001 1443 1001 1443 1157.5 1345 c 128,-1,29
 1314 1247 1314 1247 1393 1083.5 c 0,30,31
 1472 920 1472 920 1472 732 c 0,32,33
 1472 432 1472 432 1291 214 c 0,34,35
 1093.15231788 -25 1093.15231788 -25 757 -25 c 256,17,18
EndSplineSet
EndChar

StartChar: one
Encoding: 19 49 18
Width: 605
Flags: HMW
LayerCount: 2
Fore
SplineSet
238 1428 m 0,0,1
 311 1442 311 1442 356 1442 c 128,-1,2
 401 1442 401 1442 414.5 1422 c 128,-1,3
 428 1402 428 1402 428 1343 c 2,4,-1
 428 177 l 2,5,6
 428 148 428 148 501.245869947 133.171313646 c 0,7,8
 505 132 505 132 507.5 131.5 c 128,-1,9
 510 131 510 131 519.5 129 c 128,-1,10
 529 127 529 127 533.5 126.5 c 128,-1,11
 538 126 538 126 546.5 123.5 c 128,-1,12
 555 121 555 121 559 119 c 128,-1,13
 563 117 563 117 569.5 113 c 128,-1,14
 576 109 576 109 578.5 105 c 0,15,16
 586 93 586 93 586 83 c 0,17,18
 586 30 586 30 514 12 c 0,19,20
 468 0 468 0 319.5 0 c 128,-1,21
 171 0 171 0 131 10 c 0,22,23
 51 30 51 30 51 90 c 0,24,25
 51 114 51 114 91.5 124 c 128,-1,26
 132 134 132 134 172 143.5 c 128,-1,27
 212 153 212 153 212 177 c 2,28,-1
 212 1233 l 2,29,30
 212 1260 212 1260 130.5 1272 c 128,-1,31
 49 1284 49 1284 49 1303 c 0,32,33
 49 1390 49 1390 238 1428 c 0,0,1
EndSplineSet
EndChar

StartChar: two
Encoding: 20 50 19
Width: 1068
Flags: HMW
LayerCount: 2
Fore
SplineSet
749 1108 m 0,0,1
 749 1322 749 1322 537 1322 c 0,2,3
 453 1322 453 1322 353.5 1284.5 c 128,-1,4
 254 1247 254 1247 185 1194 c 1,5,6
 163 1181 163 1181 136.5 1181 c 128,-1,7
 110 1181 110 1181 91 1194 c 128,-1,8
 72 1207 72 1207 72 1233.5 c 128,-1,9
 72 1260 72 1260 111 1289 c 1,10,11
 248 1435 248 1435 460 1478 c 0,12,13
 524 1491 524 1491 595 1491 c 0,14,15
 763 1491 763 1491 861.5 1397 c 128,-1,16
 960 1303 960 1303 960 1140 c 0,17,18
 960 910 960 910 716 627 c 0,19,20
 529.77992278 411.092664093 529.77992278 411.092664093 207 147 c 1,21,-1
 490 147 l 2,22,23
 648 147 648 147 692 148 c 2,24,-1
 714 149 l 1,25,26
 800 149 800 149 854 288 c 0,27,28
 870 329 870 329 870 345 c 2,29,-1
 870 346 l 1,30,31
 931 346 931 346 967.5 304.5 c 128,-1,32
 1004 263 1004 263 1004 190 c 128,-1,33
 1004 117 1004 117 967 59 c 128,-1,34
 930 1 930 1 870 1 c 2,35,-1
 159 1 l 2,36,37
 102 1 102 1 64.5 31.5 c 128,-1,38
 27 62 27 62 27 118 c 0,39,40
 27 145 27 145 60 180.5 c 128,-1,41
 93 216 93 216 164 280 c 0,42,43
 502 580 502 580 665 862 c 0,44,45
 749 1007 749 1007 749 1108 c 0,0,1
EndSplineSet
EndChar

StartChar: three
Encoding: 21 51 20
Width: 1150
Flags: HMW
LayerCount: 2
Fore
SplineSet
969 1187 m 0,0,1
 969 1000.20754717 969 1000.20754717 677 879 c 1,2,3
 856 858 856 858 974 749 c 128,-1,4
 1092 640 1092 640 1092 467 c 0,5,6
 1092 236 1092 236 928.5 106 c 128,-1,7
 765 -24 765 -24 529 -24 c 0,8,9
 406 -24 406 -24 253.5 32.5 c 0,10,11
 14 121.232786885 14 121.232786885 14 224 c 0,12,13
 14 263 14 263 66 263 c 0,14,15
 94 263 94 263 130 235.5 c 128,-1,16
 166 208 166 208 180 198 c 0,17,18
 308.8 106 308.8 106 486 106 c 0,19,20
 586 106 586 106 649 129 c 128,-1,21
 712 152 712 152 765 204 c 0,22,23
 868 303 868 303 868 449.5 c 128,-1,24
 868 596 868 596 775 685 c 128,-1,25
 682 774 682 774 524 774 c 0,26,27
 437 774 437 774 348 734 c 0,28,29
 341 731 341 731 328.5 731 c 128,-1,30
 316 731 316 731 303 749.5 c 128,-1,31
 290 768 290 768 290 788 c 128,-1,32
 290 808 290 808 311.5 820.5 c 128,-1,33
 333 833 333 833 390.5 857 c 128,-1,34
 448 881 448 881 483 897.5 c 128,-1,35
 518 914 518 914 559 939 c 128,-1,36
 600 964 600 964 645.5 1002 c 0,37,38
 742 1082.59340659 742 1082.59340659 742 1192 c 0,39,40
 742 1263 742 1263 680.5 1312 c 128,-1,41
 619 1361 619 1361 542 1361 c 0,42,43
 406 1361 406 1361 255 1274 c 0,44,45
 200 1243 200 1243 142 1188 c 0,46,47
 132 1178 132 1178 116.5 1178 c 128,-1,48
 101 1178 101 1178 84.5 1194.5 c 128,-1,49
 68 1211 68 1211 68 1225.5 c 128,-1,50
 68 1240 68 1240 74 1249 c 0,51,52
 189.5 1423 189.5 1423 446 1477 c 0,53,54
 519 1493 519 1493 592 1493 c 0,55,56
 757 1493 757 1493 863 1412.5 c 128,-1,57
 969 1332 969 1332 969 1187 c 0,0,1
EndSplineSet
EndChar

StartChar: four
Encoding: 22 52 21
Width: 1041
Flags: HMW
LayerCount: 2
Fore
SplineSet
1021 599 m 128,-1,1
 1051 587 1051 587 1051 544 c 128,-1,2
 1051 501 1051 501 1023 486.5 c 128,-1,3
 995 472 995 472 934 472 c 2,4,-1
 786 472 l 1,5,-1
 786 177 l 2,6,7
 786 148.263157895 786 148.263157895 877.5 129 c 0,8,9
 887 127 887 127 891.5 126.5 c 128,-1,10
 896 126 896 126 904.5 123.5 c 128,-1,11
 913 121 913 121 917 119 c 128,-1,12
 921 117 921 117 927.5 113 c 128,-1,13
 934 109 934 109 936.5 105 c 0,14,15
 944 93 944 93 944 83 c 0,16,17
 944 30 944 30 872 12 c 0,18,19
 826 0 826 0 677.5 0 c 128,-1,20
 529 0 529 0 489 10 c 0,21,22
 409 30 409 30 409 90 c 0,23,24
 409 114 409 114 449.5 124 c 128,-1,25
 490 134 490 134 530 143.5 c 128,-1,26
 570 153 570 153 570 177 c 2,27,-1
 570 470 l 1,28,-1
 112 470 l 2,29,30
 -16 470 -16 470 -16 574 c 0,31,32
 -16 611 -16 611 2 647 c 1,33,34
 95 785 95 785 274 1056 c 128,-1,35
 453 1327 453 1327 563 1490 c 1,36,-1
 634 1490 l 2,37,38
 700 1490 700 1490 729 1461 c 1,39,40
 786 1401 786 1401 786 1249 c 2,41,-1
 786 611 l 1,42,-1
 921 611 l 2,43,0
 991 611 991 611 1021 599 c 128,-1,1
570 609 m 1,44,-1
 570 1275 l 1,45,46
 520 1190 520 1190 424.5 1025 c 128,-1,47
 329 860 329 860 273.5 764.5 c 128,-1,48
 218 669 218 669 187 609 c 1,49,-1
 570 609 l 1,44,-1
EndSplineSet
EndChar

StartChar: five
Encoding: 23 53 22
Width: 1153
Flags: HMW
LayerCount: 2
Fore
SplineSet
818 27 m 128,-1,1
 702 -22 702 -22 568 -22 c 128,-1,2
 434 -22 434 -22 289.5 25.5 c 128,-1,3
 145 73 145 73 86.5 113 c 128,-1,4
 28 153 28 153 12.5 173.5 c 128,-1,5
 -3 194 -3 194 -3 216 c 128,-1,6
 -3 238 -3 238 16 260.5 c 128,-1,7
 35 283 35 283 54.5 283 c 128,-1,8
 74 283 74 283 138.5 251 c 128,-1,9
 203 219 203 219 313.5 191 c 128,-1,10
 424 163 424 163 532 163 c 0,11,12
 689 163 689 163 767.5 238.5 c 128,-1,13
 846 314 846 314 846 431 c 128,-1,14
 846 548 846 548 738 648 c 128,-1,15
 630 748 630 748 434 748 c 0,16,17
 288 748 288 748 119 723 c 1,18,-1
 280 1388 l 1,19,-1
 519 1379 l 1,20,21
 886 1379 886 1379 925 1513 c 1,22,-1
 944 1514 l 1,23,24
 993 1514 993 1514 1023 1476.5 c 128,-1,25
 1053 1439 1053 1439 1053 1385 c 0,26,27
 1053 1300 1053 1300 984 1261 c 128,-1,28
 915 1222 915 1222 812 1222 c 2,29,-1
 380 1222 l 1,30,-1
 307 864 l 1,31,32
 431 875 431 875 532 875 c 0,33,34
 781 875 781 875 928.5 753 c 128,-1,35
 1076 631 1076 631 1076 401 c 0,36,37
 1076 271 1076 271 1005 173.5 c 128,-1,0
 934 76 934 76 818 27 c 128,-1,1
EndSplineSet
EndChar

StartChar: six
Encoding: 24 54 23
Width: 1186
Flags: HMW
LayerCount: 2
Fore
SplineSet
608 119 m 0,0,1
 772 119 772 119 851 223 c 128,-1,2
 930 327 930 327 930 505 c 0,3,4
 930 736 930 736 756 808 c 0,5,6
 699 831 699 831 630 831 c 0,7,8
 484 831 484 831 306 737 c 1,9,10
 288 642 288 642 288 556 c 0,11,12
 288 260 288 260 451 158 c 0,13,14
 512 119 512 119 608 119 c 0,0,1
939 1513 m 1,15,16
 963 1513 963 1513 979.5 1494 c 128,-1,17
 996 1475 996 1475 996 1442.5 c 128,-1,18
 996 1410 996 1410 961 1399 c 0,19,20
 672.010955485 1310.23907918 672.010955485 1310.23907918 532.255477742 1180.36953959 c 128,-1,21
 392.5 1050.5 392.5 1050.5 319 869 c 1,22,23
 484 971 484 971 677.5 971 c 128,-1,24
 871 971 871 971 1006 851.5 c 128,-1,25
 1141 732 1141 732 1141 490 c 128,-1,26
 1141 248 1141 248 1004 110.5 c 128,-1,27
 867 -27 867 -27 609 -27 c 128,-1,28
 351 -27 351 -27 206.5 145 c 128,-1,29
 62 317 62 317 62 603 c 0,30,31
 62 997.312138728 62 997.312138728 363.5 1253.5 c 0,32,33
 450 1327 450 1327 590 1401.5 c 128,-1,34
 730 1476 730 1476 930 1512 c 1,35,-1
 939 1513 l 1,15,16
EndSplineSet
EndChar

StartChar: seven
Encoding: 25 55 24
Width: 874
Flags: HMW
LayerCount: 2
Fore
SplineSet
114 1135 m 0,0,1
 50 1135 50 1135 11.5 1169.5 c 128,-1,2
 -27 1204 -27 1204 -27 1279.5 c 0,3,4
 -27 1355 -27 1355 32.5 1402.5 c 128,-1,5
 92 1450 92 1450 188 1450 c 2,6,-1
 745 1450 l 2,7,8
 820 1450 820 1450 858.5 1429 c 128,-1,9
 897 1408 897 1408 897 1365 c 0,10,11
 897 1322 897 1322 887 1292 c 128,-1,12
 877 1262 877 1262 859 1228.5 c 128,-1,13
 841 1195 841 1195 835 1178 c 2,14,-1
 391 34 l 1,15,16
 359 -28 359 -28 283 -28 c 0,17,18
 207 -28 207 -28 178 31 c 0,19,20
 169 51 169 51 169 73 c 0,21,22
 169 95 169 95 179 116 c 2,23,-1
 712 1337 l 1,24,-1
 439 1337 l 2,25,26
 306 1337 306 1337 240 1291 c 128,-1,27
 174 1245 174 1245 164 1140 c 1,28,29
 136 1135 136 1135 114 1135 c 0,0,1
EndSplineSet
EndChar

StartChar: eight
Encoding: 26 56 25
Width: 1268
Flags: HMW
LayerCount: 2
Fore
SplineSet
608 676 m 1,0,1
 493 631 493 631 384.5 525.5 c 128,-1,2
 276 420 276 420 276 346.5 c 128,-1,3
 276 273 276 273 329 222.5 c 0,4,5
 430.277227723 126 430.277227723 126 633.638613861 126 c 128,-1,6
 837 126 837 126 934 235 c 0,7,8
 971 276 971 276 971 341 c 0,9,10
 971 476.544117647 971 476.544117647 788 581.5 c 0,11,12
 742.64037123 607.515081206 742.64037123 607.515081206 680.820185615 638.757540603 c 128,-1,13
 619 670 619 670 608 676 c 1,0,1
649 1362 m 0,14,15
 624 1362 624 1362 534 1356 c 128,-1,16
 444 1350 444 1350 391.5 1297 c 128,-1,17
 339 1244 339 1244 339 1138 c 0,18,19
 339 1072 339 1072 400 999 c 128,-1,20
 461 926 461 926 590 866 c 0,21,22
 599 862 599 862 608.5 857 c 128,-1,23
 618 852 618 852 642 840 c 1,24,25
 657 850 657 850 702.5 879.5 c 0,26,27
 793.068311195 938.220113852 793.068311195 938.220113852 836 976 c 0,28,29
 941 1070 941 1070 941 1178 c 0,30,31
 941 1362 941 1362 649 1362 c 0,14,15
1115 1160 m 0,32,33
 1115 945.5 1115 945.5 800 767 c 1,34,35
 1086 651 1086 651 1185 483 c 0,36,37
 1221 422 1221 422 1221 350 c 0,38,39
 1221 85 1221 85 908 8 c 0,40,41
 789 -21 789 -21 644.5 -21 c 0,42,43
 316.525 -21 316.525 -21 172 120 c 0,44,45
 78 213 78 213 78 348.5 c 128,-1,46
 78 484 78 484 192 584 c 128,-1,47
 306 684 306 684 471 752 c 1,48,49
 312 819 312 819 217 925 c 128,-1,50
 122 1031 122 1031 122 1149 c 0,51,52
 122 1377 122 1377 400 1461 c 0,53,54
 508 1493 508 1493 606 1493 c 0,55,56
 800 1493 800 1493 940 1423 c 0,57,58
 1017 1385 1017 1385 1066 1316.5 c 128,-1,59
 1115 1248 1115 1248 1115 1160 c 0,32,33
EndSplineSet
EndChar

StartChar: nine
Encoding: 27 57 26
Width: 1165
Flags: HMW
LayerCount: 2
Fore
SplineSet
566 1367 m 0,0,1
 407 1367 407 1367 310.5 1275 c 128,-1,2
 214 1183 214 1183 214 1037.5 c 128,-1,3
 214 892 214 892 309 787.5 c 128,-1,4
 404 683 404 683 565.5 683 c 128,-1,5
 727 683 727 683 865 749 c 1,6,7
 883 843 883 843 883 930 c 0,8,9
 883 1226 883 1226 720 1328 c 0,10,11
 658 1367 658 1367 566 1367 c 0,0,1
232 -27 m 1,12,13
 208 -27 208 -27 191.5 -8 c 128,-1,14
 175 11 175 11 175 43.5 c 128,-1,15
 175 76 175 76 210 87 c 0,16,17
 498 175 498 175 644 317 c 128,-1,18
 790 459 790 459 862 647 c 1,19,20
 718 554 718 554 547 554 c 0,21,22
 324 554 324 554 177 681.5 c 128,-1,23
 30 809 30 809 30 1017 c 0,24,25
 30 1348 30 1348 321 1468 c 0,26,27
 429 1513 429 1513 547 1513 c 0,28,29
 795 1513 795 1513 942 1366 c 0,30,31
 1109 1200 1109 1200 1109 883 c 0,32,33
 1109 488.687861272 1109 488.687861272 807.5 232.5 c 0,34,35
 721 159 721 159 614 102 c 0,36,37
 437 7 437 7 241 -26 c 1,38,-1
 232 -27 l 1,12,13
EndSplineSet
EndChar

StartChar: colon
Encoding: 28 58 27
Width: 495
Flags: HMW
LayerCount: 2
Fore
SplineSet
155 783 m 128,-1,1
 112 815 112 815 112 864.5 c 128,-1,2
 112 914 112 914 159 949 c 128,-1,3
 206 984 206 984 252 984 c 128,-1,4
 298 984 298 984 345.5 953 c 128,-1,5
 393 922 393 922 393 879 c 0,6,7
 393 790 393 790 302 760 c 0,8,9
 277 751 277 751 237.5 751 c 128,-1,0
 198 751 198 751 155 783 c 128,-1,1
155 215 m 128,-1,11
 112 247 112 247 112 296.5 c 128,-1,12
 112 346 112 346 159 381 c 128,-1,13
 206 416 206 416 252 416 c 128,-1,14
 298 416 298 416 345.5 385 c 128,-1,15
 393 354 393 354 393 311 c 0,16,17
 393 222 393 222 302 192 c 0,18,19
 276 183 276 183 237 183 c 128,-1,10
 198 183 198 183 155 215 c 128,-1,11
EndSplineSet
EndChar

StartChar: semicolon
Encoding: 29 59 28
Width: 503
Flags: HMW
LayerCount: 2
Fore
SplineSet
397 290 m 1,0,1
 397 201 397 201 340 136 c 128,-1,2
 283 71 283 71 200 71 c 0,3,4
 161 71 161 71 161 94 c 0,5,6
 161 109.636363636 161 109.636363636 176.5 122.318181818 c 0,7,8
 226.773512476 163.451055662 226.773512476 163.451055662 229 218 c 1,9,10
 112 224 112 224 112 308 c 0,11,12
 112 359 112 359 156 387.5 c 128,-1,13
 200 416 200 416 258 416 c 0,14,15
 385 416 385 416 397 290 c 1,0,1
157.5 783 m 128,-1,17
 115 815 115 815 115 865 c 128,-1,18
 115 915 115 915 161.5 949.5 c 128,-1,19
 208 984 208 984 254.5 984 c 128,-1,20
 301 984 301 984 348.5 953 c 128,-1,21
 396 922 396 922 396 879 c 0,22,23
 396 790 396 790 305 760 c 0,24,25
 279 751 279 751 239.5 751 c 128,-1,16
 200 751 200 751 157.5 783 c 128,-1,17
EndSplineSet
EndChar

StartChar: less
Encoding: 30 60 29
Width: 732
Flags: HMW
LayerCount: 2
Fore
SplineSet
157 372 m 0,0,1
 42 481 42 481 42 520 c 128,-1,2
 42 559 42 559 148 656 c 128,-1,3
 254 753 254 753 387.5 840.5 c 128,-1,4
 521 928 521 928 556.5 928 c 128,-1,5
 592 928 592 928 616 911 c 128,-1,6
 640 894 640 894 640 869 c 0,7,8
 640 798.783783784 640 798.783783784 404 617 c 0,9,10
 319 551 319 551 267 522 c 1,11,12
 339 483 339 483 435.5 395.5 c 128,-1,13
 532 308 532 308 563 276 c 0,14,15
 640 196.516129032 640 196.516129032 640 165.258064516 c 128,-1,16
 640 134 640 134 618.5 115 c 128,-1,17
 597 96 597 96 571 96 c 128,-1,18
 545 96 545 96 496 122 c 0,19,20
 323 213 323 213 157 372 c 0,0,1
EndSplineSet
EndChar

StartChar: equal
Encoding: 31 61 30
Width: 1264
Flags: HMW
LayerCount: 2
Fore
SplineSet
1021 672 m 2,0,1
 1086 672 1086 672 1117 655.5 c 128,-1,2
 1148 639 1148 639 1148 585.5 c 0,3,4
 1148 532 1148 532 1117 512 c 128,-1,5
 1086 492 1086 492 1012 492 c 2,6,-1
 256 492 l 2,7,8
 194 492 194 492 162 510 c 128,-1,9
 130 528 130 528 130 581.5 c 0,10,11
 130 635 130 635 163.5 653.5 c 128,-1,12
 197 672 197 672 278 672 c 2,13,-1
 1021 672 l 2,0,1
1020 362 m 2,14,15
 1085 362 1085 362 1114 345.5 c 128,-1,16
 1143 329 1143 329 1143 271.5 c 0,17,18
 1143 214 1143 214 1096 194 c 1,19,20
 1073 183 1073 183 985 183 c 2,21,-1
 259 183 l 2,22,23
 192 183 192 183 158.5 199 c 128,-1,24
 125 215 125 215 125 269 c 0,25,26
 125 323 125 323 158.5 342.5 c 128,-1,27
 192 362 192 362 273 362 c 2,28,-1
 1020 362 l 2,14,15
EndSplineSet
EndChar

StartChar: greater
Encoding: 32 62 31
Width: 728
Flags: HMW
LayerCount: 2
Fore
SplineSet
614.5 628 m 128,-1,1
 692 554 692 554 692 517.5 c 128,-1,2
 692 481 692 481 586.5 380.5 c 128,-1,3
 481 280 481 280 347 188 c 128,-1,4
 213 96 213 96 177.5 96 c 128,-1,5
 142 96 142 96 118 113 c 128,-1,6
 94 130 94 130 94 155.5 c 0,7,8
 94 227.741496599 94 227.741496599 330 422 c 0,9,10
 409 488 409 488 467 522 c 1,11,12
 340 591 340 591 171 755 c 0,13,14
 94 830 94 830 94 858.5 c 128,-1,15
 94 887 94 887 114.5 907.5 c 128,-1,16
 135 928 135 928 162.5 928 c 0,17,18
 234.58490566 928 234.58490566 928 465 756 c 0,19,0
 537 702 537 702 614.5 628 c 128,-1,1
EndSplineSet
EndChar

StartChar: question
Encoding: 33 63 32
Width: 770
Flags: HMW
LayerCount: 2
Fore
SplineSet
412 27 m 128,-1,1
 381 -9 381 -9 327 -9 c 128,-1,2
 273 -9 273 -9 241 26.5 c 128,-1,3
 209 62 209 62 209 109 c 128,-1,4
 209 156 209 156 238.5 189.5 c 128,-1,5
 268 223 268 223 324 223 c 128,-1,6
 380 223 380 223 411.5 190 c 128,-1,7
 443 157 443 157 443 110 c 128,-1,0
 443 63 443 63 412 27 c 128,-1,1
52.5 1086 m 128,-1,9
 30 1110 30 1110 30 1144 c 128,-1,10
 30 1178 30 1178 63 1207.5 c 128,-1,11
 96 1237 96 1237 144.5 1253.5 c 0,12,13
 242.96969697 1287 242.96969697 1287 328 1287 c 0,14,15
 494 1287 494 1287 602 1216 c 128,-1,16
 710 1145 710 1145 710 1009 c 0,17,18
 710 916.137931034 710 916.137931034 651 849 c 0,19,20
 605.788819876 797.552795031 605.788819876 797.552795031 547.894409938 752.276397516 c 128,-1,21
 490 707 490 707 453.5 672 c 0,22,23
 384.312443233 605.655767484 384.312443233 605.655767484 366 450 c 1,24,25
 356 378 356 378 329 378 c 0,26,27
 288 378 288 378 288 465.5 c 128,-1,28
 288 553 288 553 299.5 608.5 c 128,-1,29
 311 664 311 664 338.5 709.5 c 0,30,31
 377.302251547 773.700088924 377.302251547 773.700088924 423.151125774 819.850044462 c 128,-1,32
 469 866 469 866 474 872 c 0,33,34
 539 939 539 939 539 1008 c 0,35,36
 539 1133 539 1133 352 1133 c 0,37,38
 263 1133 263 1133 159 1076 c 0,39,40
 134 1062 134 1062 104.5 1062 c 128,-1,8
 75 1062 75 1062 52.5 1086 c 128,-1,9
EndSplineSet
EndChar

StartChar: at
Encoding: 34 64 33
Width: 1583
Flags: HMW
LayerCount: 2
Fore
SplineSet
1072 993 m 0,0,1
 1157 993 1157 993 1157 901 c 2,2,-1
 1157 438 l 2,3,4
 1157 347 1157 347 1237 347 c 0,5,6
 1340 347 1340 347 1370 586 c 0,7,8
 1379 662.5 1379 662.5 1379 745 c 0,9,10
 1379 907 1379 907 1297.5 1011.5 c 128,-1,11
 1216 1116 1216 1116 1082 1167 c 128,-1,12
 948 1218 948 1218 792 1218 c 0,13,14
 570 1218 570 1218 395 1061 c 0,15,16
 205 890.487179487 205 890.487179487 205 596 c 0,17,18
 205 469 205 469 255.5 359.5 c 0,19,20
 403.310502283 39 403.310502283 39 814 39 c 0,21,22
 1083 39 1083 39 1339 200 c 1,23,-1
 1340 200 l 2,24,25
 1349 200 1349 200 1395 115 c 1,26,27
 1115 -81 1115 -81 796 -81 c 128,-1,28
 477 -81 477 -81 267.5 103 c 128,-1,29
 58 287 58 287 58 615 c 0,30,31
 58 831 58 831 167.5 994 c 128,-1,32
 277 1157 277 1157 446.5 1244 c 128,-1,33
 616 1331 616 1331 775 1331 c 0,34,35
 1034 1331 1034 1331 1202.5 1256.5 c 128,-1,36
 1371 1182 1371 1182 1458 1022 c 0,37,38
 1524 899 1524 899 1524 760 c 0,39,40
 1524 511 1524 511 1437 378.5 c 128,-1,41
 1350 246 1350 246 1217.5 246 c 128,-1,42
 1085 246 1085 246 1019 346 c 1,43,44
 870 236 870 236 722 236 c 128,-1,45
 574 236 574 236 481 343.5 c 128,-1,46
 388 451 388 451 388 616 c 128,-1,47
 388 781 388 781 478.5 898 c 128,-1,48
 569 1015 569 1015 716 1015 c 128,-1,49
 863 1015 863 1015 1007 937 c 1,50,51
 1007 959 1007 959 1027.5 976 c 128,-1,52
 1048 993 1048 993 1072 993 c 0,0,1
545 608 m 0,53,54
 545 486 545 486 595 413 c 128,-1,55
 645 340 645 340 749 340 c 128,-1,56
 853 340 853 340 993 411 c 1,57,58
 992 430 992 430 992 470 c 2,59,-1
 992 600 l 1,60,-1
 990 775 l 1,61,-1
 990 815 l 1,62,-1
 991 838 l 1,63,64
 848 896 848 896 744 896 c 0,65,66
 545 896 545 896 545 608 c 0,53,54
EndSplineSet
EndChar

StartChar: A
Encoding: 35 65 34
Width: 1490
Flags: HMW
LayerCount: 2
Fore
SplineSet
1472 89 m 0,0,1
 1472 43 1472 43 1415 21.5 c 128,-1,2
 1358 0 1358 0 1290 0 c 2,3,-1
 1278 0 l 2,4,5
 1148.23076923 0 1148.23076923 0 1113.61538462 10 c 128,-1,6
 1079 20 1079 20 1057 30.5 c 0,7,8
 1013 51.5 1013 51.5 1013 101 c 0,9,10
 1013 123.390243902 1013 123.390243902 1066.5 126 c 128,-1,11
 1120 128.609756098 1120 128.609756098 1120 160 c 0,12,13
 1120 171 1120 171 1101 208 c 1,14,-1
 1102 208 l 1,15,-1
 992 470 l 1,16,-1
 403 470 l 1,17,18
 296 188 296 188 296 163 c 128,-1,19
 296 138 296 138 309 134 c 1,20,-1
 308 135 l 1,21,22
 315 131 315 131 341.5 124.5 c 0,23,24
 409 107.943396226 409 107.943396226 409 89 c 0,25,26
 409 0 409 0 184 0 c 0,27,28
 -3 0 -3 0 -3 89 c 0,29,30
 -3 108.25 -3 108.25 64.5 127.125 c 128,-1,31
 132 146 132 146 160 221 c 2,32,-1
 565 1280 l 1,33,34
 555 1307 555 1307 555 1327 c 0,35,36
 555 1404 555 1404 712 1404 c 0,37,38
 837.775510204 1404 837.775510204 1404 875 1308 c 2,39,-1
 1297 228 l 1,40,41
 1333 142 1333 142 1407 130 c 0,42,43
 1453.88855417 122.966716874 1453.88855417 122.966716874 1462.94427709 114.481767858 c 128,-1,44
 1472 105.996818841 1472 105.996818841 1472 89 c 0,0,1
442 566 m 1,45,-1
 952 566 l 1,46,-1
 692 1280 l 1,47,-1
 442 566 l 1,45,-1
EndSplineSet
EndChar

StartChar: B
Encoding: 36 66 35
Width: 1470
Flags: HMW
LayerCount: 2
Fore
SplineSet
1224 387.5 m 0,0,1
 1224 451 1224 451 1204.5 498.5 c 128,-1,2
 1185 546 1185 546 1146.5 577 c 128,-1,3
 1108 608 1108 608 1062 628.5 c 128,-1,4
 1016 649 1016 649 951 659 c 0,5,6
 834 677 834 677 689 677 c 2,7,-1
 463 677 l 1,8,-1
 463 290 l 2,9,10
 463 191 463 191 496.5 152 c 128,-1,11
 530 113 530 113 621 113 c 2,12,-1
 787 113 l 2,13,14
 1045.93548387 113 1045.93548387 113 1145 196 c 0,15,16
 1224 262.189189189 1224 262.189189189 1224 387.5 c 0,0,1
95.5 1306.5 m 128,-1,18
 94 1313 94 1313 94 1332 c 128,-1,19
 94 1351 94 1351 109.5 1369.5 c 128,-1,20
 125 1388 125 1388 164 1395 c 0,21,22
 214.142857143 1404 214.142857143 1404 352 1404 c 2,23,-1
 739 1404 l 2,24,25
 1343 1404 1343 1404 1343 1056 c 0,26,27
 1343 932.275 1343 932.275 1261 859.5 c 0,28,29
 1194.22957198 800.241245136 1194.22957198 800.241245136 1084 753 c 1,30,31
 1445 639 1445 639 1445 379 c 0,32,33
 1445 272 1445 272 1392.5 195.5 c 128,-1,34
 1340 119 1340 119 1246.5 77.5 c 0,35,36
 1069.63855422 -1 1069.63855422 -1 798 -1 c 2,37,-1
 352 0 l 2,38,39
 213.762703571 0 213.762703571 0 175.65433931 7.47244337675 c 1,40,41
 96.9068358864 28.2728422061 96.9068358864 28.2728422061 94 90 c 1,42,43
 94 124.714285714 94 124.714285714 162.5 134.5 c 0,44,45
 194 139 194 139 205 144 c 0,46,47
 244 160 244 160 244 215 c 2,48,-1
 244 1190 l 2,49,50
 244 1262 244 1262 169 1272 c 0,51,52
 155 1274.33333333 155 1274.33333333 143 1275.66666667 c 128,-1,53
 131 1277 131 1277 123 1278.5 c 128,-1,54
 115 1280 115 1280 112 1282 c 128,-1,55
 109 1284 109 1284 104.5 1287.5 c 128,-1,56
 100 1291 100 1291 98.5 1295.5 c 128,-1,17
 97 1300 97 1300 95.5 1306.5 c 128,-1,18
796 793 m 2,57,58
 1038.23076923 793 1038.23076923 793 1113 914.5 c 0,59,60
 1141 960 1141 960 1141 1020.5 c 128,-1,61
 1141 1081 1141 1081 1121 1125.5 c 128,-1,62
 1101 1170 1101 1170 1062 1198 c 128,-1,63
 1023 1226 1023 1226 978.5 1244 c 128,-1,64
 934 1262 934 1262 871 1270.5 c 0,65,66
 763.529411765 1285 763.529411765 1285 653.764705882 1285 c 128,-1,67
 544 1285 544 1285 503.5 1254.5 c 128,-1,68
 463 1224 463 1224 463 1141 c 2,69,-1
 463 793 l 1,70,-1
 796 793 l 2,57,58
EndSplineSet
EndChar

StartChar: C
Encoding: 37 67 36
Width: 1507
Flags: HMW
LayerCount: 2
Fore
SplineSet
266 735 m 0,0,1
 266 601 266 601 315 487.5 c 128,-1,2
 364 374 364 374 450 296 c 0,3,4
 631.923076923 131 631.923076923 131 916.961538462 131 c 128,-1,5
 1202 131 1202 131 1419 348 c 0,6,7
 1443 372 1443 372 1461.5 372 c 128,-1,8
 1480 372 1480 372 1496.5 358 c 128,-1,9
 1513 344 1513 344 1513 324 c 128,-1,10
 1513 304 1513 304 1502 279 c 1,11,-1
 1503 279 l 1,12,13
 1428 147 1428 147 1252.5 59.5 c 128,-1,14
 1077 -28 1077 -28 893 -28 c 128,-1,15
 709 -28 709 -28 558 19 c 128,-1,16
 407 66 407 66 290.5 153 c 128,-1,17
 174 240 174 240 105 375.5 c 128,-1,18
 36 511 36 511 36 680.5 c 128,-1,19
 36 850 36 850 101 990.5 c 128,-1,20
 166 1131 166 1131 279.5 1223 c 0,21,22
 513.902173913 1413 513.902173913 1413 877 1413 c 0,23,24
 1070.20967742 1413 1070.20967742 1413 1241.5 1353 c 0,25,26
 1330 1322 1330 1322 1385.5 1264.5 c 128,-1,27
 1441 1207 1441 1207 1441 1133 c 128,-1,28
 1441 1059 1441 1059 1395 1023 c 128,-1,29
 1349 987 1349 987 1287 987 c 128,-1,30
 1225 987 1225 987 1196 997 c 1,31,32
 1185 1153 1185 1153 1106 1229 c 128,-1,33
 1027 1305 1027 1305 868 1305 c 0,34,35
 597 1305 597 1305 431.5 1147.5 c 128,-1,36
 266 990 266 990 266 735 c 0,0,1
EndSplineSet
EndChar

StartChar: D
Encoding: 38 68 37
Width: 1734
Flags: HMW
LayerCount: 2
Fore
SplineSet
1373.5 384 m 128,-1,1
 1458 514 1458 514 1458 672 c 128,-1,2
 1458 830 1458 830 1416.5 932 c 128,-1,3
 1375 1034 1375 1034 1302.5 1099.5 c 128,-1,4
 1230 1165 1230 1165 1121 1206.5 c 0,5,6
 922.698795181 1282 922.698795181 1282 605 1282 c 0,7,8
 462 1282 462 1282 462 1259 c 2,9,-1
 462 142 l 1,10,11
 620 125 620 125 805.5 125 c 128,-1,12
 991 125 991 125 1140 189.5 c 128,-1,0
 1289 254 1289 254 1373.5 384 c 128,-1,1
1624.5 998.5 m 128,-1,14
 1681 887 1681 887 1681 746.5 c 128,-1,15
 1681 606 1681 606 1637.5 484.5 c 128,-1,16
 1594 363 1594 363 1516.5 274.5 c 128,-1,17
 1439 186 1439 186 1332 123.5 c 0,18,19
 1118.856 -1 1118.856 -1 827 -1 c 1,20,21
 724 1 724 1 468.053850739 1 c 128,-1,22
 212.107701477 1 212.107701477 1 174.200045385 8.57903249875 c 1,23,24
 96.8456186236 29.3919462092 96.8456186236 29.3919462092 94 91 c 1,25,26
 94 126.301587302 94 126.301587302 162.5 135 c 0,27,28
 194 139 194 139 205 144 c 0,29,30
 244 160 244 160 244 216 c 2,31,-1
 244 1190 l 2,32,33
 244 1266 244 1266 169 1272 c 0,34,35
 106.24120603 1277.45728643 106.24120603 1277.45728643 100.120603015 1291.22864322 c 128,-1,36
 94 1305 94 1305 94 1328 c 128,-1,37
 94 1351 94 1351 109 1369.5 c 128,-1,38
 124 1388 124 1388 163 1395 c 0,39,40
 213.142857143 1404 213.142857143 1404 351 1404 c 2,41,-1
 660 1404 l 2,42,43
 1189.15436242 1404 1189.15436242 1404 1472 1184.5 c 0,44,13
 1568 1110 1568 1110 1624.5 998.5 c 128,-1,14
EndSplineSet
EndChar

StartChar: E
Encoding: 39 69 38
Width: 1437
Flags: HMW
LayerCount: 2
Fore
SplineSet
1305 356 m 0,0,1
 1383 356 1383 356 1383 256 c 128,-1,2
 1383 156 1383 156 1299 76 c 128,-1,3
 1215 -4 1215 -4 1113 -4 c 2,4,-1
 352 0 l 2,5,6
 213.762703571 0 213.762703571 0 175.65433931 7.47244337675 c 1,7,8
 96.9068358864 28.2728422061 96.9068358864 28.2728422061 94 90 c 1,9,10
 94 124.714285714 94 124.714285714 162.5 134.5 c 0,11,12
 194 139 194 139 205 144 c 0,13,14
 244 160 244 160 244 215 c 2,15,-1
 244 1190 l 2,16,17
 244 1262 244 1262 169 1272 c 0,18,19
 155 1274.33333333 155 1274.33333333 143 1275.66666667 c 128,-1,20
 131 1277 131 1277 123 1278.5 c 128,-1,21
 115 1280 115 1280 112 1282 c 128,-1,22
 109 1284 109 1284 104.5 1287.5 c 128,-1,23
 100 1291 100 1291 98.5 1295.5 c 0,24,25
 94 1309 94 1309 94 1330 c 128,-1,26
 94 1351 94 1351 109.5 1369.5 c 128,-1,27
 125 1388 125 1388 164 1395 c 0,28,29
 214.142857143 1404 214.142857143 1404 352 1404 c 2,30,-1
 1185 1404 l 2,31,32
 1261 1404 1261 1404 1307.5 1344 c 128,-1,33
 1354 1284 1354 1284 1354 1198 c 0,34,35
 1354 1050 1354 1050 1251 1050 c 0,36,37
 1187 1050 1187 1050 1162.5 1090.5 c 128,-1,38
 1138 1131 1138 1131 1138 1196.5 c 128,-1,39
 1138 1262 1138 1262 1139 1286 c 1,40,-1
 463 1286 l 1,41,-1
 463 787 l 1,42,-1
 892 787 l 1,43,44
 899 794 899 794 916 828.5 c 0,45,46
 961.579710145 921 961.579710145 921 983 921 c 0,47,48
 1096 921 1096 921 1096 729 c 0,49,50
 1096 647 1096 647 1072.5 587.5 c 128,-1,51
 1049 528 1049 528 998 528 c 0,52,53
 971 528 971 528 953.5 548 c 128,-1,54
 936 568 936 568 917.5 613 c 128,-1,55
 899 658 899 658 891 672 c 1,56,-1
 463 672 l 1,57,-1
 463 131 l 1,58,-1
 1102 131 l 1,59,60
 1120 149 1120 149 1155 210 c 128,-1,61
 1190 271 1190 271 1227 313.5 c 128,-1,62
 1264 356 1264 356 1305 356 c 0,0,1
EndSplineSet
EndChar

StartChar: F
Encoding: 40 70 39
Width: 1321
Flags: HMW
LayerCount: 2
Fore
SplineSet
95.5 1306.5 m 128,-1,1
 94 1313 94 1313 94 1332 c 128,-1,2
 94 1351 94 1351 109 1369.5 c 128,-1,3
 124 1388 124 1388 163 1395 c 0,4,5
 213.142857143 1404 213.142857143 1404 350 1404 c 2,6,-1
 1185 1404 l 2,7,8
 1261 1404 1261 1404 1307.5 1344 c 128,-1,9
 1354 1284 1354 1284 1354 1198 c 0,10,11
 1354 1050 1354 1050 1251 1050 c 0,12,13
 1187 1050 1187 1050 1162.5 1090.5 c 128,-1,14
 1138 1131 1138 1131 1138 1196.5 c 128,-1,15
 1138 1262 1138 1262 1139 1286 c 1,16,-1
 464 1286 l 1,17,-1
 464 787 l 1,18,-1
 892 787 l 1,19,20
 899 794 899 794 916.5 828.5 c 0,21,22
 963.420289855 921 963.420289855 921 983 921 c 0,23,24
 1096 921 1096 921 1096 729 c 0,25,26
 1096 647 1096 647 1072.5 587.5 c 128,-1,27
 1049 528 1049 528 998 528 c 0,28,29
 970 528 970 528 952.5 549 c 128,-1,30
 935 570 935 570 918 613 c 128,-1,31
 901 656 901 656 891 672 c 1,32,-1
 464 672 l 1,33,-1
 464 215 l 2,34,35
 464 171 464 171 487.5 152.5 c 128,-1,36
 511 134 511 134 544 130.5 c 128,-1,37
 577 127 577 127 587 124.5 c 0,38,39
 614 117.75 614 117.75 614 93.875 c 128,-1,40
 614 70 614 70 609 57 c 128,-1,41
 604 44 604 44 592.5 35 c 128,-1,42
 581 26 581 26 570 19.5 c 128,-1,43
 559 13 559 13 539 9 c 128,-1,44
 519 5 519 5 505 2.5 c 128,-1,45
 491 0 491 0 466 -1 c 128,-1,46
 441 -2 441 -2 427.5 -2 c 2,47,-1
 388 -2 l 2,48,49
 241.771955605 -2 241.771955605 -2 209.380426334 1.73943459563 c 0,50,51
 94 15.0595083185 94 15.0595083185 94 90 c 0,52,53
 94 124.714285714 94 124.714285714 162.5 134.5 c 0,54,55
 194 139 194 139 205 144 c 0,56,57
 244 160 244 160 244 215 c 2,58,-1
 244 1190 l 2,59,60
 244 1262 244 1262 169 1272 c 0,61,62
 155 1274.33333333 155 1274.33333333 143 1275.66666667 c 128,-1,63
 131 1277 131 1277 123 1278.5 c 128,-1,64
 115 1280 115 1280 112 1282 c 128,-1,65
 109 1284 109 1284 104.5 1287.5 c 128,-1,66
 100 1291 100 1291 98.5 1295.5 c 128,-1,0
 97 1300 97 1300 95.5 1306.5 c 128,-1,1
EndSplineSet
EndChar

StartChar: G
Encoding: 41 71 40
Width: 1561
Flags: HMW
LayerCount: 2
Fore
SplineSet
39 683 m 128,-1,1
 39 899 39 899 147 1067 c 128,-1,2
 255 1235 255 1235 438.5 1324 c 128,-1,3
 622 1413 622 1413 847 1413 c 0,4,5
 1040.20967742 1413 1040.20967742 1413 1211.5 1353 c 0,6,7
 1300 1322 1300 1322 1355.5 1264.5 c 128,-1,8
 1411 1207 1411 1207 1411 1133 c 128,-1,9
 1411 1059 1411 1059 1365 1023 c 128,-1,10
 1319 987 1319 987 1256.5 987 c 128,-1,11
 1194 987 1194 987 1167 997 c 1,12,13
 1156 1152 1156 1152 1077 1228.5 c 128,-1,14
 998 1305 998 1305 842 1305 c 0,15,16
 579 1305 579 1305 423.5 1147 c 128,-1,17
 268 989 268 989 268 735 c 0,18,19
 268 564 268 564 342 423.5 c 128,-1,20
 416 283 416 283 549.5 201 c 128,-1,21
 683 119 683 119 850 119 c 0,22,23
 961.588235294 119 961.588235294 119 1050.29411765 145 c 0,24,25
 1215.9882574 193.56552372 1215.9882574 193.56552372 1218 268 c 0,26,27
 1219 295 1219 295 1219 334 c 2,28,-1
 1219 453 l 2,29,30
 1219 469 1219 469 1213 505 c 128,-1,31
 1207 541 1207 541 1205.5 557 c 128,-1,32
 1204 573 1204 573 1178.5 588 c 128,-1,33
 1153 603 1153 603 1123.5 609 c 0,34,35
 1046 624.762711864 1046 624.762711864 1046 648.881355932 c 128,-1,36
 1046 673 1046 673 1056.5 689.5 c 128,-1,37
 1067 706 1067 706 1089.5 716 c 128,-1,38
 1112 726 1112 726 1134 732.5 c 128,-1,39
 1156 739 1156 739 1193 741.5 c 0,40,41
 1244.8 745 1244.8 745 1347.28899921 745 c 128,-1,42
 1449.77799841 745 1449.77799841 745 1488.82066651 737.786175471 c 0,43,44
 1583 720.384875325 1583 720.384875325 1583 651 c 0,45,46
 1583 635.789473684 1583 635.789473684 1569 629.894736842 c 128,-1,47
 1555 624 1555 624 1547.5 621.5 c 128,-1,48
 1540 619 1540 619 1527.5 616 c 0,49,50
 1444.90422721 596.177014531 1444.90422721 596.177014531 1428.45211361 560.088507266 c 128,-1,51
 1412 524 1412 524 1413 433 c 2,52,-1
 1416 154 l 1,53,54
 1380 143 1380 143 1309 104.5 c 128,-1,55
 1238 66 1238 66 1210 54 c 0,56,57
 1018 -27 1018 -27 807.5 -27 c 128,-1,58
 597 -27 597 -27 421 57.5 c 128,-1,59
 245 142 245 142 142 304.5 c 128,-1,0
 39 467 39 467 39 683 c 128,-1,1
EndSplineSet
EndChar

StartChar: H
Encoding: 42 72 41
Width: 1784
Flags: HMW
LayerCount: 2
Fore
SplineSet
1470 0 m 2,0,-1
 1364 -1 l 1,1,2
 1218.94736842 -1 1218.94736842 -1 1185 42 c 0,3,4
 1170 61 1170 61 1170 86 c 128,-1,5
 1170 111 1170 111 1188.5 120.5 c 128,-1,6
 1207 130 1207 130 1237.5 134 c 128,-1,7
 1268 138 1268 138 1280 144 c 0,8,9
 1319 162 1319 162 1319 215 c 2,10,-1
 1319 662 l 1,11,-1
 462 662 l 1,12,-1
 462 215 l 2,13,14
 462 171 462 171 485.5 152.5 c 128,-1,15
 509 134 509 134 543 130.5 c 128,-1,16
 577 127 577 127 586.5 124.5 c 0,17,18
 613 117.526315789 613 117.526315789 613 85.7631578947 c 128,-1,19
 613 54 613 54 598 35.5 c 128,-1,20
 583 17 583 17 543 9.5 c 0,21,22
 492.333333333 -3.5527136788e-15 492.333333333 -3.5527136788e-15 352.220517405 -1.7763568394e-15 c 128,-1,23
 212.107701477 0 212.107701477 0 174.200045385 7.57903249875 c 1,24,25
 96.8456186236 28.3919462092 96.8456186236 28.3919462092 94 90 c 1,26,27
 94 124.714285714 94 124.714285714 162.5 134.5 c 0,28,29
 194 139 194 139 205 144 c 0,30,31
 244 160 244 160 244 215 c 2,32,-1
 244 1190 l 2,33,34
 244 1266 244 1266 169 1272 c 0,35,36
 106.24120603 1277.45728643 106.24120603 1277.45728643 100.120603015 1291.22864322 c 128,-1,37
 94 1305 94 1305 94 1328 c 128,-1,38
 94 1351 94 1351 109 1369.5 c 128,-1,39
 124 1388 124 1388 163 1395 c 0,40,41
 213.142857143 1404 213.142857143 1404 352.480648621 1404 c 128,-1,42
 491.8184401 1404 491.8184401 1404 530.826655482 1396.29186257 c 1,43,44
 611.009065419 1376.86324327 611.009065419 1376.86324327 613 1314 c 1,45,46
 613 1278.40322581 613 1278.40322581 543 1270.5 c 0,47,48
 512 1267 512 1267 501 1262 c 0,49,50
 462 1245.5 462 1245.5 462 1190 c 2,51,-1
 462 777 l 1,52,-1
 1319 777 l 1,53,-1
 1319 1190 l 2,54,55
 1319 1263.5 1319 1263.5 1244 1271 c 0,56,57
 1192.73684211 1276.12631579 1192.73684211 1276.12631579 1181.36842105 1288.06315789 c 128,-1,58
 1170 1300 1170 1300 1170 1320.5 c 128,-1,59
 1170 1341 1170 1341 1179 1356 c 128,-1,60
 1188 1371 1188 1371 1208 1379.5 c 128,-1,61
 1228 1388 1228 1388 1246.5 1393.5 c 128,-1,62
 1265 1399 1265 1399 1299.5 1401 c 0,63,64
 1351.22967925 1403.99882199 1351.22967925 1403.99882199 1386.11483963 1403.99941099 c 2,65,-1
 1424 1404 l 2,66,67
 1567.66666667 1404 1567.66666667 1404 1609.33333333 1389 c 0,68,69
 1688 1360.68 1688 1360.68 1688 1314 c 0,70,71
 1688 1292 1688 1292 1669 1283.5 c 128,-1,72
 1650 1275 1650 1275 1619 1271.5 c 128,-1,73
 1588 1268 1588 1268 1577 1263 c 0,74,75
 1538 1245 1538 1245 1538 1190 c 2,76,-1
 1538 215 l 2,77,78
 1538 171 1538 171 1561.5 152.5 c 128,-1,79
 1585 134 1585 134 1618.5 130.5 c 128,-1,80
 1652 127 1652 127 1661.5 124.5 c 0,81,82
 1688 117.526315789 1688 117.526315789 1688 91.2631578947 c 128,-1,83
 1688 65 1688 65 1680.5 49.5 c 128,-1,84
 1673 34 1673 34 1654 24.5 c 128,-1,85
 1635 15 1635 15 1620 10 c 128,-1,86
 1605 5 1605 5 1572 3 c 0,87,88
 1522.5 0 1522.5 0 1470 0 c 2,0,-1
EndSplineSet
EndChar

StartChar: I
Encoding: 43 73 42
Width: 708
Flags: HMW
LayerCount: 2
Fore
SplineSet
313 0 m 0,0,1
 94 0 94 0 94 90 c 0,2,3
 94 124.714285714 94 124.714285714 162.5 134.5 c 0,4,5
 194 139 194 139 205 144 c 0,6,7
 244 160 244 160 244 215 c 2,8,-1
 244 1190 l 2,9,10
 244 1262 244 1262 169 1272 c 0,11,12
 155 1274.33333333 155 1274.33333333 143 1275.66666667 c 128,-1,13
 131 1277 131 1277 123 1278.5 c 128,-1,14
 115 1280 115 1280 112 1282 c 128,-1,15
 109 1284 109 1284 104.5 1287.5 c 128,-1,16
 100 1291 100 1291 98.5 1295.5 c 0,17,18
 94 1309 94 1309 94 1322.5 c 128,-1,19
 94 1336 94 1336 98.5 1348 c 128,-1,20
 103 1360 103 1360 114.5 1369 c 128,-1,21
 126 1378 126 1378 136.5 1384 c 128,-1,22
 147 1390 147 1390 168.5 1393.5 c 128,-1,23
 190 1397 190 1397 204.5 1399.5 c 128,-1,24
 219 1402 219 1402 249 1403 c 128,-1,25
 279 1404 279 1404 296.5 1404 c 0,26,27
 328.25 1404 328.25 1404 360.125 1404 c 128,-1,28
 392 1404 392 1404 412.5 1403.5 c 128,-1,29
 433 1403 433 1403 462 1401 c 128,-1,30
 491 1399 491 1399 510 1396 c 128,-1,31
 529 1393 529 1393 550.5 1386 c 128,-1,32
 572 1379 572 1379 584.5 1370 c 0,33,34
 613 1349.48 613 1349.48 613 1320.74 c 128,-1,35
 613 1292 613 1292 593.5 1283.5 c 128,-1,36
 574 1275 574 1275 543 1271.5 c 128,-1,37
 512 1268 512 1268 501 1263 c 0,38,39
 462 1245 462 1245 462 1190 c 2,40,-1
 462 215 l 2,41,42
 462 171 462 171 485.5 152.5 c 128,-1,43
 509 134 509 134 542.5 130.5 c 128,-1,44
 576 127 576 127 586 124.5 c 0,45,46
 613 117.75 613 117.75 613 91.375 c 128,-1,47
 613 65 613 65 604 50 c 128,-1,48
 595 35 595 35 574 25.5 c 128,-1,49
 553 16 553 16 534 10.5 c 128,-1,50
 515 5 515 5 479 3 c 0,51,52
 425 0 425 0 313 0 c 0,0,1
EndSplineSet
EndChar

StartChar: J
Encoding: 44 74 43
Width: 929
Flags: HMW
LayerCount: 2
Fore
SplineSet
372 1299.5 m 128,-1,1
 368 1308 368 1308 368 1324.5 c 128,-1,2
 368 1341 368 1341 375.5 1356 c 128,-1,3
 383 1371 383 1371 400.5 1379.5 c 128,-1,4
 418 1388 418 1388 434 1393.5 c 128,-1,5
 450 1399 450 1399 479.5 1401 c 0,6,7
 523.732268004 1403.99879783 523.732268004 1403.99879783 553.366134002 1403.99939892 c 2,8,-1
 585 1404 l 1,9,-1
 698 1405 l 1,10,11
 838.052631579 1405 838.052631579 1405 872 1362 c 0,12,13
 887 1343 887 1343 887 1317.5 c 128,-1,14
 887 1292 887 1292 867.5 1283 c 128,-1,15
 848 1274 848 1274 817 1270.5 c 128,-1,16
 786 1267 786 1267 775 1262 c 0,17,18
 736 1245.5 736 1245.5 736 1190 c 2,19,-1
 736 439 l 2,20,21
 736 199 736 199 642 88.5 c 128,-1,22
 548 -22 548 -22 330 -22 c 0,23,24
 201 -22 201 -22 107.5 46 c 128,-1,25
 14 114 14 114 14 226 c 0,26,27
 14 296 14 296 54 338.5 c 128,-1,28
 94 381 94 381 162 381 c 0,29,30
 292 381 292 381 292 256 c 0,31,32
 292 222 292 222 263 190 c 128,-1,33
 234 158 234 158 195 144 c 1,34,35
 256 91 256 91 309 91 c 0,36,37
 420 91 420 91 469.5 154.5 c 128,-1,38
 519 218 519 218 519 340 c 2,39,-1
 519 1190 l 2,40,41
 519 1263.5 519 1263.5 444 1271 c 0,42,43
 387.711340206 1276.36082474 387.711340206 1276.36082474 381.855670103 1283.68041237 c 128,-1,0
 376 1291 376 1291 372 1299.5 c 128,-1,1
EndSplineSet
EndChar

StartChar: K
Encoding: 45 75 44
Width: 1565
Flags: HMW
LayerCount: 2
Fore
SplineSet
394 0 m 2,0,-1
 290 -1 l 1,1,2
 143.578947368 -1 143.578947368 -1 108.5 42 c 0,3,4
 93 61 93 61 93 86 c 128,-1,5
 93 111 93 111 111.5 120.5 c 128,-1,6
 130 130 130 130 161.5 134.5 c 128,-1,7
 193 139 193 139 205 144 c 0,8,9
 244 160 244 160 244 215 c 2,10,-1
 244 1190 l 2,11,12
 244 1263 244 1263 168 1271 c 0,13,14
 111.214285714 1276.40816327 111.214285714 1276.40816327 106.107142857 1283.70408163 c 0,15,16
 93 1302.42857143 93 1302.42857143 93 1321.71428571 c 128,-1,17
 93 1341 93 1341 100.5 1356 c 128,-1,18
 108 1371 108 1371 125.5 1379.5 c 128,-1,19
 143 1388 143 1388 159 1393.5 c 128,-1,20
 175 1399 175 1399 204.5 1401 c 0,21,22
 248.732268004 1403.99879783 248.732268004 1403.99879783 278.366134002 1403.99939892 c 2,23,-1
 310 1404 l 1,24,-1
 424 1405 l 1,25,26
 564.052631579 1405 564.052631579 1405 598 1362 c 0,27,28
 613 1343 613 1343 613 1317.5 c 128,-1,29
 613 1292 613 1292 593.5 1283 c 128,-1,30
 574 1274 574 1274 543 1270.5 c 128,-1,31
 512 1267 512 1267 501 1262 c 0,32,33
 462 1246 462 1246 462 1189 c 2,34,-1
 462 681 l 1,35,36
 786 973 786 973 1063 1226 c 0,37,38
 1084 1246 1084 1246 1084 1257 c 128,-1,39
 1084 1268 1084 1268 1070.5 1273 c 128,-1,40
 1057 1278 1057 1278 1040.5 1279 c 0,41,42
 997 1281.63636364 997 1281.63636364 997 1318 c 0,43,44
 997 1361.13793103 997 1361.13793103 1017.5 1374.56896552 c 128,-1,45
 1038 1388 1038 1388 1051.5 1393.5 c 128,-1,46
 1065 1399 1065 1399 1091.5 1401 c 0,47,48
 1131.25 1404 1131.25 1404 1197.625 1404 c 128,-1,49
 1264 1404 1264 1404 1300 1402.5 c 128,-1,50
 1336 1401 1336 1401 1378.5 1395 c 128,-1,51
 1421 1389 1421 1389 1436.5 1373.5 c 128,-1,52
 1452 1358 1452 1358 1452 1338.5 c 128,-1,53
 1452 1319 1452 1319 1448 1311.5 c 128,-1,54
 1444 1304 1444 1304 1434.5 1299 c 128,-1,55
 1425 1294 1425 1294 1417 1291.5 c 0,56,57
 1405 1287.75 1405 1287.75 1370 1279 c 1,58,-1
 1272 1250 l 1,59,60
 862 901 862 901 792 843 c 1,61,-1
 1316 201 l 1,62,63
 1373.36196319 140.263803681 1373.36196319 140.263803681 1476 130 c 0,64,65
 1486 129 1486 129 1489.5 128 c 128,-1,66
 1493 127 1493 127 1501.5 125 c 128,-1,67
 1510 123 1510 123 1513 121.5 c 128,-1,68
 1516 120 1516 120 1521.5 116.5 c 128,-1,69
 1527 113 1527 113 1529 108.5 c 0,70,71
 1535 95 1535 95 1535 75.5 c 128,-1,72
 1535 56 1535 56 1518 37.5 c 128,-1,73
 1501 19 1501 19 1469 11.5 c 0,74,75
 1415.66666667 -1 1415.66666667 -1 1340 -1 c 0,76,77
 1144 -1 1144 -1 1144 40 c 1,78,79
 756 555 756 555 643 714 c 1,80,-1
 462 565 l 1,81,-1
 462 213 l 2,82,83
 462 138 462 138 538 132 c 0,84,85
 558 130 558 130 565.5 129.5 c 128,-1,86
 573 129 573 129 585.5 126 c 128,-1,87
 598 123 598 123 602 118 c 0,88,89
 613 104.25 613 104.25 613 86.125 c 128,-1,90
 613 68 613 68 608.5 55.5 c 128,-1,91
 604 43 604 43 593.5 34.5 c 128,-1,92
 583 26 583 26 573 20 c 128,-1,93
 563 14 563 14 544.5 10.5 c 128,-1,94
 526 7 526 7 513 4.5 c 128,-1,95
 500 2 500 2 476.5 1 c 128,-1,96
 453 0 453 0 440 0 c 0,97,98
 417 0 417 0 394 0 c 2,0,-1
EndSplineSet
EndChar

StartChar: L
Encoding: 46 76 45
Width: 1366
Flags: HMW
LayerCount: 2
Fore
SplineSet
1275 356 m 0,0,1
 1345 356 1345 356 1345 259 c 128,-1,2
 1345 162 1345 162 1274 79 c 128,-1,3
 1203 -4 1203 -4 1109 -4 c 2,4,-1
 368 0 l 2,5,6
 212 0 212 0 171 10 c 0,7,8
 86 30 86 30 86 84 c 0,9,10
 86 104.555555556 86 104.555555556 99 111.777777778 c 128,-1,11
 112 119 112 119 118 121.5 c 128,-1,12
 124 124 124 124 156 132 c 1,13,14
 230 154 230 154 247 197 c 1,15,16
 260 253 260 253 260 312 c 2,17,-1
 260 1093 l 2,18,19
 260 1223.5 260 1223.5 212 1249 c 0,20,21
 188 1262 188 1262 108 1288 c 0,22,23
 86 1295 86 1295 86 1320 c 0,24,25
 86 1374 86 1374 164 1392 c 0,26,27
 213 1404 213 1404 369.5 1404 c 128,-1,28
 526 1404 526 1404 567 1394 c 0,29,30
 653 1374 653 1374 653 1321 c 0,31,32
 653 1298.22222222 653 1298.22222222 637 1291.11111111 c 128,-1,33
 621 1284 621 1284 617.5 1282.5 c 128,-1,34
 614 1281 614 1281 602 1278 c 128,-1,35
 590 1275 590 1275 586 1273.5 c 128,-1,36
 582 1272 582 1272 569 1268.5 c 128,-1,37
 556 1265 556 1265 550 1263 c 128,-1,38
 544 1261 544 1261 535 1257 c 0,39,40
 515.953488372 1248.53488372 515.953488372 1248.53488372 507 1236 c 1,41,42
 479 1202 479 1202 479 1093 c 2,43,-1
 479 167 l 2,44,45
 479 122 479 122 572 122 c 0,46,47
 777 122 777 122 936.5 137.5 c 128,-1,48
 1096 153 1096 153 1116 166 c 1,49,50
 1130 182 1130 182 1151 228 c 128,-1,51
 1172 274 1172 274 1175 279 c 0,52,53
 1217 356 1217 356 1275 356 c 0,0,1
EndSplineSet
EndChar

StartChar: M
Encoding: 47 77 46
Width: 2031
Flags: HMW
LayerCount: 2
Fore
SplineSet
254 1234 m 2,0,1
 254 1253 254 1253 170 1275.5 c 128,-1,2
 86 1298 86 1298 86 1315 c 0,3,4
 86 1406 86 1406 293 1406 c 1,5,-1
 381 1404 l 2,6,7
 398 1404 398 1404 428 1378 c 128,-1,8
 458 1352 458 1352 474 1324 c 2,9,-1
 1001 375 l 1,10,11
 1157 628 1157 628 1507 1218 c 1,12,-1
 1507 1217 l 1,13,14
 1512 1226 1512 1226 1530.5 1262 c 128,-1,15
 1549 1298 1549 1298 1560.5 1315 c 128,-1,16
 1572 1332 1572 1332 1592.5 1357 c 0,17,18
 1631.04 1404 1631.04 1404 1688 1404 c 2,19,-1
 1761 1405 l 1,20,21
 1944 1405 1944 1405 1944 1315 c 0,22,23
 1944 1283.90625 1944 1283.90625 1858 1274.5 c 128,-1,24
 1772 1265.09375 1772 1265.09375 1772 1234 c 2,25,-1
 1772 172 l 2,26,27
 1772 153 1772 153 1815 140.5 c 128,-1,28
 1858 128 1858 128 1901 117 c 128,-1,29
 1944 106 1944 106 1944 90 c 0,30,31
 1944 -1 1944 -1 1746 -1 c 1,32,-1
 1667 1 l 257,33,-1
 1584 -1 l 1,34,35
 1388 -1 1388 -1 1388 90 c 0,36,37
 1388 113 1388 113 1430 121.5 c 128,-1,38
 1472 130 1472 130 1513.5 138.5 c 128,-1,39
 1555 147 1555 147 1555 172 c 2,40,-1
 1555 1064 l 1,41,42
 1536 1031 1536 1031 1383 752.5 c 0,43,44
 1125.46625632 283.721257419 1125.46625632 283.721257419 1032 174 c 1,45,-1
 1032 175 l 1,46,47
 1004 147 1004 147 980 147 c 128,-1,48
 956 147 956 147 941 151.5 c 128,-1,49
 926 156 926 156 914.5 168 c 128,-1,50
 903 180 903 180 897 187.5 c 128,-1,51
 891 195 891 195 881 214 c 128,-1,52
 871 233 871 233 867 239 c 2,53,-1
 430 957 l 1,54,-1
 430 172 l 2,55,56
 430 153 430 153 473 140.5 c 128,-1,57
 516 128 516 128 559.5 117.5 c 128,-1,58
 603 107 603 107 603 90 c 0,59,60
 603 0 603 0 417 0 c 1,61,-1
 344 1 l 257,62,-1
 268 -1 l 1,63,64
 86 -1 86 -1 86 90 c 0,65,66
 86 114 86 114 128 122 c 128,-1,67
 170 130 170 130 212 138.5 c 128,-1,68
 254 147 254 147 254 172 c 2,69,-1
 254 1234 l 2,0,1
EndSplineSet
EndChar

StartChar: N
Encoding: 48 78 47
Width: 1782
Flags: HMW
LayerCount: 2
Fore
SplineSet
1577 88 m 2,0,1
 1577 -22 1577 -22 1512 -22 c 0,2,3
 1462 -22 1462 -22 1390 56 c 1,4,5
 1175 284 1175 284 444 1083 c 1,6,-1
 444 193 l 2,7,8
 444 176 444 176 486 158.5 c 128,-1,9
 528 141 528 141 570 123.5 c 128,-1,10
 612 106 612 106 612 89 c 0,11,12
 612 58 612 58 588 33.5 c 128,-1,13
 564 9 564 9 527 -3.5 c 0,14,15
 376.86572952 -54.2210373243 376.86572952 -54.2210373243 188 -6 c 0,16,17
 85 20.2978723404 85 20.2978723404 85 91 c 0,18,19
 85 115 85 115 128.5 127 c 128,-1,20
 172 139 172 139 215 152.5 c 128,-1,21
 258 166 258 166 258 193 c 2,22,-1
 258 1234 l 2,23,24
 258 1253 258 1253 171.5 1275.5 c 128,-1,25
 85 1298 85 1298 85 1317 c 128,-1,26
 85 1336 85 1336 92.5 1351.5 c 128,-1,27
 100 1367 100 1367 117 1376.5 c 128,-1,28
 134 1386 134 1386 151 1392 c 128,-1,29
 168 1398 168 1398 197 1400.5 c 0,30,31
 237.6 1404 237.6 1404 302 1404 c 2,32,-1
 315 1404 l 2,33,34
 425 1404 425 1404 452 1380 c 1,35,-1
 452 1381 l 1,36,-1
 1392 362 l 1,37,-1
 1392 493 l 1,38,-1
 1391 500 l 1,39,-1
 1391 1213 l 2,40,41
 1391 1226 1391 1226 1305 1258 c 128,-1,42
 1219 1290 1219 1290 1219 1305 c 0,43,44
 1219 1344 1219 1344 1260 1375 c 0,45,46
 1339.35483871 1435 1339.35483871 1435 1456 1435 c 0,47,48
 1744 1435 1744 1435 1744 1305 c 0,49,50
 1744 1292 1744 1292 1661 1259 c 128,-1,51
 1578 1226 1578 1226 1578 1213 c 2,52,-1
 1577 88 l 2,0,1
EndSplineSet
EndChar

StartChar: O
Encoding: 49 79 48
Width: 1770
Flags: HMW
LayerCount: 2
Fore
SplineSet
574.5 188.5 m 128,-1,1
 718 110 718 110 886.5 110 c 128,-1,2
 1055 110 1055 110 1193.5 181.5 c 128,-1,3
 1332 253 1332 253 1415 382.5 c 128,-1,4
 1498 512 1498 512 1498 685.5 c 128,-1,5
 1498 859 1498 859 1416 1001 c 128,-1,6
 1334 1143 1334 1143 1188.5 1218 c 128,-1,7
 1043 1293 1043 1293 864.5 1293 c 128,-1,8
 686 1293 686 1293 551 1220.5 c 128,-1,9
 416 1148 416 1148 340 1015.5 c 128,-1,10
 264 883 264 883 264 714 c 128,-1,11
 264 545 264 545 347.5 406 c 128,-1,0
 431 267 431 267 574.5 188.5 c 128,-1,1
45 647.5 m 0,12,13
 45 782 45 782 87 907 c 128,-1,14
 129 1032 129 1032 205.5 1125 c 128,-1,15
 282 1218 282 1218 386.5 1284 c 0,16,17
 595.5 1416 595.5 1416 886 1416 c 0,18,19
 1156.85454545 1416 1156.85454545 1416 1365 1308 c 0,20,21
 1590.3191279 1191.08913175 1590.3191279 1191.08913175 1674.5 988.5 c 0,22,23
 1720 879 1720 879 1720 750 c 0,24,25
 1720 516 1720 516 1610 338.5 c 128,-1,26
 1500 161 1500 161 1310 68 c 128,-1,27
 1120 -25 1120 -25 879 -25 c 0,28,29
 605 -25 605 -25 395 87 c 0,30,31
 45 273.666666667 45 273.666666667 45 647.5 c 0,12,13
EndSplineSet
EndChar

StartChar: P
Encoding: 50 80 49
Width: 1416
Flags: HMW
LayerCount: 2
Fore
SplineSet
128 1286.5 m 128,-1,1
 86 1295 86 1295 86 1315.5 c 128,-1,2
 86 1336 86 1336 99.5 1351.5 c 128,-1,3
 113 1367 113 1367 140 1376.5 c 128,-1,4
 167 1386 167 1386 194.5 1392 c 128,-1,5
 222 1398 222 1398 264 1400.5 c 0,6,7
 322.8 1404 322.8 1404 407 1404 c 2,8,-1
 581 1404 l 2,9,10
 907.482758621 1404 907.482758621 1404 1060.5 1368.5 c 0,11,12
 1219.79665738 1331.54317549 1219.79665738 1331.54317549 1293 1262 c 0,13,14
 1383 1176.5 1383 1176.5 1383 1040 c 0,15,16
 1383 839.365853659 1383 839.365853659 1262 740.5 c 0,17,18
 1178.06547184 671.919348939 1178.06547184 671.919348939 1095.03273592 649.45967447 c 128,-1,19
 1012 627 1012 627 956 617.5 c 128,-1,20
 900 608 900 608 825 602.5 c 0,21,22
 709.090909091 594 709.090909091 594 542 594 c 2,23,-1
 479 594 l 1,24,-1
 479 172 l 2,25,26
 479 153 479 153 520.5 140.5 c 128,-1,27
 562 128 562 128 603.5 116.5 c 128,-1,28
 645 105 645 105 645 90 c 0,29,30
 645 57 645 57 629 37.5 c 128,-1,31
 613 18 613 18 570.5 10.5 c 0,32,33
 516.666666667 1 516.666666667 1 368.259347951 1 c 128,-1,34
 219.852029234 1 219.852029234 1 188.182997085 4.80342857143 c 0,35,36
 87.0426725691 18.3747356796 87.0426725691 18.3747356796 86 80 c 0,37,38
 86 126.349206349 86 126.349206349 169.5 129 c 128,-1,39
 253 131.650793651 253 131.650793651 253 172 c 2,40,-1
 253 1234 l 2,41,42
 253 1258 253 1258 211.5 1268 c 128,-1,0
 170 1278 170 1278 128 1286.5 c 128,-1,1
1157 979 m 0,43,44
 1157 1285 1157 1285 687 1285 c 2,45,-1
 644 1285 l 2,46,47
 551.2 1285 551.2 1285 526 1267 c 0,48,49
 499.373831776 1247.98130841 499.373831776 1247.98130841 495.186915888 1236.99065421 c 128,-1,50
 491 1226 491 1226 486.5 1212.5 c 0,51,52
 479 1190 479 1190 479 1143 c 2,53,-1
 479 713 l 1,54,55
 515 710 515 710 598.5 710 c 128,-1,56
 682 710 682 710 749.5 714.5 c 128,-1,57
 817 719 817 719 882.5 730 c 128,-1,58
 948 741 948 741 996 761 c 128,-1,59
 1044 781 1044 781 1081.5 810 c 0,60,61
 1157 868.386666667 1157 868.386666667 1157 979 c 0,43,44
EndSplineSet
EndChar

StartChar: Q
Encoding: 51 81 50
Width: 1765
Flags: HMW
LayerCount: 2
Fore
SplineSet
906 -15 m 1,0,-1
 869 -16 l 1,1,2
 595 -16 595 -16 385 96 c 0,3,4
 162.90632506 214.449959968 162.90632506 214.449959968 79.5 415 c 0,5,6
 35 522 35 522 35 656.5 c 128,-1,7
 35 791 35 791 77 916 c 128,-1,8
 119 1041 119 1041 195.5 1134 c 128,-1,9
 272 1227 272 1227 376.5 1293 c 0,10,11
 585.5 1425 585.5 1425 876 1425 c 0,12,13
 1146.85454545 1425 1146.85454545 1425 1355 1317 c 0,14,15
 1579.78938986 1200.36399583 1579.78938986 1200.36399583 1664.5 996.5 c 0,16,17
 1710 887 1710 887 1710 747.5 c 128,-1,18
 1710 608 1710 608 1663.5 479.5 c 128,-1,19
 1617 351 1617 351 1533.5 258 c 0,20,21
 1364.26957323 69.515812097 1364.26957323 69.515812097 1098 9 c 1,22,23
 1199.74104235 -98.9071661238 1199.74104235 -98.9071661238 1230.87052117 -118.453583062 c 128,-1,24
 1262 -138 1262 -138 1293.5 -156 c 0,25,26
 1349.5 -188 1349.5 -188 1428.25 -188 c 128,-1,27
 1507 -188 1507 -188 1608 -148 c 1,28,29
 1624 -184 1624 -184 1624 -222 c 0,30,31
 1624 -315 1624 -315 1565.5 -366.5 c 128,-1,32
 1507 -418 1507 -418 1423 -418 c 128,-1,33
 1339 -418 1339 -418 1260.5 -382.5 c 128,-1,34
 1182 -347 1182 -347 1139 -295 c 2,35,-1
 906 -15 l 1,0,-1
564.5 197.5 m 128,-1,37
 708 119 708 119 876.5 119 c 128,-1,38
 1045 119 1045 119 1183.5 190.5 c 128,-1,39
 1322 262 1322 262 1405 391.5 c 128,-1,40
 1488 521 1488 521 1488 694.5 c 128,-1,41
 1488 868 1488 868 1406 1010 c 128,-1,42
 1324 1152 1324 1152 1178.5 1227 c 128,-1,43
 1033 1302 1033 1302 854.5 1302 c 128,-1,44
 676 1302 676 1302 541 1229.5 c 128,-1,45
 406 1157 406 1157 330 1024.5 c 128,-1,46
 254 892 254 892 254 723 c 128,-1,47
 254 554 254 554 337.5 415 c 128,-1,36
 421 276 421 276 564.5 197.5 c 128,-1,37
EndSplineSet
EndChar

StartChar: R
Encoding: 52 82 51
Width: 1573
Flags: HMW
LayerCount: 2
Fore
SplineSet
1352.5 1134 m 128,-1,1
 1367 1086 1367 1086 1367 1021.5 c 128,-1,2
 1367 957 1367 957 1342.5 897 c 128,-1,3
 1318 837 1318 837 1278.5 795.5 c 128,-1,4
 1239 754 1239 754 1183 721 c 0,5,6
 1083.28137931 662.237241379 1083.28137931 662.237241379 945 635 c 1,7,-1
 997 563 l 2,8,9
 1018 534 1018 534 1053 484 c 128,-1,10
 1088 434 1088 434 1108.5 405.5 c 128,-1,11
 1129 377 1129 377 1161 335.5 c 128,-1,12
 1193 294 1193 294 1218 265.5 c 0,13,14
 1276.99366086 198.247226624 1276.99366086 198.247226624 1339.49683043 150.623613312 c 128,-1,15
 1402 103 1402 103 1539 103 c 1,16,17
 1556 86 1556 86 1556 63 c 0,18,19
 1556 -16 1556 -16 1389.5 -16 c 128,-1,20
 1223 -16 1223 -16 1140 40 c 1,21,-1
 1141 40 l 1,22,23
 1010 148 1010 148 838 467 c 1,24,-1
 755 619 l 1,25,-1
 478 619 l 1,26,-1
 478 172 l 2,27,28
 478 154 478 154 520 141 c 128,-1,29
 562 128 562 128 604 116.5 c 128,-1,30
 646 105 646 105 646 90 c 0,31,32
 646 57 646 57 630 37.5 c 128,-1,33
 614 18 614 18 571.5 10.5 c 0,34,35
 517.666666667 1 517.666666667 1 435.333333333 1 c 128,-1,36
 353 1 353 1 324 0.5 c 128,-1,37
 295 0 295 0 265 0.5 c 128,-1,38
 235 1 235 1 208.5 2.5 c 128,-1,39
 182 4 182 4 159.5 9.5 c 128,-1,40
 137 15 137 15 120.5 23.5 c 0,41,42
 86 41.2727272727 86 41.2727272727 86 73.1363636364 c 128,-1,43
 86 105 86 105 112 116.5 c 128,-1,44
 138 128 138 128 170 129 c 0,45,46
 254 131.625 254 131.625 254 172 c 2,47,-1
 254 1234 l 2,48,49
 254 1258 254 1258 212 1268 c 128,-1,50
 170 1278 170 1278 128 1286.5 c 128,-1,51
 86 1295 86 1295 86 1315.5 c 128,-1,52
 86 1336 86 1336 99.5 1351.5 c 128,-1,53
 113 1367 113 1367 140 1376.5 c 128,-1,54
 167 1386 167 1386 195 1392 c 128,-1,55
 223 1398 223 1398 265 1400.5 c 0,56,57
 323.8 1404 323.8 1404 408 1404 c 2,58,-1
 581 1404 l 2,59,60
 837.5 1404 837.5 1404 925.25 1390.5 c 128,-1,61
 1013 1377 1013 1377 1071 1363 c 128,-1,62
 1129 1349 1129 1349 1170 1330 c 128,-1,63
 1211 1311 1211 1311 1250.5 1282.5 c 128,-1,64
 1290 1254 1290 1254 1314 1218 c 128,-1,0
 1338 1182 1338 1182 1352.5 1134 c 128,-1,1
1142 989 m 0,65,66
 1142 1059 1142 1059 1114.5 1114 c 128,-1,67
 1087 1169 1087 1169 1043 1201 c 128,-1,68
 999 1233 999 1233 933 1252.5 c 0,69,70
 823 1285 823 1285 688.5 1285 c 128,-1,71
 554 1285 554 1285 516 1258 c 128,-1,72
 478 1231 478 1231 478 1143 c 2,73,-1
 478 740 l 1,74,-1
 748 740 l 2,75,76
 1142 740 1142 740 1142 989 c 0,65,66
EndSplineSet
EndChar

StartChar: S
Encoding: 53 83 52
Width: 1286
Flags: HMW
LayerCount: 2
Fore
SplineSet
621 1295 m 0,0,1
 499.418604651 1295 499.418604651 1295 430.209302326 1263 c 0,2,3
 304 1204.64516129 304 1204.64516129 304 1110 c 0,4,5
 304 1059.05263158 304 1059.05263158 333 1028.52631579 c 0,6,7
 409.512683578 947.986648865 409.512683578 947.986648865 535 892 c 0,8,9
 609.62962963 858.703703704 609.62962963 858.703703704 752.314814815 806.851851852 c 128,-1,10
 895 755 895 755 945 732 c 128,-1,11
 995 709 995 709 1056.5 670 c 128,-1,12
 1118 631 1118 631 1158 589 c 0,13,14
 1254 488.2 1254 488.2 1254 358 c 0,15,16
 1254 265 1254 265 1203.5 190 c 128,-1,17
 1153 115 1153 115 1069 69.5 c 0,18,19
 896.384615385 -24 896.384615385 -24 675 -24 c 0,20,21
 377.185714286 -24 377.185714286 -24 188.5 80 c 0,22,23
 125 115 125 115 85 170 c 128,-1,24
 45 225 45 225 45 287.5 c 128,-1,25
 45 350 45 350 83 386 c 128,-1,26
 121 422 121 422 191.5 422 c 128,-1,27
 262 422 262 422 301.5 373 c 128,-1,28
 341 324 341 324 341 245 c 0,29,30
 341 214 341 214 335 178 c 1,31,32
 487 100 487 100 660 100 c 0,33,34
 812.816326531 100 812.816326531 100 921 146.5 c 0,35,36
 1044 199.368421053 1044 199.368421053 1044 330 c 0,37,38
 1044 467 1044 467 770 572 c 0,39,40
 724 589 724 589 628.5 622 c 0,41,42
 432.458806117 689.741983226 432.458806117 689.741983226 333 742 c 0,43,44
 90 870 90 870 90 1063 c 0,45,46
 90 1154 90 1154 139 1225 c 128,-1,47
 188 1296 188 1296 270.5 1337 c 0,48,49
 435.5 1419 435.5 1419 658 1419 c 0,50,51
 919.344262295 1419 919.344262295 1419 1080 1331.5 c 0,52,53
 1136 1301 1136 1301 1171.5 1251.5 c 128,-1,54
 1207 1202 1207 1202 1207 1139.5 c 128,-1,55
 1207 1077 1207 1077 1163.5 1036.5 c 128,-1,56
 1120 996 1120 996 1056 996 c 128,-1,57
 992 996 992 996 962 1002 c 1,58,59
 949 1178 949 1178 880 1236.5 c 128,-1,60
 811 1295 811 1295 621 1295 c 0,0,1
EndSplineSet
EndChar

StartChar: T
Encoding: 54 84 53
Width: 1221
Flags: HMW
LayerCount: 2
Fore
SplineSet
571.5 0 m 0,0,1
 330 0 330 0 330 90 c 0,2,3
 330 115 330 115 372 122.5 c 128,-1,4
 414 130 414 130 456 138 c 128,-1,5
 498 146 498 146 498 172 c 2,6,-1
 498 1279 l 1,7,-1
 205 1278 l 2,8,9
 156.464285714 1278 156.464285714 1278 115.5 1167 c 128,-1,10
 74.5357142857 1056 74.5357142857 1056 28 1056 c 0,11,12
 -50 1056 -50 1056 -50 1148 c 0,13,14
 -50 1276 -50 1276 -6.5 1340.5 c 128,-1,15
 37 1405 37 1405 151 1405 c 2,16,-1
 733 1405 l 2,17,18
 1050 1405 1050 1405 1127 1403 c 1,19,20
 1230.41377132 1397.55716993 1230.41377132 1397.55716993 1256.5 1229 c 0,21,22
 1263 1187 1263 1187 1263 1142 c 0,23,24
 1263 1056 1263 1056 1185 1056 c 0,25,26
 1134.35714286 1056 1134.35714286 1056 1100 1167 c 0,27,28
 1087 1209 1087 1209 1063 1243.5 c 128,-1,29
 1039 1278 1039 1278 1008 1278 c 2,30,-1
 715 1279 l 1,31,-1
 715 172 l 2,32,33
 715 142.969230769 715 142.969230769 800.5 128.5 c 128,-1,34
 886 114.030769231 886 114.030769231 886 90 c 0,35,36
 886 55.25 886 55.25 868.5 42.125 c 128,-1,37
 851 29 851 29 839 22 c 128,-1,38
 827 15 827 15 804.5 11 c 128,-1,39
 782 7 782 7 766 4.5 c 128,-1,40
 750 2 750 2 721 1 c 128,-1,41
 692 0 692 0 675.5 0 c 0,42,43
 623.5 0 623.5 0 571.5 0 c 0,0,1
EndSplineSet
EndChar

StartChar: U
Encoding: 55 85 54
Width: 1773
Flags: HMW
LayerCount: 2
Fore
SplineSet
267.75 1404 m 2,0,1
 300 1404 300 1404 326.5 1403.5 c 128,-1,2
 353 1403 353 1403 392.5 1400.5 c 128,-1,3
 432 1398 432 1398 454.5 1392.5 c 128,-1,4
 477 1387 477 1387 500.5 1377.5 c 128,-1,5
 524 1368 524 1368 534.5 1352 c 128,-1,6
 545 1336 545 1336 545 1315 c 128,-1,7
 545 1294 545 1294 503 1284 c 128,-1,8
 461 1274 461 1274 419 1264 c 128,-1,9
 377 1254 377 1254 377 1234 c 2,10,-1
 377 449 l 2,11,12
 377 354 377 354 447 278.5 c 128,-1,13
 517 203 517 203 629 163 c 128,-1,14
 741 123 741 123 855 123 c 128,-1,15
 969 123 969 123 1058 144 c 128,-1,16
 1147 165 1147 165 1219 205 c 128,-1,17
 1291 245 1291 245 1333 311.5 c 128,-1,18
 1375 378 1375 378 1375 462 c 2,19,-1
 1375 1234 l 2,20,21
 1375 1257 1375 1257 1333.5 1267.5 c 128,-1,22
 1292 1278 1292 1278 1250 1287 c 128,-1,23
 1208 1296 1208 1296 1208 1313.5 c 128,-1,24
 1208 1331 1208 1331 1212.5 1344.5 c 128,-1,25
 1217 1358 1217 1358 1228 1367 c 128,-1,26
 1239 1376 1239 1376 1249.5 1383 c 128,-1,27
 1260 1390 1260 1390 1279.5 1394 c 128,-1,28
 1299 1398 1299 1398 1312 1400.5 c 128,-1,29
 1325 1403 1325 1403 1351 1403.5 c 128,-1,30
 1377 1404 1377 1404 1390 1404.5 c 128,-1,31
 1403 1405 1403 1405 1432 1404.5 c 128,-1,32
 1461 1404 1461 1404 1487.5 1404 c 128,-1,33
 1514 1404 1514 1404 1540.5 1403.5 c 128,-1,34
 1567 1403 1567 1403 1602.5 1400.5 c 128,-1,35
 1638 1398 1638 1398 1660 1392 c 128,-1,36
 1682 1386 1682 1386 1703.5 1376.5 c 128,-1,37
 1725 1367 1725 1367 1735 1351.5 c 128,-1,38
 1745 1336 1745 1336 1745 1315 c 128,-1,39
 1745 1294 1745 1294 1703 1284 c 128,-1,40
 1661 1274 1661 1274 1619 1264 c 128,-1,41
 1577 1254 1577 1254 1577 1234 c 2,42,-1
 1577 441 l 2,43,44
 1577 180.860335196 1577 180.860335196 1273.5 52 c 0,45,46
 1101.56578947 -21 1101.56578947 -21 886 -21 c 0,47,48
 530.349056604 -21 530.349056604 -21 314.5 139 c 0,49,50
 243 192 243 192 200.5 272 c 128,-1,51
 158 352 158 352 158 448 c 2,52,-1
 158 1234 l 2,53,54
 158 1257 158 1257 115 1267.5 c 128,-1,55
 72 1278 72 1278 28.5 1287 c 128,-1,56
 -15 1296 -15 1296 -15 1313.5 c 128,-1,57
 -15 1331 -15 1331 -9.5 1344 c 128,-1,58
 -4 1357 -4 1357 8.5 1366.5 c 128,-1,59
 21 1376 21 1376 33 1382.5 c 128,-1,60
 45 1389 45 1389 67.5 1393 c 128,-1,61
 90 1397 90 1397 105.5 1399.5 c 0,62,63
 133.4 1404 133.4 1404 184.45 1404 c 2,64,-1
 267.75 1404 l 2,0,1
EndSplineSet
EndChar

StartChar: V
Encoding: 56 86 55
Width: 1642
Flags: HMW
LayerCount: 2
Fore
SplineSet
1403 1404 m 2,0,-1
 1510 1405 l 1,1,2
 1645.45454545 1405 1645.45454545 1405 1672.5 1370 c 0,3,4
 1681 1359 1681 1359 1681 1343 c 0,5,6
 1681 1293 1681 1293 1590 1278.5 c 128,-1,7
 1499 1264 1499 1264 1469 1228 c 1,8,-1
 986 133 l 2,9,10
 952 57 952 57 912.5 19.5 c 128,-1,11
 873 -18 873 -18 819 -18 c 128,-1,12
 765 -18 765 -18 722.5 20.5 c 128,-1,13
 680 59 680 59 634 159 c 2,14,-1
 152 1228 l 1,15,16
 143 1239 143 1239 84 1256 c 0,17,18
 -77 1302.38983051 -77 1302.38983051 -77 1343 c 0,19,20
 -77 1374.4 -77 1374.4 -33.5 1386 c 0,21,22
 33.961537943 1403.98974345 33.961537943 1403.98974345 108.980768972 1403.99487173 c 128,-1,23
 184 1404 184 1404 191 1404 c 128,-1,24
 198 1404 198 1404 223.5 1404 c 2,25,-1
 277 1404 l 2,26,27
 378.642857143 1404 378.642857143 1404 412.321428571 1392.5 c 128,-1,28
 446 1381 446 1381 461.5 1372 c 0,29,30
 494.904672897 1352.60373832 494.904672897 1352.60373832 501 1314 c 1,31,32
 499 1300 499 1300 482.5 1291 c 128,-1,33
 466 1282 466 1282 456 1281.5 c 128,-1,34
 446 1281 446 1281 431.5 1278 c 128,-1,35
 417 1275 417 1275 408.5 1272.5 c 128,-1,36
 400 1270 400 1270 388.5 1265.5 c 0,37,38
 366 1256.69565217 366 1256.69565217 366 1242 c 1,39,-1
 850 163 l 1,40,41
 939.6875 397.98125 939.6875 397.98125 1176 941.5 c 2,42,-1
 1251 1114 l 2,43,44
 1302 1233 1302 1233 1302 1244 c 0,45,46
 1302 1263 1302 1263 1261 1270.5 c 128,-1,47
 1220 1278 1220 1278 1179 1286 c 128,-1,48
 1138 1294 1138 1294 1138 1314 c 0,49,50
 1138 1396.81967213 1138 1396.81967213 1326.5 1403 c 0,51,52
 1357 1404 1357 1404 1403 1404 c 2,0,-1
EndSplineSet
EndChar

StartChar: W
Encoding: 57 87 56
Width: 2537
Flags: HMW
LayerCount: 2
Fore
SplineSet
1584 1367.5 m 128,-1,1
 1594 1357 1594 1357 1594 1336 c 128,-1,2
 1594 1315 1594 1315 1570.5 1299.5 c 128,-1,3
 1547 1284 1547 1284 1515 1284 c 1,4,5
 1407 1257 1407 1257 1383 1233 c 1,6,-1
 1365 1189 l 1,7,-1
 1786 162 l 1,8,9
 2060 878 2060 878 2198 1235 c 1,10,11
 2198 1262 2198 1262 2157.5 1270.5 c 128,-1,12
 2117 1279 2117 1279 2076.5 1285 c 128,-1,13
 2036 1291 2036 1291 2036 1314 c 0,14,15
 2036 1349.23076923 2036 1349.23076923 2057.5 1364.11538462 c 128,-1,16
 2079 1379 2079 1379 2101 1386 c 128,-1,17
 2123 1393 2123 1393 2143 1396 c 128,-1,18
 2163 1399 2163 1399 2193 1401 c 0,19,20
 2238 1404 2238 1404 2287.5 1404 c 128,-1,21
 2337 1404 2337 1404 2362 1403.5 c 128,-1,22
 2387 1403 2387 1403 2423.5 1401.5 c 128,-1,23
 2460 1400 2460 1400 2483.5 1395.5 c 128,-1,24
 2507 1391 2507 1391 2530.5 1385 c 0,25,26
 2577 1373.12765957 2577 1373.12765957 2577 1344.56382979 c 128,-1,27
 2577 1316 2577 1316 2554.5 1300 c 128,-1,28
 2532 1284 2532 1284 2501 1284 c 1,29,30
 2386 1258 2386 1258 2364 1232 c 1,31,-1
 1922 132 l 2,32,33
 1898 73 1898 73 1855.5 27.5 c 128,-1,34
 1813 -18 1813 -18 1751 -18 c 128,-1,35
 1689 -18 1689 -18 1647.5 27 c 128,-1,36
 1606 72 1606 72 1570 159 c 2,37,-1
 1256 918 l 1,38,-1
 940 132 l 2,39,40
 880 -18 880 -18 771 -18 c 0,41,42
 680.096153846 -18 680.096153846 -18 623.5 91 c 0,43,44
 610 117 610 117 592 159 c 2,45,-1
 145 1229 l 1,46,47
 122.151115619 1257.12170385 122.151115619 1257.12170385 52.0755578093 1270.56085193 c 128,-1,48
 -18 1284 -18 1284 -47.5 1300.5 c 128,-1,49
 -77 1317 -77 1317 -77 1337.5 c 128,-1,50
 -77 1358 -77 1358 -66 1369 c 128,-1,51
 -55 1380 -55 1380 -31 1386 c 128,-1,52
 -7 1392 -7 1392 14.5 1396 c 128,-1,53
 36 1400 36 1400 73.5 1401.5 c 0,54,55
 135.961641894 1403.99846568 135.961641894 1403.99846568 167.480820947 1403.99923284 c 2,56,-1
 202 1404 l 2,57,58
 344.833333333 1404 344.833333333 1404 384.416666667 1394.5 c 128,-1,59
 424 1385 424 1385 448 1375.5 c 0,60,61
 495.950515464 1356.51958763 495.950515464 1356.51958763 500 1314 c 1,62,63
 498 1301 498 1301 464 1291 c 128,-1,64
 430 1281 430 1281 397.5 1270 c 128,-1,65
 365 1259 365 1259 365 1242 c 1,66,-1
 807 162 l 1,67,-1
 1174 1118 l 1,68,-1
 1129 1227 l 1,69,70
 1113.46468401 1246.9739777 1113.46468401 1246.9739777 1085.73234201 1255.98698885 c 128,-1,71
 1058 1265 1058 1265 1047 1268.5 c 0,72,73
 998.285714286 1284 998.285714286 1284 968.142857143 1288 c 128,-1,74
 938 1292 938 1292 923 1303.5 c 128,-1,75
 908 1315 908 1315 908 1349.5 c 128,-1,76
 908 1384 908 1384 986.5 1393.5 c 128,-1,77
 1065 1403 1065 1403 1189 1403 c 128,-1,78
 1313 1403 1313 1403 1347.5 1402.5 c 128,-1,79
 1382 1402 1382 1402 1429 1400.5 c 128,-1,80
 1476 1399 1476 1399 1500 1395 c 128,-1,81
 1524 1391 1524 1391 1549 1384.5 c 128,-1,0
 1574 1378 1574 1378 1584 1367.5 c 128,-1,1
EndSplineSet
EndChar

StartChar: X
Encoding: 58 88 57
Width: 1888
Flags: HMW
LayerCount: 2
Back
SplineSet
817 1330 m 4,0,1
 817 1306 817 1306 779.5 1296.5 c 0
 742 1287 742 1287 704 1277.5 c 0
 666 1268 666 1268 666 1244 c 0,2,3
 666 1227.00048828 666 1227.00048828 685.5 1196 c 0,4,5
 731.98596257 1122.09942542 731.98596257 1122.09942542 817.507750244 1023.03494375 c 0
 903.029537918 923.970462082 903.029537918 923.970462082 977 850 c 1,6,-1
 1019 892 l 2,7,8
 1314.99951172 1187.99951172 1314.99951172 1187.99951172 1315 1236 c 256,9,10
 1315 1253 1315 1253 1289.5 1265 c 0
 1264 1277 1264 1277 1226 1285 c 0
 1188 1293 1188 1293 1183 1295 c 1,11,12
 1186 1326 1186 1326 1195.5 1345.5 c 0
 1205 1365 1205 1365 1217 1376 c 0
 1229 1387 1229 1387 1255.5 1392.5 c 0
 1282 1398 1282 1398 1304.5 1399 c 0
 1327 1400 1327 1400 1373 1400 c 2,13,-1
 1722 1400 l 2,14,15
 1819.00048828 1400 1819.00048828 1400 1819 1369 c 0,16,17
 1819 1329.28662109 1819 1329.28662109 1785 1288 c 1,18,19
 1717 1280 1717 1280 1652.5 1258.5 c 0
 1588 1237 1588 1237 1528.5 1200.5 c 0
 1469 1164 1469 1164 1421 1129 c 0
 1373 1094 1373 1094 1317.5 1039.5 c 0
 1262 985 1262 985 1226.5 948 c 0
 1191 911 1191 911 1136.5 851 c 0
 1082 791 1082 791 1056 763 c 1,20,21
 1163.71142578 610.408691407 1163.71142578 610.408691407 1356 408 c 1,22,-1
 1377 384 l 1,23,-1
 1377 385 l 1,24,-1
 1428 330 l 1,25,26
 1495 260 1495 260 1542.5 219.5 c 0
 1590 179 1590 179 1661 147 c 0
 1732 115 1732 115 1814 108 c 1,27,28
 1853.92871093 74.0610351562 1853.92871093 74.0610351562 1881 22 c 1,29,30
 1837.24951172 -3.00048828125 1837.24951172 -3.00048828125 1483 -3 c 1,31,-1
 1263 -1 l 1,32,-1
 1246 -1 l 2,33,34
 1163.36669922 -1 1163.36669922 -1 1154 95 c 1,35,-1
 1200 108 l 1,36,37
 1272.51066013 126.128025087 1272.51066013 126.128025087 1287.27004144 135.72312956 c 0
 1305 147.249412477 1305 147.249412477 1305 165.5 c 0,38,39
 1305 177.999511718 1305 177.999511718 1281.5 214.5 c 0,40,41
 1183.72941687 366.357600015 1183.72941687 366.357600015 933 635 c 1,42,-1
 917 620 l 1,43,44
 537.000488282 221.903808593 537.000488282 221.903808593 537 168 c 0,45,46
 537 151 537 151 558.5 142.5 c 0
 580 134 580 134 623 126 c 0
 666 118 666 118 688 111 c 1,47,-1
 678 46 l 1,48,49
 626.25 -0.00048828125 626.25 -0.00048828125 477 0 c 2,50,51
 204.875 0 l 2,52,53
 193.598058781 0 193.598058781 0 167.656583008 -0.300272156956 c 0
 141.715107235 -0.600544313912 141.715107235 -0.600544313912 129.398674165 -0.461898929109 c 0
 117.082241095 -0.323253544306 117.082241095 -0.323253544306 96.2295914248 0.413706260222 c 0
 75.3769417545 1.15066606475 75.3769417545 1.15066606475 64.5151225369 3.44257616502 c 0
 53.6533033193 5.73448626529 53.6533033193 5.73448626529 41.0344208029 9.50880095014 c 0
 28.4155382864 13.283115635 28.4155382864 13.283115635 22.1532739725 19.7284133696 c 0
 15.8910096586 26.1737111042 15.8910096586 26.1737111042 14 35 c 1,54,55
 46.4536132812 99.9086914062 46.4536132812 99.9086914062 63 120 c 1,56,57
 116 124 116 124 172.5 143 c 0
 229 162 229 162 276 186 c 0
 323 210 323 210 377.5 250 c 0
 432 290 432 290 469.5 322 c 0
 507 354 507 354 558 404.5 c 0
 609 455 609 455 635.5 483.5 c 0
 662 512 662 512 706.601089951 560.585460783 c 0
 722 577 722 577 729 585 c 2,58,-1
 779 640 l 2,59,60
 819 684 819 684 859 724 c 1,61,-1
 789 807 l 2,62,63
 720 888 720 888 671.5 941.5 c 0
 623 995 623 995 552.5 1062 c 0
 482 1129 482 1129 422 1171.5 c 0
 362 1214 362 1214 286.5 1249.5 c 0
 211 1285 211 1285 135 1298 c 1,64,-1
 128 1306 l 1,65,66
 92 1330 92 1330 92 1377 c 0,67,68
 92 1401 92 1401 162 1401 c 257,69,-1
 199 1400 l 1,70,-1
 311 1400 l 1,71,-1
 466.5 1401 l 1,72,-1
 604 1402 l 1,73,-1
 701 1402 l 2,74,75
 816.999511718 1402 816.999511718 1402 817 1330 c 4,0,1
EndSplineSet
Fore
SplineSet
650 1233 m 0,0,1
 650 1212 650 1212 691 1173 c 1,2,-1
 975 851 l 1,3,-1
 1278 1170 l 1,4,5
 1305 1201 1305 1201 1305 1223.5 c 128,-1,6
 1305 1246 1305 1246 1236.88718411 1255.23885407 c 128,-1,7
 1168.77436823 1264.47770814 1168.77436823 1264.47770814 1163.97903627 1299.3076626 c 128,-1,8
 1159.18370431 1334.13761707 1159.18370431 1334.13761707 1241.13187306 1369.06880853 c 128,-1,9
 1323.08004181 1404 1323.08004181 1404 1513.54002091 1404 c 128,-1,10
 1704 1404 1704 1404 1704 1293 c 0,11,12
 1704 1253.42028986 1704 1253.42028986 1620.5 1251 c 0,13,14
 1586 1250 1586 1250 1538.5 1230 c 128,-1,15
 1491 1210 1491 1210 1456 1170 c 1,16,-1
 1061 754 l 1,17,-1
 1511 261 l 1,18,19
 1544.48821752 213.411480363 1544.48821752 213.411480363 1658.5 174 c 0,20,21
 1763 137.87654321 1763 137.87654321 1763 86 c 0,22,23
 1763 40.5161290323 1763 40.5161290323 1743 28.2580645161 c 128,-1,24
 1723 16 1723 16 1710 11 c 128,-1,25
 1697 6 1697 6 1663.5 3.5 c 0,26,27
 1556.51023192 -4.48431105048 1556.51023192 -4.48431105048 1446.25511596 0.257844474761 c 128,-1,28
 1336 5 1336 5 1308.5 11 c 128,-1,29
 1281 17 1281 17 1251.5 26.5 c 0,30,31
 1194 45.0169491525 1194 45.0169491525 1194 90 c 0,32,33
 1194 117 1194 117 1210 133.5 c 128,-1,34
 1226 150 1226 150 1244 156 c 128,-1,35
 1262 162 1262 162 1275.5 169.5 c 0,36,37
 1303.63551402 185.130841121 1303.63551402 185.130841121 1253 243 c 2,38,-1
 928 607 l 1,39,-1
 579 215 l 2,40,41
 532.218020917 162.604183427 532.218020917 162.604183427 565.5 146.5 c 0,42,43
 581 139 581 139 600 133.5 c 0,44,45
 651 118.736842105 651 118.736842105 651 85.8684210526 c 128,-1,46
 651 53 651 53 637 35 c 128,-1,47
 623 17 623 17 577 9.5 c 0,48,49
 518.733333333 2.4841240176e-15 518.733333333 2.4841240176e-15 433.366666667 1.2420620088e-15 c 2,50,-1
 336 0 l 1,51,-1
 314 0 l 2,52,53
 218 0 218 0 170 20 c 128,-1,54
 122 40 122 40 122 96 c 0,55,56
 122 129.542372881 122 129.542372881 185.5 136 c 0,57,58
 275.594594595 145.162162162 275.594594595 145.162162162 318.297297297 164.081081081 c 128,-1,59
 361 183 361 183 391 215 c 2,60,-1
 848 695 l 1,61,-1
 414 1159 l 2,62,63
 357.126118068 1219.66547406 357.126118068 1219.66547406 242.5 1239 c 0,64,65
 139 1256.45783133 139 1256.45783133 139 1292.72891566 c 128,-1,66
 139 1329 139 1329 158 1352 c 0,67,68
 200.956521739 1404 200.956521739 1404 402 1404 c 0,69,70
 554.222222222 1404 554.222222222 1404 600.111111111 1397 c 128,-1,71
 646 1390 646 1390 678 1382 c 0,72,73
 742 1366 742 1366 742 1329 c 0,74,75
 742 1299 742 1299 719 1277.5 c 128,-1,76
 696 1256 696 1256 673 1245.5 c 128,-1,77
 650 1235 650 1235 650 1233 c 0,0,1
EndSplineSet
EndChar

StartChar: Y
Encoding: 59 89 58
Width: 1467
Flags: HMW
LayerCount: 2
Fore
SplineSet
1169 1252 m 1,0,1
 1022 1252 1022 1252 1022 1288 c 0,2,3
 1022 1340 1022 1340 1092 1372 c 128,-1,4
 1162 1404 1162 1404 1254 1404 c 0,5,6
 1507 1404 1507 1404 1507 1319 c 0,7,8
 1507 1271.02173913 1507 1271.02173913 1391 1239.5 c 0,9,10
 1345 1227 1345 1227 1335 1220 c 1,11,-1
 825 558 l 1,12,-1
 825 172 l 2,13,14
 825 153 825 153 867 141 c 128,-1,15
 909 129 909 129 951 118 c 128,-1,16
 993 107 993 107 993 90 c 0,17,18
 993 29.8148148148 993 29.8148148148 910.5 12.5 c 0,19,20
 837.68466899 -2.78222996516 837.68466899 -2.78222996516 728 1 c 1,21,22
 562.344748226 1 562.344748226 1 499.680229892 19.7586344767 c 128,-1,23
 437.015711558 38.5172689534 437.015711558 38.5172689534 436 90 c 0,24,25
 436 124.625 436 124.625 522 130 c 128,-1,26
 608 135.375 608 135.375 608 172 c 2,27,-1
 608 558 l 1,28,-1
 472 740 l 1,29,30
 209.75 1095.91071429 209.75 1095.91071429 113 1218 c 0,31,32
 104 1230 104 1230 57 1241.5 c 128,-1,33
 10 1253 10 1253 -29.5 1269 c 128,-1,34
 -69 1285 -69 1285 -69 1312 c 0,35,36
 -69 1404 -69 1404 179 1404 c 2,37,-1
 246 1404 l 2,38,39
 506 1404 506 1404 506 1288 c 0,40,41
 506 1268 506 1268 409.767017133 1255.65937019 c 0,42,43
 401 1255 401 1255 397 1254 c 2,44,-1
 359 1249 l 1,45,-1
 358 1240 l 1,46,-1
 756 713 l 1,47,-1
 1128 1194 l 1,48,49
 1155 1225 1155 1225 1169 1252 c 1,0,1
EndSplineSet
EndChar

StartChar: Z
Encoding: 60 90 59
Width: 1475
Flags: HMW
LayerCount: 2
Fore
SplineSet
1394.5 361 m 128,-1,1
 1417 337 1417 337 1417 290 c 128,-1,2
 1417 243 1417 243 1394 173.5 c 128,-1,3
 1371 104 1371 104 1327.5 52 c 128,-1,4
 1284 0 1284 0 1234 0 c 2,5,-1
 157 -1 l 2,6,7
 81 -1 81 -1 81 50 c 0,8,9
 81 151.564 81 151.564 733 880.5 c 0,10,11
 983 1160 983 1160 1077 1269 c 1,12,13
 981 1285 981 1285 796 1285 c 2,14,-1
 300 1283 l 1,15,-1
 295 1239 l 1,16,17
 280.542168675 1120.92771084 280.542168675 1120.92771084 221 1046.5 c 0,18,19
 187 1004 187 1004 149.5 1004 c 128,-1,20
 112 1004 112 1004 93 1031 c 128,-1,21
 74 1058 74 1058 74 1124 c 128,-1,22
 74 1190 74 1190 92 1249.5 c 128,-1,23
 110 1309 110 1309 152 1343 c 0,24,25
 226.117647059 1403 226.117647059 1403 405 1403 c 2,26,-1
 1098 1405 l 2,27,28
 1269 1405 1269 1405 1353 1390 c 1,29,-1
 1352 1391 l 1,30,31
 1376 1376 1376 1376 1376 1350.5 c 128,-1,32
 1376 1325 1376 1325 1345.5 1276.5 c 128,-1,33
 1315 1228 1315 1228 1258 1153.5 c 0,34,35
 1183 1055.47368421 1183 1055.47368421 994 829.736842105 c 128,-1,36
 805 604 805 604 613.5 393 c 128,-1,37
 422 182 422 182 375 141 c 1,38,39
 431 121 431 121 720.5 121 c 128,-1,40
 1010 121 1010 121 1174 130 c 1,41,42
 1213 177 1213 177 1285 320 c 1,43,44
 1323 385 1323 385 1338 385 c 0,45,0
 1372 385 1372 385 1394.5 361 c 128,-1,1
EndSplineSet
EndChar

StartChar: bracketleft
Encoding: 61 91 60
Width: 635
Flags: HMW
LayerCount: 2
Fore
SplineSet
274 1770 m 2,0,-1
 344 1771 l 1,1,2
 487.236842105 1771 487.236842105 1771 521.5 1729 c 0,3,4
 537 1710 537 1710 537 1682.5 c 128,-1,5
 537 1655 537 1655 461 1642 c 128,-1,6
 385 1629 385 1629 385 1617 c 2,7,-1
 385 11 l 2,8,9
 385 -6 385 -6 423 -12 c 128,-1,10
 461 -18 461 -18 499 -25.5 c 128,-1,11
 537 -33 537 -33 537 -54 c 128,-1,12
 537 -75 537 -75 529.5 -90.5 c 128,-1,13
 522 -106 522 -106 505.5 -115.5 c 128,-1,14
 489 -125 489 -125 473 -131 c 128,-1,15
 457 -137 457 -137 429 -139.5 c 0,16,17
 389.8 -143 389.8 -143 330 -143 c 2,18,-1
 304 -143 l 2,19,20
 225.047619048 -143 225.047619048 -143 203.023809524 -130.5 c 128,-1,21
 181 -118 181 -118 175.5 -96.5 c 128,-1,22
 170 -75 170 -75 170 -37 c 2,23,-1
 170 1661 l 2,24,25
 170 1722 170 1722 193.5 1746 c 128,-1,26
 217 1770 217 1770 274 1770 c 2,0,-1
EndSplineSet
EndChar

StartChar: backslash
Encoding: 62 92 61
Width: 725
Flags: HMW
LayerCount: 2
Fore
SplineSet
2 1535 m 1,0,1
 -8 1562 -8 1562 -8 1595 c 128,-1,2
 -8 1628 -8 1628 33 1653.5 c 128,-1,3
 74 1679 74 1679 130 1679 c 0,4,5
 180 1679 180 1679 205 1597 c 2,6,-1
 706 -25 l 2,7,8
 718 -65 718 -65 718 -92 c 128,-1,9
 718 -119 718 -119 675.5 -143.5 c 128,-1,10
 633 -168 633 -168 568 -168 c 0,11,12
 530 -168 530 -168 504 -87 c 2,13,-1
 2 1535 l 1,0,1
EndSplineSet
EndChar

StartChar: bracketright
Encoding: 63 93 62
Width: 643
Flags: HMW
LayerCount: 2
Fore
SplineSet
473 -37 m 2,0,1
 473 -105 473 -105 449.5 -124 c 128,-1,2
 426 -143 426 -143 355 -143 c 2,3,-1
 303 -143 l 2,4,5
 190.277777778 -143 190.277777778 -143 160.138888889 -127.5 c 0,6,7
 106 -99.6571428571 106 -99.6571428571 106 -54 c 0,8,9
 106 -25 106 -25 182 -16 c 128,-1,10
 258 -7 258 -7 258 11 c 2,11,-1
 258 1617 l 2,12,13
 258 1630 258 1630 220 1637 c 128,-1,14
 182 1644 182 1644 144 1653.5 c 128,-1,15
 106 1663 106 1663 106 1682.5 c 128,-1,16
 106 1702 106 1702 113.5 1717.5 c 128,-1,17
 121 1733 121 1733 137 1742.5 c 128,-1,18
 153 1752 153 1752 169 1758 c 128,-1,19
 185 1764 185 1764 213 1766.5 c 0,20,21
 252.2 1770 252.2 1770 304.1 1770 c 128,-1,22
 356 1770 356 1770 376.5 1769 c 128,-1,23
 397 1768 397 1768 420.5 1762.5 c 128,-1,24
 444 1757 444 1757 452.5 1745.5 c 0,25,26
 473 1717.76470588 473 1717.76470588 473 1661 c 2,27,-1
 473 -37 l 2,0,1
EndSplineSet
EndChar

StartChar: asciicircum
Encoding: 64 94 63
Width: 972
Flags: HMW
LayerCount: 2
Fore
SplineSet
488 987 m 2,0,1
 379.790776849 807.471061591 379.790776849 807.471061591 256.5 679 c 0,2,3
 197 617 197 617 161 617 c 128,-1,4
 125 617 125 617 98.5 634.5 c 128,-1,5
 72 652 72 652 72 673 c 128,-1,6
 72 694 72 694 74.5 704.5 c 128,-1,7
 77 715 77 715 79.5 723 c 128,-1,8
 82 731 82 731 88 743.5 c 128,-1,9
 94 756 94 756 97 762 c 0,10,11
 112 792 112 792 117 800.5 c 128,-1,12
 122 809 122 809 149 863 c 128,-1,13
 176 917 176 917 190 942 c 2,14,-1
 219 992 l 1,15,16
 230 1014 230 1014 234 1024 c 2,17,-1
 251 1060 l 1,18,19
 339.477360931 1243.7606727 339.477360931 1243.7606727 423.5 1288.5 c 0,20,21
 462 1309 462 1309 506 1309 c 128,-1,22
 550 1309 550 1309 589 1287 c 128,-1,23
 628 1265 628 1265 659 1224 c 0,24,25
 713.744680851 1151.59574468 713.744680851 1151.59574468 759 1046 c 1,26,-1
 807 944 l 2,27,28
 810 937 810 937 845 869.5 c 0,29,30
 919 726.785714286 919 726.785714286 919 679 c 1,31,-1
 914 676 l 1,32,-1
 908 681 l 1,33,34
 903 654 903 654 880.5 635.5 c 128,-1,35
 858 617 858 617 828 617 c 0,36,37
 770 617 770 617 702 704 c 0,38,39
 664 752 664 752 589 877 c 2,40,-1
 574 902 l 2,41,42
 569 910 569 910 557.5 929.5 c 128,-1,43
 546 949 546 949 539 960 c 0,44,45
 521.862068966 986.931034483 521.862068966 986.931034483 502 1009 c 1,46,-1
 502 1010 l 1,47,-1
 488 987 l 2,0,1
EndSplineSet
EndChar

StartChar: underscore
Encoding: 65 95 64
Width: 1239
Flags: HMW
LayerCount: 2
Fore
SplineSet
996 -5 m 2,0,1
 1112 -5 1112 -5 1112 -116 c 0,2,3
 1112 -250 1112 -250 976 -250 c 2,4,-1
 304 -250 l 2,5,6
 185 -250 185 -250 185 -139 c 0,7,8
 185 -5 185 -5 332 -5 c 2,9,-1
 996 -5 l 2,0,1
EndSplineSet
EndChar

StartChar: grave
Encoding: 66 96 65
Width: 509
Flags: HMW
LayerCount: 2
Fore
SplineSet
412 1106 m 1,0,1
 389 1116 389 1116 299 1215 c 128,-1,2
 209 1314 209 1314 124.5 1434 c 128,-1,3
 40 1554 40 1554 40 1601 c 0,4,5
 40 1648 40 1648 76.5 1676 c 128,-1,6
 113 1704 113 1704 158.5 1704 c 0,7,8
 204 1704 204 1704 240 1675.5 c 128,-1,9
 276 1647 276 1647 288 1611 c 0,10,11
 342 1454 342 1454 383.5 1299.5 c 0,12,13
 425 1145 425 1145 426 1125 c 1,14,-1
 426 1120 l 1,15,-1
 412 1106 l 1,0,1
EndSplineSet
EndChar

StartChar: a
Encoding: 67 97 66
Width: 1131
Flags: HMW
LayerCount: 2
Fore
SplineSet
153.5 663.5 m 128,-1,1
 107 693 107 693 107 740.5 c 128,-1,2
 107 788 107 788 134 830 c 128,-1,3
 161 872 161 872 204 898.5 c 128,-1,4
 247 925 247 925 304 943 c 0,5,6
 408.5 976 408.5 976 528 976 c 0,7,8
 730 976 730 976 821.5 886.5 c 128,-1,9
 913 797 913 797 913 591 c 2,10,-1
 912 296 l 2,11,12
 912 189 912 189 939 162 c 0,13,14
 946 155 946 155 983 143.5 c 0,15,16
 1085 111.797297297 1085 111.797297297 1085 95 c 0,17,18
 1085 -10 1085 -10 870 -10 c 0,19,20
 789 -10 789 -10 764.5 26 c 128,-1,21
 740 62 740 62 738 157 c 1,22,23
 693 76 693 76 601 26 c 128,-1,24
 509 -24 509 -24 404 -24 c 128,-1,25
 299 -24 299 -24 226 3 c 128,-1,26
 153 30 153 30 107.5 90.5 c 128,-1,27
 62 151 62 151 62 221 c 128,-1,28
 62 291 62 291 78 333.5 c 128,-1,29
 94 376 94 376 118 405 c 128,-1,30
 142 434 142 434 183.5 457 c 128,-1,31
 225 480 225 480 261 493.5 c 128,-1,32
 297 507 297 507 353.5 518 c 0,33,34
 438.110376185 534.472816602 438.110376185 534.472816602 495.055188092 540.736408301 c 128,-1,35
 552 547 552 547 554 547.5 c 0,36,37
 560 549 560 549 622.5 555.5 c 128,-1,38
 685 562 685 562 721 582 c 1,39,40
 721 772.219512195 721 772.219512195 669.5 830 c 0,41,42
 624.934782609 880 624.934782609 880 521.967391304 880 c 128,-1,43
 419 880 419 880 367.5 827.5 c 128,-1,44
 316 775 316 775 316 661 c 1,45,-1
 317 639 l 1,46,47
 275 634 275 634 237.5 634 c 128,-1,0
 200 634 200 634 153.5 663.5 c 128,-1,1
721 492 m 1,48,49
 653.204545455 467.022727273 653.204545455 467.022727273 567.602272727 457.511363636 c 128,-1,50
 482 448 482 448 433 435 c 128,-1,51
 384 422 384 422 351 403 c 0,52,53
 275 359.242424242 275 359.242424242 275 252 c 0,54,55
 275 80 275 80 475 80 c 0,56,57
 648 80 648 80 694.5 245 c 0,58,59
 721 339.032258065 721 339.032258065 721 492 c 1,48,49
EndSplineSet
EndChar

StartChar: b
Encoding: 68 98 67
Width: 1182
Flags: HMW
LayerCount: 2
Fore
SplineSet
891 433 m 0,0,1
 891 535 891 535 853 629.5 c 128,-1,2
 815 724 815 724 741.5 787 c 128,-1,3
 668 850 668 850 577 850 c 0,4,5
 452 850 452 850 346 752 c 1,6,-1
 346 201 l 1,7,8
 465 107 465 107 602 107 c 128,-1,9
 739 107 739 107 815 197 c 128,-1,10
 891 287 891 287 891 433 c 0,0,1
195 -8 m 0,11,12
 156 -8 156 -8 156 83 c 2,13,-1
 156 1247 l 2,14,15
 156 1338 156 1338 84 1345 c 0,16,17
 77 1346 77 1346 66 1347 c 128,-1,18
 55 1348 55 1348 50 1348.5 c 128,-1,19
 45 1349 45 1349 37.5 1350.5 c 128,-1,20
 30 1352 30 1352 26.5 1354 c 128,-1,21
 23 1356 23 1356 19.5 1359 c 0,22,23
 13 1364.57142857 13 1364.57142857 13 1387.78571429 c 128,-1,24
 13 1411 13 1411 43.5 1436 c 0,25,26
 99.62 1482 99.62 1482 195 1482 c 0,27,28
 296.4 1482 296.4 1482 313.2 1470 c 0,29,30
 347 1445.85714286 347 1445.85714286 347 1407 c 2,31,-1
 347 854 l 1,32,33
 496 981 496 981 686 981 c 128,-1,34
 876 981 876 981 991.5 848.5 c 128,-1,35
 1107 716 1107 716 1107 502 c 0,36,37
 1107 368 1107 368 1048.5 249 c 128,-1,38
 990 130 990 130 884.5 56 c 128,-1,39
 779 -18 779 -18 653 -18 c 0,40,41
 473 -18 473 -18 304 95 c 1,42,43
 302 93 302 93 277 59 c 0,44,45
 227.735294118 -8 227.735294118 -8 195 -8 c 0,11,12
EndSplineSet
EndChar

StartChar: c
Encoding: 69 99 68
Width: 1026
Flags: HMW
LayerCount: 2
Fore
SplineSet
922 195 m 0,0,1
 967 195 967 195 967 153 c 0,2,3
 967 130 967 130 953 115 c 0,4,5
 820 -27 820 -27 571 -27 c 128,-1,6
 322 -27 322 -27 176.5 108 c 128,-1,7
 31 243 31 243 31 465 c 0,8,9
 31 610 31 610 101.5 727.5 c 128,-1,10
 172 845 172 845 293.5 911 c 128,-1,11
 415 977 415 977 563 977 c 0,12,13
 769.743362832 977 769.743362832 977 882 869.5 c 0,14,15
 941 813 941 813 941 737 c 0,16,17
 941 692 941 692 903.5 661 c 128,-1,18
 866 630 866 630 814 630 c 128,-1,19
 762 630 762 630 739 639 c 1,20,21
 732 752 732 752 692.5 812.5 c 128,-1,22
 653 873 653 873 560 873 c 0,23,24
 408 873 408 873 321.5 776 c 128,-1,25
 235 679 235 679 235 515 c 128,-1,26
 235 351 235 351 345.5 230 c 128,-1,27
 456 109 456 109 624 109 c 0,28,29
 723 109 723 109 867 179 c 0,30,31
 898 195 898 195 922 195 c 0,0,1
EndSplineSet
EndChar

StartChar: d
Encoding: 70 100 69
Width: 1215
Flags: HMW
LayerCount: 2
Fore
SplineSet
691.5 838.5 m 128,-1,1
 613 871 613 871 516 871 c 128,-1,2
 419 871 419 871 351 815 c 0,3,4
 219 706.294117647 219 706.294117647 219 493 c 0,5,6
 219 328 219 328 308.5 213.5 c 128,-1,7
 398 99 398 99 541.5 99 c 128,-1,8
 685 99 685 99 748.5 158.5 c 128,-1,9
 812 218 812 218 812 356 c 2,10,-1
 812 751 l 1,11,0
 770 806 770 806 691.5 838.5 c 128,-1,1
536 979 m 0,12,13
 602 979 602 979 683.5 957.5 c 128,-1,14
 765 936 765 936 812 912 c 1,15,-1
 812 1247 l 2,16,17
 812 1338 812 1338 740 1345 c 0,18,19
 733 1346 733 1346 722 1347 c 128,-1,20
 711 1348 711 1348 706 1348.5 c 128,-1,21
 701 1349 701 1349 693.5 1350.5 c 128,-1,22
 686 1352 686 1352 682.5 1354 c 128,-1,23
 679 1356 679 1356 675.5 1359 c 0,24,25
 669 1364.57142857 669 1364.57142857 669 1387.78571429 c 128,-1,26
 669 1411 669 1411 699.5 1436 c 0,27,28
 755.62 1482 755.62 1482 851 1482 c 0,29,30
 952.4 1482 952.4 1482 969.2 1470 c 0,31,32
 1003 1445.85714286 1003 1445.85714286 1003 1407 c 2,33,-1
 1003 313 l 2,34,35
 1003 202 1003 202 1027 169 c 1,36,37
 1052 137 1052 137 1071.5 130 c 128,-1,38
 1091 123 1091 123 1105.5 118 c 128,-1,39
 1120 113 1120 113 1126 110.5 c 128,-1,40
 1132 108 1132 108 1141 102.5 c 0,41,42
 1157 92.7222222222 1157 92.7222222222 1157 74 c 0,43,44
 1157 32 1157 32 1112.5 12.5 c 128,-1,45
 1068 -7 1068 -7 994.5 -7 c 128,-1,46
 921 -7 921 -7 888 21 c 128,-1,47
 855 49 855 49 830 124 c 1,48,49
 748 -21 748 -21 488 -21 c 0,50,51
 280 -21 280 -21 149.5 117 c 128,-1,52
 19 255 19 255 19 475 c 128,-1,53
 19 695 19 695 164 837 c 128,-1,54
 309 979 309 979 536 979 c 0,12,13
EndSplineSet
EndChar

StartChar: e
Encoding: 71 101 70
Width: 995
Flags: HMW
LayerCount: 2
Fore
SplineSet
32 470 m 128,-1,1
 32 695 32 695 171.5 835.5 c 128,-1,2
 311 976 311 976 527 976 c 0,3,4
 698 976 698 976 815.5 865.5 c 128,-1,5
 933 755 933 755 933 588 c 0,6,7
 933 507 933 507 805 507 c 2,8,-1
 226 507 l 1,9,10
 228 345 228 345 331 234 c 128,-1,11
 434 123 434 123 591 123 c 0,12,13
 695 123 695 123 793 184 c 0,14,15
 845 216 845 216 859.5 216 c 0,16,17
 874 216 874 216 892.5 201.5 c 128,-1,18
 911 187 911 187 911 166 c 0,19,20
 911 111 911 111 840.5 64.5 c 128,-1,21
 770 18 770 18 685 -4.5 c 128,-1,22
 600 -27 600 -27 536 -27 c 0,23,24
 309 -27 309 -27 170.5 109 c 128,-1,0
 32 245 32 245 32 470 c 128,-1,1
749 612 m 1,25,26
 747 727 747 727 689 799 c 128,-1,27
 631 871 631 871 519.5 871 c 0,28,29
 408 871 408 871 324.5 791 c 128,-1,30
 241 711 241 711 236 608 c 1,31,-1
 470 608 l 2,32,33
 626 608 626 608 749 612 c 1,25,26
EndSplineSet
EndChar

StartChar: f
Encoding: 72 102 71
Width: 771
Flags: HMW
LayerCount: 2
Fore
SplineSet
97.5 48 m 128,-1,1
 90 63 90 63 90 85.5 c 128,-1,2
 90 108 90 108 110 118 c 128,-1,3
 130 128 130 128 154.5 129 c 128,-1,4
 179 130 179 130 199 144.5 c 128,-1,5
 219 159 219 159 219 191 c 2,6,-1
 219 833 l 1,7,-1
 149 833 l 2,8,9
 123 833 123 833 105.5 851.5 c 128,-1,10
 88 870 88 870 88 905 c 128,-1,11
 88 940 88 940 105 951 c 128,-1,12
 122 962 122 962 168 962 c 2,13,-1
 219 962 l 1,14,-1
 219 1109 l 2,15,16
 219 1277 219 1277 320.5 1368 c 128,-1,17
 422 1459 422 1459 598 1459 c 0,18,19
 741.676923077 1459 741.676923077 1459 806 1402.5 c 0,20,21
 843 1370 843 1370 843 1318 c 0,22,23
 843 1196 843 1196 720 1196 c 0,24,25
 613 1196 613 1196 613 1318 c 2,26,-1
 613 1332 l 1,27,28
 575 1348 575 1348 536 1348 c 0,29,30
 365 1348 365 1348 365 1170 c 0,31,32
 365 1052 365 1052 409 962 c 1,33,-1
 554 962 l 2,34,35
 626 962 626 962 626 920 c 0,36,37
 626 886 626 886 604.5 861 c 128,-1,38
 583 836 583 836 557 836 c 2,39,-1
 409 836 l 1,40,-1
 409 191 l 2,41,42
 409 133.448979592 409 133.448979592 473.5 129.5 c 128,-1,43
 538 125.551020408 538 125.551020408 538 78 c 0,44,45
 538 23.3636363636 538 23.3636363636 464.5 10 c 0,46,47
 409.5 0 409.5 0 357.25 0 c 128,-1,48
 305 0 305 0 282 0 c 128,-1,49
 259 0 259 0 242.5 0.5 c 128,-1,50
 226 1 226 1 197.5 3 c 128,-1,51
 169 5 169 5 154 10 c 128,-1,52
 139 15 139 15 122 24 c 128,-1,0
 105 33 105 33 97.5 48 c 128,-1,1
EndSplineSet
EndChar

StartChar: g
Encoding: 73 103 72
Width: 1141
Flags: HMW
LayerCount: 2
Fore
SplineSet
982 622 m 0,0,1
 982 531 982 531 913 462 c 0,2,3
 778 327 778 327 528 327 c 0,4,5
 478.615384615 327 478.615384615 327 423.807692308 336.5 c 128,-1,6
 369 346 369 346 355 348 c 1,7,-1
 355 349 l 1,8,9
 279 285 279 285 279 237 c 0,10,11
 279 192.674418605 279 192.674418605 322.5 177.5 c 0,12,13
 382.743813683 156.484716157 382.743813683 156.484716157 491.871906841 154.242358079 c 128,-1,14
 601 152 601 152 662 150.5 c 128,-1,15
 723 149 723 149 794 144 c 128,-1,16
 865 139 865 139 919 124.5 c 128,-1,17
 973 110 973 110 1019.5 86 c 0,18,19
 1116 36.1935483871 1116 36.1935483871 1116 -84 c 0,20,21
 1116 -174 1116 -174 1069 -243 c 128,-1,22
 1022 -312 1022 -312 943 -352.5 c 0,23,24
 785.975308642 -433 785.975308642 -433 569 -433 c 0,25,26
 381 -433 381 -433 238 -381 c 0,27,28
 161 -353 161 -353 116 -298.5 c 128,-1,29
 71 -244 71 -244 71 -168 c 0,30,31
 71 -26 71 -26 214 51 c 1,32,33
 176 88 176 88 162.5 121 c 128,-1,34
 149 154 149 154 149 198 c 128,-1,35
 149 242 149 242 157 266 c 128,-1,36
 165 290 165 290 182 310 c 0,37,38
 204.275862069 336.206896552 204.275862069 336.206896552 264 381 c 1,39,40
 170 428 170 428 120.5 486.5 c 128,-1,41
 71 545 71 545 71 634.5 c 128,-1,42
 71 724 71 724 112.5 790 c 128,-1,43
 154 856 154 856 222 895 c 0,44,45
 359.743589744 974 359.743589744 974 530 974 c 0,46,47
 578 974 578 974 709.5 949.5 c 128,-1,48
 841 925 841 925 857 925 c 0,49,50
 946 925 946 925 961 1014 c 1,51,52
 1089 1014 1089 1014 1089 912 c 0,53,54
 1089 863 1089 863 1059.5 834.5 c 128,-1,55
 1030 806 1030 806 991.5 806 c 128,-1,56
 953 806 953 806 909 810 c 1,57,58
 938 785 938 785 960 732 c 128,-1,59
 982 679 982 679 982 622 c 0,0,1
350.5 825 m 128,-1,61
 275 762 275 762 275 659 c 128,-1,62
 275 556 275 556 352.5 490 c 128,-1,63
 430 424 430 424 542 424 c 128,-1,64
 654 424 654 424 723.5 485.5 c 128,-1,65
 793 547 793 547 793 646 c 128,-1,66
 793 745 793 745 717.5 816.5 c 128,-1,67
 642 888 642 888 534 888 c 128,-1,60
 426 888 426 888 350.5 825 c 128,-1,61
551 -316 m 0,68,69
 704.666666667 -316 704.666666667 -316 784.833333333 -283.5 c 128,-1,70
 865 -251 865 -251 896 -208.5 c 128,-1,71
 927 -166 927 -166 927 -107 c 0,72,73
 927 16 927 16 449 16 c 0,74,75
 314 16 314 16 314 19 c 1,76,77
 238 -58 238 -58 238 -128 c 0,78,79
 238 -316 238 -316 551 -316 c 0,68,69
EndSplineSet
EndChar

StartChar: h
Encoding: 74 104 73
Width: 1296
Flags: HMW
LayerCount: 2
Fore
SplineSet
1058 0 m 2,0,-1
 972 -1 l 1,1,2
 841.111111111 -1 841.111111111 -1 810 39 c 0,3,4
 796 57 796 57 796 82.5 c 128,-1,5
 796 108 796 108 816 118 c 128,-1,6
 836 128 836 128 860.5 129 c 128,-1,7
 885 130 885 130 905 144.5 c 128,-1,8
 925 159 925 159 925 191 c 2,9,-1
 926 482 l 2,10,11
 926 666 926 666 882.5 753 c 0,12,13
 833.5 851 833.5 851 682 851 c 0,14,15
 521.811881188 851 521.811881188 851 458.5 749.5 c 0,16,17
 400 655.714285714 400 655.714285714 400 477 c 2,18,-1
 400 191 l 2,19,20
 400 133.448979592 400 133.448979592 464.5 129.5 c 128,-1,21
 529 125.551020408 529 125.551020408 529 78 c 0,22,23
 529 23.4444444444 529 23.4444444444 468.5 10 c 0,24,25
 423.5 0 423.5 0 343 0 c 2,26,-1
 257 -1 l 1,27,28
 126.111111111 -1 126.111111111 -1 95 39 c 0,29,30
 81 57 81 57 81 82.5 c 128,-1,31
 81 108 81 108 101 118 c 128,-1,32
 121 128 121 128 145.5 129 c 128,-1,33
 170 130 170 130 190 144.5 c 128,-1,34
 210 159 210 159 210 191 c 2,35,-1
 210 1280 l 2,36,37
 210 1338 210 1338 138 1350 c 0,38,39
 88.1085972445 1358.12185626 88.1085972445 1358.12185626 77.6260383168 1367.46836504 c 128,-1,40
 67 1376.94280359 67 1376.94280359 67 1398.9714018 c 128,-1,41
 67 1421 67 1421 88 1439 c 128,-1,42
 109 1457 109 1457 143 1466 c 0,43,44
 203.444444444 1482 203.444444444 1482 277 1482 c 0,45,46
 401 1482 401 1482 401 1407 c 2,47,-1
 401 826 l 1,48,49
 537 980 537 980 745 980 c 128,-1,50
 953 980 953 980 1034.5 873.5 c 128,-1,51
 1116 767 1116 767 1116 551 c 2,52,-1
 1115 191 l 2,53,54
 1115 133.448979592 1115 133.448979592 1179.5 129.5 c 128,-1,55
 1244 125.551020408 1244 125.551020408 1244 78 c 0,56,57
 1244 23.4444444444 1244 23.4444444444 1183.5 10 c 0,58,59
 1138.5 0 1138.5 0 1058 0 c 2,0,-1
EndSplineSet
EndChar

StartChar: i
Encoding: 75 105 74
Width: 670
Flags: HMW
LayerCount: 2
Fore
SplineSet
181 1255 m 256,0,1
 181 1299 181 1299 223.5 1337.5 c 128,-1,2
 266 1376 266 1376 316.5 1376 c 128,-1,3
 367 1376 367 1376 414.5 1345 c 128,-1,4
 462 1314 462 1314 462 1263 c 128,-1,5
 462 1212 462 1212 422 1177.5 c 128,-1,6
 382 1143 382 1143 324 1143 c 128,-1,7
 266 1143 266 1143 223.5 1175 c 128,-1,8
 181 1207 181 1207 181 1255 c 256,0,1
390 0 m 2,9,-1
 304 -1 l 1,10,11
 173.111111111 -1 173.111111111 -1 142 39 c 0,12,13
 128 57 128 57 128 82.5 c 128,-1,14
 128 108 128 108 148 118 c 128,-1,15
 168 128 168 128 192.5 129 c 128,-1,16
 217 130 217 130 237 144.5 c 128,-1,17
 257 159 257 159 257 191 c 2,18,-1
 257 729 l 2,19,20
 257 820 257 820 186 827 c 0,21,22
 179 828 179 828 168 829 c 128,-1,23
 157 830 157 830 152 830.5 c 128,-1,24
 147 831 147 831 139.5 832.5 c 128,-1,25
 132 834 132 834 128.5 836 c 128,-1,26
 125 838 125 838 121 841 c 0,27,28
 114 846.25 114 846.25 114 869.625 c 128,-1,29
 114 893 114 893 144.5 918 c 0,30,31
 200.62 964 200.62 964 296 964 c 0,32,33
 383.888888889 964 383.888888889 964 399.444444444 957 c 128,-1,34
 415 950 415 950 426.5 942 c 0,35,36
 447 927.739130435 447 927.739130435 447 889 c 2,37,-1
 447 191 l 2,38,39
 447 133.448979592 447 133.448979592 511.5 129.5 c 128,-1,40
 576 125.551020408 576 125.551020408 576 78 c 0,41,42
 576 23.4444444444 576 23.4444444444 515.5 10 c 0,43,44
 470.5 -1.24344978758e-14 470.5 -1.24344978758e-14 390 0 c 2,9,-1
EndSplineSet
EndChar

StartChar: j
Encoding: 76 106 75
Width: 574
Flags: HMW
LayerCount: 2
Fore
SplineSet
383 1346 m 128,-1,1
 431 1318 431 1318 431 1266.5 c 128,-1,2
 431 1215 431 1215 389.5 1179.5 c 128,-1,3
 348 1144 348 1144 290.5 1144 c 128,-1,4
 233 1144 233 1144 191.5 1178 c 128,-1,5
 150 1212 150 1212 150 1257 c 128,-1,6
 150 1302 150 1302 189.5 1338 c 128,-1,7
 229 1374 229 1374 282 1374 c 128,-1,0
 335 1374 335 1374 383 1346 c 128,-1,1
-9 -192 m 0,8,9
 -9 -131.857142857 -9 -131.857142857 84.5 -110 c 0,10,11
 123 -101 123 -101 162 -92 c 0,12,13
 256 -70.3076923077 256 -70.3076923077 256 -18 c 0,14,15
 256 17 256 17 245.5 59 c 128,-1,16
 235 101 235 101 233 113 c 2,17,-1
 223 162 l 1,18,-1
 223 728 l 2,19,20
 223 819 223 819 152 826 c 0,21,22
 145 827 145 827 134 828 c 128,-1,23
 123 829 123 829 118 829.5 c 128,-1,24
 113 830 113 830 105.5 831.5 c 128,-1,25
 98 833 98 833 94.5 835 c 128,-1,26
 91 837 91 837 87 840 c 0,27,28
 80 845.25 80 845.25 80 868.625 c 128,-1,29
 80 892 80 892 110.5 917 c 0,30,31
 166.62 963 166.62 963 262 963 c 0,32,33
 363.4 963 363.4 963 380.2 951 c 0,34,35
 414 926.857142857 414 926.857142857 414 888 c 2,36,-1
 414 152 l 2,37,38
 414 -59 414 -59 347.5 -154 c 128,-1,39
 281 -249 281 -249 106 -269 c 0,40,41
 103 -270 103 -270 96 -270 c 2,42,-1
 89 -270 l 2,43,44
 -9 -270 -9 -270 -9 -192 c 0,8,9
EndSplineSet
EndChar

StartChar: k
Encoding: 77 107 76
Width: 1382
Flags: HMW
LayerCount: 2
Fore
SplineSet
346 0 m 2,0,-1
 260 -1 l 1,1,2
 129.111111111 -1 129.111111111 -1 98 39 c 0,3,4
 84 57 84 57 84 82.5 c 128,-1,5
 84 108 84 108 104 118 c 128,-1,6
 124 128 124 128 148.5 129 c 128,-1,7
 173 130 173 130 193 144.5 c 128,-1,8
 213 159 213 159 213 191 c 2,9,-1
 213 1247 l 2,10,11
 213 1338 213 1338 142 1345 c 0,12,13
 135 1346 135 1346 124 1347 c 128,-1,14
 113 1348 113 1348 108 1348.5 c 128,-1,15
 103 1349 103 1349 95.5 1350.5 c 128,-1,16
 88 1352 88 1352 84.5 1354 c 128,-1,17
 81 1356 81 1356 77 1359 c 0,18,19
 70 1364.25 70 1364.25 70 1387.625 c 128,-1,20
 70 1411 70 1411 100.5 1436 c 0,21,22
 156.62 1482 156.62 1482 252 1482 c 0,23,24
 353.4 1482 353.4 1482 370.2 1470 c 0,25,26
 404 1445.85714286 404 1445.85714286 404 1407 c 2,27,-1
 404 532 l 1,28,29
 441 560 441 560 576.5 658 c 0,30,31
 842 850.022140221 842 850.022140221 842 868 c 0,32,33
 842 891 842 891 766 915 c 1,34,35
 769 1006 769 1006 934 1006 c 2,36,-1
 1070 1006 l 2,37,38
 1322 1006 1322 1006 1322 978 c 0,39,40
 1322 965 1322 965 1293.5 936.5 c 128,-1,41
 1265 908 1265 908 1235 891 c 1,42,43
 1169 891 1169 891 1083.5 846 c 128,-1,44
 998 801 998 801 873 708 c 2,45,-1
 700 580 l 1,46,-1
 1014 248 l 2,47,48
 1071 189 1071 189 1117.5 157.5 c 128,-1,49
 1164 126 1164 126 1203 116.5 c 128,-1,50
 1242 107 1242 107 1261.5 102.5 c 128,-1,51
 1281 98 1281 98 1290 96 c 128,-1,52
 1299 94 1299 94 1313 88.5 c 128,-1,53
 1327 83 1327 83 1333.5 77 c 0,54,55
 1351 60.8461538462 1351 60.8461538462 1351 38 c 0,56,57
 1351 -10 1351 -10 1196 -10 c 2,58,-1
 1148 -10 l 2,59,60
 1053 -10 1053 -10 1017.5 -1.5 c 128,-1,61
 982 7 982 7 942 45 c 0,62,63
 793 186 793 186 573 501 c 1,64,-1
 403 386 l 1,65,-1
 403 191 l 2,66,67
 403 133.448979592 403 133.448979592 467.5 129.5 c 128,-1,68
 532 125.551020408 532 125.551020408 532 78 c 0,69,70
 532 23.4444444444 532 23.4444444444 471.5 10 c 0,71,72
 426.5 0 426.5 0 346 0 c 2,0,-1
EndSplineSet
EndChar

StartChar: l
Encoding: 78 108 77
Width: 604
Flags: HMW
LayerCount: 2
Fore
SplineSet
346 0 m 2,0,-1
 260 -1 l 1,1,2
 129.111111111 -1 129.111111111 -1 98 39 c 0,3,4
 84 57 84 57 84 82.5 c 128,-1,5
 84 108 84 108 104 118 c 128,-1,6
 124 128 124 128 148 129 c 128,-1,7
 172 130 172 130 192 144.5 c 128,-1,8
 212 159 212 159 212 191 c 2,9,-1
 212 1247 l 2,10,11
 212 1338 212 1338 140 1345 c 0,12,13
 133 1346 133 1346 122 1347 c 128,-1,14
 111 1348 111 1348 106 1348.5 c 128,-1,15
 101 1349 101 1349 93.5 1350.5 c 128,-1,16
 86 1352 86 1352 82.5 1354 c 128,-1,17
 79 1356 79 1356 75.5 1359 c 0,18,19
 69 1364.57142857 69 1364.57142857 69 1387.78571429 c 128,-1,20
 69 1411 69 1411 99.5 1436 c 0,21,22
 155.62 1482 155.62 1482 251 1482 c 0,23,24
 352.4 1482 352.4 1482 369.2 1470 c 0,25,26
 403 1445.85714286 403 1445.85714286 403 1407 c 2,27,-1
 403 191 l 2,28,29
 403 133.448979592 403 133.448979592 467.5 129.5 c 128,-1,30
 532 125.551020408 532 125.551020408 532 78 c 0,31,32
 532 23.4444444444 532 23.4444444444 471.5 10 c 0,33,34
 426.5 0 426.5 0 346 0 c 2,0,-1
EndSplineSet
EndChar

StartChar: m
Encoding: 79 109 78
Width: 1957
Flags: HMW
LayerCount: 2
Fore
SplineSet
346 0 m 2,0,-1
 260 -1 l 1,1,2
 129.111111111 -1 129.111111111 -1 98 39 c 0,3,4
 84 57 84 57 84 82.5 c 128,-1,5
 84 108 84 108 104 118 c 128,-1,6
 124 128 124 128 148.5 129 c 128,-1,7
 173 130 173 130 193 144.5 c 128,-1,8
 213 159 213 159 213 191 c 2,9,-1
 213 762 l 2,10,11
 213 792 213 792 190.5 807 c 128,-1,12
 168 822 168 822 141.5 823.5 c 0,13,14
 70 827.547169811 70 827.547169811 70 869 c 0,15,16
 70 934.786885246 70 934.786885246 201.5 958.5 c 0,17,18
 232 964 232 964 258 964 c 0,19,20
 344 964 344 964 369 938.5 c 128,-1,21
 394 913 394 913 394 825 c 1,22,23
 532 979 532 979 768 979 c 0,24,25
 850 979 850 979 927.5 929.5 c 128,-1,26
 1005 880 1005 880 1048 814 c 1,27,28
 1218 980 1218 980 1426 980 c 0,29,30
 1667 980 1667 980 1733 774.5 c 0,31,32
 1769 662.409090909 1769 662.409090909 1769 471 c 2,33,-1
 1769 191 l 2,34,35
 1769 133.448979592 1769 133.448979592 1833.5 129.5 c 128,-1,36
 1898 125.551020408 1898 125.551020408 1898 78 c 0,37,38
 1898 23.4444444444 1898 23.4444444444 1837.5 10 c 0,39,40
 1792.5 0 1792.5 0 1712 0 c 2,41,-1
 1626 -1 l 1,42,43
 1495.11111111 -1 1495.11111111 -1 1464 39 c 0,44,45
 1450 57 1450 57 1450 82.5 c 128,-1,46
 1450 108 1450 108 1470 118 c 128,-1,47
 1490 128 1490 128 1514.5 129 c 128,-1,48
 1539 130 1539 130 1559 144.5 c 128,-1,49
 1579 159 1579 159 1579 191 c 2,50,-1
 1579 499 l 2,51,52
 1579 726.581395349 1579 726.581395349 1528.5 790 c 0,53,54
 1479.92592593 851 1479.92592593 851 1390.96296296 851 c 128,-1,55
 1302 851 1302 851 1236.5 827.5 c 128,-1,56
 1171 804 1171 804 1129 754.5 c 128,-1,57
 1087 705 1087 705 1087 638 c 2,58,-1
 1087 191 l 2,59,60
 1087 133.448979592 1087 133.448979592 1151.5 129.5 c 128,-1,61
 1216 125.551020408 1216 125.551020408 1216 78 c 0,62,63
 1216 23.4444444444 1216 23.4444444444 1155.5 10 c 0,64,65
 1110.5 0 1110.5 0 1030 0 c 2,66,-1
 944 -1 l 1,67,68
 813.111111111 -1 813.111111111 -1 782 39 c 0,69,70
 768 57 768 57 768 82.5 c 128,-1,71
 768 108 768 108 788 118 c 128,-1,72
 808 128 808 128 832.5 129 c 128,-1,73
 857 130 857 130 877 144.5 c 128,-1,74
 897 159 897 159 897 191 c 2,75,-1
 897 489 l 2,76,77
 897 677.285714286 897 677.285714286 864 748 c 0,78,79
 815.933333333 851 815.933333333 851 700 851 c 0,80,81
 556 851 556 851 479.5 778 c 128,-1,82
 403 705 403 705 403 570 c 2,83,-1
 403 191 l 2,84,85
 403 133.448979592 403 133.448979592 467.5 129.5 c 128,-1,86
 532 125.551020408 532 125.551020408 532 78 c 0,87,88
 532 23.4444444444 532 23.4444444444 471.5 10 c 0,89,90
 426.5 0 426.5 0 346 0 c 2,0,-1
EndSplineSet
EndChar

StartChar: n
Encoding: 80 110 79
Width: 1316
Flags: HMW
LayerCount: 2
Fore
SplineSet
345 0 m 2,0,-1
 259 -1 l 1,1,2
 128.111111111 -1 128.111111111 -1 97 39 c 0,3,4
 83 57 83 57 83 82.5 c 128,-1,5
 83 108 83 108 103 118 c 128,-1,6
 123 128 123 128 147.5 129 c 128,-1,7
 172 130 172 130 192 144.5 c 128,-1,8
 212 159 212 159 212 191 c 2,9,-1
 212 762 l 2,10,11
 212 820 212 820 140 832 c 0,12,13
 90.1085972445 840.121856263 90.1085972445 840.121856263 79.6260383168 849.46836504 c 128,-1,14
 69 858.94280359 69 858.94280359 69 883.471401795 c 128,-1,15
 69 908 69 908 103.5 928.5 c 0,16,17
 163.243902439 964 163.243902439 964 252.62195122 964 c 128,-1,18
 342 964 342 964 367.5 938.5 c 128,-1,19
 393 913 393 913 393 825 c 1,20,21
 530 980 530 980 770 980 c 0,22,23
 965 980 965 980 1046.5 873.5 c 128,-1,24
 1128 767 1128 767 1128 551 c 2,25,-1
 1128 191 l 2,26,27
 1128 133.448979592 1128 133.448979592 1192.5 129.5 c 128,-1,28
 1257 125.551020408 1257 125.551020408 1257 78 c 0,29,30
 1257 23.5625 1257 23.5625 1195 10 c 0,31,32
 1149.28571429 -1.42108547152e-14 1149.28571429 -1.42108547152e-14 1068 0 c 2,33,-1
 982 -1 l 1,34,35
 851.111111111 -1 851.111111111 -1 820 39 c 0,36,37
 806 57 806 57 806 82.5 c 128,-1,38
 806 108 806 108 826 118 c 128,-1,39
 846 128 846 128 870.5 129 c 128,-1,40
 895 130 895 130 915 144.5 c 128,-1,41
 935 159 935 159 935 191 c 2,42,-1
 935 482 l 2,43,44
 935 667.64 935 667.64 892 754.5 c 0,45,46
 844.227722772 851 844.227722772 851 699 851 c 0,47,48
 523.632653061 851 523.632653061 851 461 758 c 0,49,50
 402 670.393939394 402 670.393939394 402 477 c 2,51,-1
 402 191 l 2,52,53
 402 133.448979592 402 133.448979592 466.5 129.5 c 128,-1,54
 531 125.551020408 531 125.551020408 531 78 c 0,55,56
 531 23.4444444444 531 23.4444444444 470.5 10 c 0,57,58
 425.5 1.28785870857e-14 425.5 1.28785870857e-14 345 0 c 2,0,-1
EndSplineSet
EndChar

StartChar: o
Encoding: 81 111 80
Width: 1121
Flags: HMW
LayerCount: 2
Fore
SplineSet
534 -25 m 4,0,1
 308 -25 308 -25 170 117.5 c 128,-1,2
 32 260 32 260 32 479 c 0,3,4
 32 625 32 625 105 739 c 128,-1,5
 178 853 178 853 302.5 913.5 c 128,-1,6
 427 974 427 974 580 974 c 0,7,8
 800 974 800 974 943 837 c 128,-1,9
 1086 700 1086 700 1086 483 c 0,10,11
 1086 333 1086 333 1012.5 216.5 c 128,-1,12
 939 100 939 100 814 37.5 c 128,-1,13
 689 -25 689 -25 534 -25 c 4,0,1
807.5 187 m 128,-1,15
 891 288 891 288 891 456 c 132,-1,16
 891 624 891 624 795 746 c 128,-1,17
 699 868 699 868 548.5 868 c 128,-1,18
 398 868 398 868 317 765 c 128,-1,19
 236 662 236 662 236 495 c 128,-1,20
 236 328 236 328 331 207 c 128,-1,21
 426 86 426 86 575 86 c 128,-1,14
 724 86 724 86 807.5 187 c 128,-1,15
EndSplineSet
EndChar

StartChar: p
Encoding: 82 112 81
Width: 1180
Flags: HMW
LayerCount: 2
Fore
SplineSet
948 461 m 0,0,1
 948 692.496402878 948 692.496402878 813.5 797 c 0,2,3
 744 851 744 851 647 851 c 0,4,5
 360 851 360 851 360 528 c 2,6,-1
 360 199 l 1,7,8
 441 94 441 94 639 94 c 0,9,10
 783 94 783 94 865.5 197.5 c 128,-1,11
 948 301 948 301 948 461 c 0,0,1
303 -410 m 2,12,-1
 217 -411 l 1,13,14
 86.1111111111 -411 86.1111111111 -411 55 -371 c 0,15,16
 41 -353 41 -353 41 -327.5 c 128,-1,17
 41 -302 41 -302 61 -292 c 128,-1,18
 81 -282 81 -282 105.5 -281 c 128,-1,19
 130 -280 130 -280 150 -265.5 c 128,-1,20
 170 -251 170 -251 170 -219 c 2,21,-1
 170 683 l 2,22,23
 170 755 170 755 159.5 782.5 c 128,-1,24
 149 810 149 810 112 824 c 0,25,26
 108 826 108 826 71.5 834.5 c 0,27,28
 -3 851.849315068 -3 851.849315068 -3 884 c 0,29,30
 -3 962 -3 962 198 962 c 0,31,32
 283 962 283 962 317 942 c 128,-1,33
 351 922 351 922 351 856 c 0,34,35
 351 836 351 836 350 826 c 1,36,37
 427 901 427 901 505 940 c 128,-1,38
 583 979 583 979 704 979 c 128,-1,39
 825 979 825 979 930.5 911 c 128,-1,40
 1036 843 1036 843 1090 731.5 c 128,-1,41
 1144 620 1144 620 1144 483 c 0,42,43
 1144 266 1144 266 1002 125 c 128,-1,44
 860 -16 860 -16 641 -16 c 0,45,46
 518 -16 518 -16 360 65 c 1,47,-1
 360 -219 l 2,48,49
 360 -276.551020408 360 -276.551020408 424.5 -280.5 c 128,-1,50
 489 -284.448979592 489 -284.448979592 489 -332 c 0,51,52
 489 -386.555555556 489 -386.555555556 428.5 -400 c 0,53,54
 383.5 -410 383.5 -410 303 -410 c 2,12,-1
EndSplineSet
EndChar

StartChar: q
Encoding: 83 113 82
Width: 1207
Flags: HMW
LayerCount: 2
Fore
SplineSet
955 -410 m 2,0,-1
 869 -411 l 1,1,2
 738.111111111 -411 738.111111111 -411 707 -371 c 0,3,4
 693 -353 693 -353 693 -327.5 c 128,-1,5
 693 -302 693 -302 713 -292 c 128,-1,6
 733 -282 733 -282 757.5 -281 c 128,-1,7
 782 -280 782 -280 802 -265.5 c 128,-1,8
 822 -251 822 -251 822 -219 c 2,9,-1
 822 86 l 1,10,11
 628 -29 628 -29 482 -29 c 0,12,13
 286 -29 286 -29 157.5 107 c 128,-1,14
 29 243 29 243 29 458.5 c 128,-1,15
 29 674 29 674 175.5 824 c 128,-1,16
 322 974 322 974 548 974 c 0,17,18
 613 974 613 974 701 945 c 128,-1,19
 789 916 789 916 850 877 c 1,20,21
 862 964 862 964 971 964 c 0,22,23
 1190 964 1190 964 1190 868 c 0,24,25
 1190 843 1190 843 1142 831 c 0,26,27
 1055.41176471 809.352941176 1055.41176471 809.352941176 1033.70588235 773.176470588 c 128,-1,28
 1012 737 1012 737 1012 644 c 2,29,-1
 1012 -219 l 2,30,31
 1012 -276.551020408 1012 -276.551020408 1076.5 -280.5 c 128,-1,32
 1141 -284.448979592 1141 -284.448979592 1141 -332 c 0,33,34
 1141 -386.555555556 1141 -386.555555556 1080.5 -400 c 0,35,36
 1035.5 -410 1035.5 -410 955 -410 c 2,0,-1
227 485 m 0,37,38
 227 391 227 391 261.5 303.5 c 128,-1,39
 296 216 296 216 366 155.5 c 128,-1,40
 436 95 436 95 526 95 c 0,41,42
 724 95 724 95 822 215 c 1,43,-1
 822 728 l 2,44,45
 822 766 822 766 775.5 799 c 0,46,47
 681.090909091 866 681.090909091 866 561 866 c 0,48,49
 403 866 403 866 315 758 c 128,-1,50
 227 650 227 650 227 485 c 0,37,38
EndSplineSet
EndChar

StartChar: r
Encoding: 84 114 83
Width: 890
Flags: HMW
LayerCount: 2
Fore
SplineSet
348 0 m 2,0,-1
 262 -1 l 1,1,2
 131.111111111 -1 131.111111111 -1 100 39 c 0,3,4
 86 57 86 57 86 82.5 c 128,-1,5
 86 108 86 108 106 118 c 128,-1,6
 126 128 126 128 150.5 129 c 128,-1,7
 175 130 175 130 195 144.5 c 128,-1,8
 215 159 215 159 215 191 c 2,9,-1
 215 685 l 2,10,11
 215 774.387096774 215 774.387096774 193.5 795.193548387 c 128,-1,12
 172 816 172 816 157.5 822 c 128,-1,13
 143 828 143 828 112 837 c 128,-1,14
 81 846 81 846 61.5 855 c 128,-1,15
 42 864 42 864 42 882 c 0,16,17
 42 962 42 962 257 962 c 0,18,19
 348 962 348 962 372.5 930.5 c 128,-1,20
 397 899 397 899 397 785 c 1,21,22
 431 871 431 871 509.5 920 c 128,-1,23
 588 969 588 969 670.5 969 c 128,-1,24
 753 969 753 969 806.5 933.5 c 128,-1,25
 860 898 860 898 860 843.5 c 128,-1,26
 860 789 860 789 825 756.5 c 128,-1,27
 790 724 790 724 739 724 c 128,-1,28
 688 724 688 724 651.5 751 c 128,-1,29
 615 778 615 778 604 821 c 1,30,31
 578 825 578 825 561 825 c 0,32,33
 405 825 405 825 405 466 c 2,34,-1
 405 191 l 2,35,36
 405 133.448979592 405 133.448979592 469.5 129.5 c 128,-1,37
 534 125.551020408 534 125.551020408 534 78 c 0,38,39
 534 23.4444444444 534 23.4444444444 473.5 10 c 0,40,41
 428.5 0 428.5 0 348 0 c 2,0,-1
EndSplineSet
EndChar

StartChar: s
Encoding: 85 115 84
Width: 1028
Flags: HMW
LayerCount: 2
Back
SplineSet
505.5 -26.5 m 4,0,1
 444.258420568 -26.5 444.258420568 -26.5 383.536096098 -19.9320316761 c 0
 322.813771627 -13.3640633521 322.813771627 -13.3640633521 262.483488724 2.16923895452 c 0
 202.15320582 17.7025412612 202.15320582 17.7025412612 156.338497884 40.4805246926 c 0
 110.523789947 63.258508124 110.523789947 63.258508124 82.0118949736 98.6985407741 c 0
 53.5 134.138573424 53.5 134.138573424 53.5 177.5 c 0,2,3
 53.5 190.451951983 53.5 190.451951983 56.6456120278 202.55475377 c 0
 59.7912240557 214.657555558 59.7912240557 214.657555558 65.4895377397 224.695755154 c 0
 71.1878514237 234.73395475 71.1878514237 234.73395475 78.9916909293 243.426157742 c 0
 86.7955304349 252.118360735 86.7955304349 252.118360735 96.267903303 258.636349912 c 0
 105.740276171 265.154339089 105.740276171 265.154339089 116.267694127 269.803669601 c 0
 126.795112083 274.453000114 126.795112083 274.453000114 138.106895107 276.818505187 c 0
 149.418678132 279.18401026 149.418678132 279.18401026 160.745420038 279.18401026 c 0,4,5
 202.911793762 279.18401026 202.911793762 279.18401026 232.23384692 256.82597025 c 0
 261.555900079 234.46793024 261.555900079 234.46793024 261.555900079 190.187423586 c 0,6,7
 261.555900079 155.835400475 261.555900079 155.835400475 255.5 119.5 c 1,8,9
 365.48166054 92.5 365.48166054 92.5 490 92.5 c 128
EndSplineSet
Fore
SplineSet
506 91 m 0,0,1
 731 91 731 91 731 229 c 0,2,3
 731 333 731 333 528 392 c 0,4,5
 490 403 490 403 436.5 417.5 c 0,6,7
 334.927536232 445.028985507 334.927536232 445.028985507 300 459 c 0,8,9
 212 493 212 493 151 558 c 128,-1,10
 90 623 90 623 90 712 c 0,11,12
 90 827 90 827 199.5 903 c 128,-1,13
 309 979 309 979 464 979 c 0,14,15
 614.592592593 979 614.592592593 979 747 924 c 0,16,17
 812 897 812 897 852.5 849 c 128,-1,18
 893 801 893 801 893 749 c 128,-1,19
 893 697 893 697 851.5 666 c 128,-1,20
 810 635 810 635 765.5 635 c 128,-1,21
 721 635 721 635 706.5 643.5 c 128,-1,22
 692 652 692 652 692 683 c 0,23,24
 692 876 692 876 487 876 c 0,25,26
 402 876 402 876 339 838.5 c 128,-1,27
 276 801 276 801 276 741 c 0,28,29
 276 647.262295082 276 647.262295082 472.5 592.5 c 0,30,31
 503 584 503 584 547 572.5 c 128,-1,32
 591 561 591 561 628 549.5 c 128,-1,33
 665 538 665 538 705.5 522.5 c 128,-1,34
 746 507 746 507 791 482 c 128,-1,35
 836 457 836 457 864 428.5 c 0,36,37
 929 362.339285714 929 362.339285714 929 268.669642857 c 128,-1,38
 929 175 929 175 865.5 107 c 0,39,40
 741.301470588 -26 741.301470588 -26 506 -26 c 0,41,42
 353.215686275 -26 353.215686275 -26 223.5 24.5 c 0,43,44
 158 50 158 50 118 96 c 128,-1,45
 78 142 78 142 78 194 c 128,-1,46
 78 246 78 246 111 274.5 c 128,-1,47
 144 303 144 303 186 303 c 128,-1,48
 228 303 228 303 257.5 277 c 128,-1,49
 287 251 287 251 287 212.5 c 128,-1,50
 287 174 287 174 280 130 c 1,51,52
 386 91 386 91 506 91 c 0,0,1
EndSplineSet
EndChar

StartChar: t
Encoding: 86 116 85
Width: 739
Flags: HMW
LayerCount: 2
Fore
SplineSet
138 828 m 1,0,-1
 77 827 l 2,1,2
 40 827 40 827 23 834 c 128,-1,3
 6 841 6 841 6 863.5 c 128,-1,4
 6 886 6 886 25.5 904.5 c 128,-1,5
 45 923 45 923 70 933 c 0,6,7
 138.8 960.52 138.8 960.52 152.4 980.26 c 128,-1,8
 166 1000 166 1000 193 1066.5 c 0,9,10
 259.789473684 1231 259.789473684 1231 305 1231 c 0,11,12
 327.826086957 1231 327.826086957 1231 331.413043478 1181.5 c 128,-1,13
 335 1132 335 1132 335.5 1106 c 128,-1,14
 336 1080 336 1080 335 1028.5 c 128,-1,15
 334 977 334 977 334 957 c 1,16,-1
 572 956 l 2,17,18
 607 956 607 956 631 938.5 c 128,-1,19
 655 921 655 921 655 892 c 128,-1,20
 655 863 655 863 631.5 847 c 128,-1,21
 608 831 608 831 573 831 c 2,22,-1
 334 831 l 1,23,-1
 333 320 l 2,24,25
 333 103 333 103 442 103 c 0,26,27
 472 103 472 103 531 121.5 c 128,-1,28
 590 140 590 140 608 140 c 0,29,30
 649 140 649 140 649 93 c 0,31,32
 649 56 649 56 552.5 19 c 128,-1,33
 456 -18 456 -18 354.5 -18 c 128,-1,34
 253 -18 253 -18 195.5 61 c 128,-1,35
 138 140 138 140 138 269 c 2,36,-1
 138 828 l 1,0,-1
EndSplineSet
EndChar

StartChar: u
Encoding: 87 117 86
Width: 1261
Flags: HMW
LayerCount: 2
Fore
SplineSet
336 433 m 2,0,1
 336 295.75 336 295.75 358 239.375 c 128,-1,2
 380 183 380 183 408 159 c 0,3,4
 466.333333333 109 466.333333333 109 601.666666667 109 c 128,-1,5
 737 109 737 109 800 178.5 c 128,-1,6
 863 248 863 248 863 411 c 2,7,-1
 863 749 l 2,8,9
 863 823 863 823 790 828 c 1,10,11
 731.913669065 830.64028777 731.913669065 830.64028777 725.956834532 840.320143885 c 128,-1,12
 720 850 720 850 720 862 c 0,13,14
 720 912 720 912 778.5 938 c 128,-1,15
 837 964 837 964 917.5 964 c 128,-1,16
 998 964 998 964 1026.5 942 c 128,-1,17
 1055 920 1055 920 1055 838 c 2,18,-1
 1056 198 l 2,19,20
 1056 130 1056 130 1128 125 c 0,21,22
 1179.21998186 121.730639456 1179.21998186 121.730639456 1190.10999093 114.42938922 c 128,-1,23
 1201 107.128138984 1201 107.128138984 1201 79.5640694918 c 128,-1,24
 1201 52 1201 52 1167.5 29 c 0,25,26
 1109.23913043 -11 1109.23913043 -11 1014.61956522 -11 c 128,-1,27
 920 -11 920 -11 897.5 17.5 c 128,-1,28
 875 46 875 46 875 149 c 1,29,30
 754 -27 754 -27 505 -27 c 0,31,32
 308 -27 308 -27 225.5 79 c 128,-1,33
 143 185 143 185 143 406 c 2,34,-1
 143 749 l 2,35,36
 143 823 143 823 72 828 c 1,37,38
 12.8848920863 830.68705036 12.8848920863 830.68705036 6.94244604317 840.34352518 c 128,-1,39
 1 850 1 850 1 862 c 0,40,41
 1 912 1 912 59 938 c 128,-1,42
 117 964 117 964 197.5 964 c 128,-1,43
 278 964 278 964 307 942 c 128,-1,44
 336 920 336 920 336 838 c 2,45,-1
 336 433 l 2,0,1
EndSplineSet
EndChar

StartChar: v
Encoding: 88 118 87
Width: 1189
Flags: HMW
LayerCount: 2
Fore
SplineSet
186 961 m 0,0,1
 472 961 472 961 472 891 c 0,2,3
 472 863.212765957 472 863.212765957 408.5 847 c 128,-1,4
 345 830.787234043 345 830.787234043 345 804 c 0,5,6
 345 770 345 770 608 198 c 1,7,8
 868 779 868 779 868 799 c 128,-1,9
 868 819 868 819 848 830 c 128,-1,10
 828 841 828 841 804.5 847 c 0,11,12
 741 863.212765957 741 863.212765957 741 891 c 0,13,14
 741 924 741 924 813 942.5 c 128,-1,15
 885 961 885 961 948 961 c 128,-1,16
 1011 961 1011 961 1059.5 955.5 c 128,-1,17
 1108 950 1108 950 1152.5 933.5 c 128,-1,18
 1197 917 1197 917 1197 894 c 0,19,20
 1197 850 1197 850 1134 840.5 c 128,-1,21
 1071 831 1071 831 1048.5 817.5 c 128,-1,22
 1026 804 1026 804 1006 762 c 2,23,-1
 706 118 l 1,24,25
 659.614457831 15.9518072289 659.614457831 15.9518072289 648.807228916 5.97590361446 c 128,-1,26
 638 -4 638 -4 627.5 -12 c 0,27,28
 610.4375 -25 610.4375 -25 586.21875 -25 c 128,-1,29
 562 -25 562 -25 548.5 -19.5 c 128,-1,30
 535 -14 535 -14 527.5 -9 c 128,-1,31
 520 -4 520 -4 511 11.5 c 128,-1,32
 502 27 502 27 499.5 33.5 c 128,-1,33
 497 40 497 40 488 61 c 1,34,-1
 145 759 l 2,35,36
 122 806 122 806 104 818.5 c 128,-1,37
 86 831 86 831 21.5 840.5 c 128,-1,38
 -43 850 -43 850 -43 895 c 0,39,40
 -43 925 -43 925 40.5 943 c 128,-1,41
 124 961 124 961 186 961 c 0,0,1
EndSplineSet
EndChar

StartChar: w
Encoding: 89 119 88
Width: 1717
Flags: HMW
LayerCount: 2
Fore
SplineSet
1202 197 m 1,0,1
 1400.02631579 714.131578947 1400.02631579 714.131578947 1419 809 c 1,2,3
 1419 830.458333333 1419 830.458333333 1374.5 839.729166667 c 0,4,5
 1289 857.541666667 1289 857.541666667 1289 893 c 0,6,7
 1289 922 1289 922 1296 933 c 1,8,9
 1400 958 1400 958 1527 958 c 0,10,11
 1734 958 1734 958 1734 915 c 0,12,13
 1734 878 1734 878 1700 851 c 1,14,15
 1625 840 1625 840 1587 805.5 c 128,-1,16
 1549 771 1549 771 1524 705 c 2,17,-1
 1462 542 l 1,18,19
 1283 91 1283 91 1263 59 c 0,20,21
 1214 -24 1214 -24 1168 -24 c 0,22,23
 1131.09375 -24 1131.09375 -24 1087.5 69 c 0,24,25
 1080 85 1080 85 1079 88 c 2,26,-1
 850 593 l 1,27,28
 692 240 692 240 607 64 c 1,29,30
 586 13 586 13 563 -1.5 c 128,-1,31
 540 -16 540 -16 515.5 -16 c 128,-1,32
 491 -16 491 -16 483.5 -8.5 c 128,-1,33
 476 -1 476 -1 467 14.5 c 128,-1,34
 458 30 458 30 452 41 c 128,-1,35
 446 52 446 52 436 72.5 c 128,-1,36
 426 93 426 93 423 98 c 2,37,-1
 185 650 l 1,38,39
 122.333333333 806.666666667 122.333333333 806.666666667 97 832 c 1,40,-1
 97 831 l 1,41,42
 79 839 79 839 38 845.5 c 128,-1,43
 -3 852 -3 852 -24 865 c 128,-1,44
 -45 878 -45 878 -45 909 c 0,45,46
 -45 958 -45 958 229 958 c 0,47,48
 323 958 323 958 391.5 945 c 128,-1,49
 460 932 460 932 460 913 c 0,50,51
 460 880 460 880 447.5 869 c 128,-1,52
 435 858 435 858 402 849 c 0,53,54
 345 834 345 834 345 800 c 0,55,56
 345 750 345 750 440.5 502.5 c 128,-1,57
 536 255 536 255 563 200 c 1,58,59
 654 393 654 393 783 720 c 1,60,61
 750 802 750 802 724 822 c 2,62,-1
 683 855 l 2,63,64
 650 880.5 650 880.5 650 891 c 0,65,66
 650 943 650 943 847.5 943 c 128,-1,67
 1045 943 1045 943 1045 904 c 0,68,69
 1045 868.4 1045 868.4 999.5 864.5 c 128,-1,70
 954 860.6 954 860.6 954 834 c 128,-1,71
 954 807.25 954 807.25 961.5 786.625 c 128,-1,72
 969 766 969 766 977 746.5 c 128,-1,73
 985 727 985 727 999.5 687 c 0,74,75
 1035.82474227 586.793814433 1035.82474227 586.793814433 1161.5 292 c 2,76,-1
 1202 197 l 1,0,1
EndSplineSet
EndChar

StartChar: x
Encoding: 90 120 89
Width: 1274
Flags: HMW
LayerCount: 2
Fore
SplineSet
1183 80 m 0,0,1
 1183 -1 1183 -1 1016 -1 c 2,2,-1
 903 -1 l 2,3,4
 729 -1 729 -1 729 84 c 0,5,6
 729 107 729 107 752 117 c 128,-1,7
 775 127 775 127 798 133 c 128,-1,8
 821 139 821 139 821 150.5 c 0,9,10
 821 168.583333333 821 168.583333333 740.5 259.291666667 c 128,-1,11
 660 350 660 350 613 406 c 1,12,13
 613 404 613 404 561 350.5 c 128,-1,14
 509 297 509 297 442.5 226 c 128,-1,15
 376 155 376 155 376 148 c 128,-1,16
 376 141 376 141 435.5 131.5 c 128,-1,17
 495 122 495 122 495 83 c 0,18,19
 495 7.11538461538 495 7.11538461538 336 1 c 0,20,21
 310 0 310 0 270 0 c 2,22,-1
 261 0 l 2,23,24
 136.647058824 0 136.647058824 0 107.823529412 14 c 0,25,26
 52 41.1142857143 52 41.1142857143 52 88 c 0,27,28
 52 113 52 113 71.5 119 c 0,29,30
 78 121 78 121 106 127 c 128,-1,31
 134 133 134 133 164 146.5 c 0,32,33
 205.129707113 165.008368201 205.129707113 165.008368201 280.564853556 229.5041841 c 128,-1,34
 356 294 356 294 553 474 c 1,35,36
 465 594 465 594 353 720 c 0,37,38
 283.24137931 799.724137931 283.24137931 799.724137931 129 834 c 0,39,40
 91 842.444444444 91 842.444444444 91 862 c 0,41,42
 91 958 91 958 341 958 c 128,-1,43
 591 958 591 958 591 872 c 0,44,45
 591 836 591 836 514 822 c 0,46,47
 500 819 500 819 500 816 c 0,48,49
 500 791 500 791 534 748 c 2,50,-1
 582 687 l 1,51,52
 629 631 629 631 664 593 c 1,53,-1
 801 732 l 2,54,55
 848 779 848 779 848 795.5 c 128,-1,56
 848 812 848 812 831 820.5 c 128,-1,57
 814 829 814 829 793.5 832.5 c 0,58,59
 739 841.804878049 739 841.804878049 739 868.902439024 c 128,-1,60
 739 896 739 896 760.5 914.5 c 128,-1,61
 782 933 782 933 816.5 941.5 c 0,62,63
 883.470588235 958 883.470588235 958 947 958 c 0,64,65
 1173 958 1173 958 1173 870 c 0,66,67
 1173 827 1173 827 1123 827 c 0,68,69
 1089 827 1089 827 1040 805 c 128,-1,70
 991 783 991 783 960 752 c 2,71,-1
 725 516 l 1,72,-1
 963 238 l 1,73,74
 1000.31763767 197.437350359 1000.31763767 197.437350359 1069.15881883 166.21867518 c 128,-1,75
 1138 135 1138 135 1160.5 121.5 c 128,-1,76
 1183 108 1183 108 1183 80 c 0,0,1
EndSplineSet
EndChar

StartChar: y
Encoding: 91 121 90
Width: 1125
Flags: HMW
LayerCount: 2
Fore
SplineSet
590 205 m 1,0,1
 843 739.914285714 843 739.914285714 843 769.957142857 c 128,-1,2
 843 800 843 800 821 812 c 128,-1,3
 799 824 799 824 773 826.5 c 0,4,5
 703 833.230769231 703 833.230769231 703 867 c 0,6,7
 703 958 703 958 918 958 c 2,8,-1
 958 958 l 2,9,10
 1053.86363636 958 1053.86363636 958 1095.43181818 927 c 128,-1,11
 1137 896 1137 896 1137 869 c 128,-1,12
 1137 842 1137 842 1107 836 c 0,13,14
 1045 825 1045 825 1014.5 801.5 c 128,-1,15
 984 778 984 778 955 715 c 128,-1,16
 926 652 926 652 858 500 c 128,-1,17
 790 348 790 348 744 252 c 2,18,-1
 529 -190 l 2,19,20
 495 -262 495 -262 441.5 -309.5 c 128,-1,21
 388 -357 388 -357 315 -357 c 128,-1,22
 242 -357 242 -357 187.5 -320.5 c 128,-1,23
 133 -284 133 -284 133 -226.5 c 128,-1,24
 133 -169 133 -169 167.5 -135.5 c 128,-1,25
 202 -102 202 -102 254 -102 c 128,-1,26
 306 -102 306 -102 347.5 -128 c 128,-1,27
 389 -154 389 -154 391 -192 c 1,28,29
 471 -65 471 -65 498 6 c 1,30,31
 456 122 456 122 306.5 412.5 c 128,-1,32
 157 703 157 703 141 736.5 c 128,-1,33
 125 770 125 770 113.5 783 c 128,-1,34
 102 796 102 796 84 805 c 128,-1,35
 66 814 66 814 54 818 c 128,-1,36
 42 822 42 822 15 829 c 128,-1,37
 -12 836 -12 836 -28.5 841 c 128,-1,38
 -45 846 -45 846 -45 872 c 0,39,40
 -45 958 -45 958 191 958 c 0,41,42
 335.666666667 958 335.666666667 958 377.333333333 943 c 0,43,44
 456 914.68 456 914.68 456 869 c 0,45,46
 456 838.4 456 838.4 396.5 826.5 c 128,-1,47
 337 814.6 337 814.6 337 783 c 0,48,49
 337 779 337 779 372 688 c 0,50,51
 486.61038961 390.012987013 486.61038961 390.012987013 590 205 c 1,0,1
EndSplineSet
EndChar

StartChar: z
Encoding: 92 122 91
Width: 1059
Flags: HMW
LayerCount: 2
Fore
SplineSet
887 322 m 0,0,1
 985 322 985 322 985 249 c 0,2,3
 985 227 985 227 978 206 c 2,4,-1
 967 175 l 1,5,6
 918.376811594 43.431372549 918.376811594 43.431372549 883 19.5 c 0,7,8
 840.869565217 -9 840.869565217 -9 773 -9 c 1,9,-1
 689 -5 l 1,10,-1
 681 -5 l 1,11,-1
 514 2 l 1,12,-1
 162 0 l 2,13,14
 89 0 89 0 89 54 c 0,15,16
 89 102.4 89 102.4 302 358 c 0,17,18
 320 380 320 380 475 566 c 1,19,-1
 534 636 l 2,20,21
 556 663 556 663 605 721 c 0,22,23
 689.887323944 821.478873239 689.887323944 821.478873239 701 840 c 1,24,25
 674 844 674 844 633 844 c 2,26,-1
 444 842 l 1,27,-1
 414 842 l 1,28,-1
 380 841 l 1,29,-1
 319 844 l 1,30,-1
 319 846 l 1,31,32
 242 651 242 651 162 651 c 0,33,34
 127 651 127 651 104.5 669 c 128,-1,35
 82 687 82 687 82 720 c 0,36,37
 82 804 82 804 129 881 c 128,-1,38
 176 958 176 958 239 958 c 2,39,-1
 928 958 l 1,40,41
 967 946 967 946 967 905 c 0,42,43
 967 853 967 853 612 440 c 0,44,45
 599 425 599 425 514 326 c 2,46,-1
 469 274 l 2,47,48
 455 257 455 257 426 226 c 0,49,50
 366.033898305 161.898305085 366.033898305 161.898305085 344 128 c 1,51,52
 381 118 381 118 443 118 c 2,53,-1
 557 118 l 2,54,55
 671 118 671 118 753 126 c 1,56,-1
 753 125 l 1,57,58
 767 138 767 138 789 189.5 c 128,-1,59
 811 241 811 241 835.5 281.5 c 128,-1,60
 860 322 860 322 887 322 c 0,0,1
EndSplineSet
EndChar

StartChar: braceleft
Encoding: 93 123 92
Width: 613
Flags: HMW
LayerCount: 2
Fore
SplineSet
3 781 m 1,0,1
 108 785 108 785 148 850 c 128,-1,2
 188 915 188 915 188 1047 c 1,3,-1
 187 1131 l 1,4,5
 187 1318 187 1318 252.5 1434 c 0,6,7
 318 1550 318 1550 415 1550 c 0,8,9
 543 1550 543 1550 656 1474 c 1,10,-1
 628 1394 l 1,11,12
 559 1409 559 1409 511.5 1409 c 0,13,14
 464 1409 464 1409 441.5 1382 c 128,-1,15
 419 1355 419 1355 404.5 1297.5 c 0,16,17
 390 1240 390 1240 379 1073 c 128,-1,18
 368 906 368 906 346 837 c 0,19,20
 311.5 730.5 311.5 730.5 229 729 c 1,21,22
 345 726 345 726 369 512 c 0,23,24
 371 496 371 496 381 356.5 c 128,-1,25
 391 217 391 217 406 156 c 0,26,27
 433 50 433 50 500 50 c 0,28,29
 550 50 550 50 628 64 c 1,30,-1
 656 -16 l 1,31,32
 540 -92 540 -92 415 -92 c 0,33,34
 318 -92 318 -92 252.5 24 c 0,35,36
 187 140 187 140 187 327 c 1,37,-1
 188 410 l 1,38,39
 188 532 188 532 164 580 c 0,40,41
 116 674 116 674 3 677 c 1,42,-1
 3 781 l 1,0,1
EndSplineSet
EndChar

StartChar: bar
Encoding: 94 124 93
Width: 437
Flags: HMW
LayerCount: 2
Fore
SplineSet
158 1440 m 2,0,1
 158 1486 158 1486 174.5 1518 c 128,-1,2
 191 1550 191 1550 223 1550 c 0,3,4
 281 1550 281 1550 281 1440 c 2,5,-1
 281 8 l 2,6,7
 281 -32 281 -32 265 -60 c 128,-1,8
 249 -88 249 -88 218.5 -88 c 0,9,10
 188 -88 188 -88 172.5 -60 c 128,-1,11
 157 -32 157 -32 157 8 c 2,12,-1
 158 1440 l 2,0,1
EndSplineSet
EndChar

StartChar: braceright
Encoding: 95 125 94
Width: 622
Flags: HMW
LayerCount: 2
Fore
SplineSet
435 1131 m 1,0,-1
 434 1047 l 1,1,2
 434 926 434 926 458 878 c 0,3,4
 506 784 506 784 619 781 c 1,5,-1
 619 677 l 1,6,7
 457 673 457 673 439 505 c 0,8,9
 434 453 434 453 434 410 c 2,10,-1
 435 327 l 1,11,12
 435 140 435 140 369.5 24 c 0,13,14
 304 -92 304 -92 207 -92 c 0,15,16
 82 -92 82 -92 -34 -16 c 1,17,-1
 -6 64 l 1,18,19
 72 50 72 50 115.5 50 c 0,20,21
 159 50 159 50 181 78 c 128,-1,22
 203 106 203 106 217.5 163 c 0,23,24
 232 220 232 220 243 386 c 128,-1,25
 254 552 254 552 276 621 c 0,26,27
 310.5 727.5 310.5 727.5 393 729 c 1,28,29
 277 732 277 732 253 946 c 0,30,31
 251 963 251 963 241 1103 c 128,-1,32
 231 1243 231 1243 216 1304 c 0,33,34
 189 1409 189 1409 122 1409 c 0,35,36
 63 1409 63 1409 -6 1394 c 1,37,-1
 -34 1474 l 1,38,39
 79 1550 79 1550 207 1550 c 0,40,41
 304 1550 304 1550 369.5 1434 c 0,42,43
 435 1318 435 1318 435 1131 c 1,0,-1
EndSplineSet
EndChar

StartChar: asciitilde
Encoding: 96 126 95
Width: 1021
Flags: HMW
LayerCount: 2
Fore
SplineSet
791 1278 m 0,0,1
 818 1278 818 1278 865.5 1303 c 128,-1,2
 913 1328 913 1328 919 1329 c 1,3,-1
 941 1321 l 1,4,5
 878 1196.5 878 1196.5 740 1150 c 0,6,7
 699 1136 699 1136 668 1136 c 128,-1,8
 637 1136 637 1136 625 1137 c 128,-1,9
 613 1138 613 1138 603.5 1139 c 128,-1,10
 594 1140 594 1140 581 1142.5 c 128,-1,11
 568 1145 568 1145 560.5 1146.5 c 128,-1,12
 553 1148 553 1148 539 1152 c 128,-1,13
 525 1156 525 1156 519.5 1157.5 c 128,-1,14
 514 1159 514 1159 498.5 1164.5 c 128,-1,15
 483 1170 483 1170 479.5 1171 c 128,-1,16
 476 1172 476 1172 459.5 1178 c 128,-1,17
 443 1184 443 1184 440.5 1184.5 c 128,-1,18
 438 1185 438 1185 418.5 1192 c 128,-1,19
 399 1199 399 1199 390.5 1202 c 128,-1,20
 382 1205 382 1205 363.5 1211 c 128,-1,21
 345 1217 345 1217 333.5 1220 c 128,-1,22
 322 1223 322 1223 306 1226.5 c 0,23,24
 276.285714286 1233 276.285714286 1233 246.142857143 1233 c 0,25,26
 201.923076923 1233 201.923076923 1233 162.961538462 1209.5 c 128,-1,27
 124 1186 124 1186 103 1183 c 1,28,-1
 82 1191 l 1,29,30
 139 1315 139 1315 262 1361 c 0,31,32
 301 1376 301 1376 333.5 1376 c 128,-1,33
 366 1376 366 1376 381.5 1374.5 c 128,-1,34
 397 1373 397 1373 408.5 1371.5 c 128,-1,35
 420 1370 420 1370 438 1365.5 c 128,-1,36
 456 1361 456 1361 464.5 1359.5 c 128,-1,37
 473 1358 473 1358 493.5 1351.5 c 128,-1,38
 514 1345 514 1345 518 1343.5 c 0,39,40
 562 1327 562 1327 568 1327 c 1,41,42
 715 1278 715 1278 791 1278 c 0,0,1
EndSplineSet
EndChar

StartChar: exclamdown
Encoding: 98 161 97
Width: 517
Flags: HMW
LayerCount: 2
Fore
SplineSet
262 -18 m 256,0,1
 186 -18 186 -18 152 22 c 128,-1,2
 118 62 118 62 118 141 c 0,3,4
 118 159 118 159 123 212 c 1,5,-1
 200 879 l 2,6,7
 207.706199607 949.640163062 207.706199607 949.640163062 220.1406822 971.01762471 c 128,-1,8
 232.575164793 992.395086357 232.575164793 992.395086357 255.287582396 992.697543179 c 128,-1,9
 278 993 278 993 289.5 985 c 128,-1,10
 301 977 301 977 308 958 c 0,11,12
 324 914.571428571 324 914.571428571 324 879 c 1,13,-1
 401 212 l 1,14,15
 406 159 406 159 406 141 c 0,16,17
 406 62 406 62 372 22 c 128,-1,18
 338 -18 338 -18 262 -18 c 256,0,1
240 1534 m 0,19,20
 412 1534 412 1534 412 1386 c 0,21,22
 412 1327 412 1327 372 1288 c 128,-1,23
 332 1249 332 1249 264.5 1249 c 128,-1,24
 197 1249 197 1249 150.5 1286 c 128,-1,25
 104 1323 104 1323 104 1387.5 c 128,-1,26
 104 1452 104 1452 144 1493 c 128,-1,27
 184 1534 184 1534 240 1534 c 0,19,20
EndSplineSet
EndChar

StartChar: cent
Encoding: 99 162 98
Width: 1090
Flags: HMW
LayerCount: 2
Fore
SplineSet
1033 1008 m 0,0,1
 1067 962 1067 962 1067 901 c 128,-1,2
 1067 840 1067 840 1025.5 810.5 c 128,-1,3
 984 781 984 781 934 781 c 128,-1,4
 884 781 884 781 862 790 c 1,5,6
 857 1023 857 1023 699 1050 c 1,7,-1
 602 214 l 1,8,9
 630 210 630 210 667 210 c 0,10,11
 787 210 787 210 942 281 c 0,12,13
 996 306 996 306 1019 306 c 0,14,15
 1061 306 1061 306 1061 267 c 0,16,17
 1061 246 1061 246 1046 226 c 1,18,19
 886 74 886 74 589 74 c 2,20,-1
 586 74 l 1,21,-1
 553 -210 l 1,22,23
 548.454545455 -260 548.454545455 -260 506 -260 c 0,24,25
 490 -260 490 -260 476 -246.5 c 128,-1,26
 462 -233 462 -233 462 -216.5 c 128,-1,27
 462 -200 462 -200 463 -197 c 2,28,-1
 494 80 l 1,29,30
 289 105 289 105 162.5 238.5 c 128,-1,31
 36 372 36 372 36 596 c 128,-1,32
 36 820 36 820 203 981.5 c 128,-1,33
 370 1143 370 1143 617 1156 c 1,34,-1
 646 1407 l 2,35,36
 648 1428 648 1428 660.5 1442 c 128,-1,37
 673 1456 673 1456 692.5 1456 c 128,-1,38
 712 1456 712 1456 724.5 1440 c 128,-1,39
 737 1424 737 1424 737 1402 c 128,-1,40
 737 1380 737 1380 711 1155 c 1,41,42
 940 1136 940 1136 1033 1008 c 0,0,1
605 1052 m 1,43,44
 447 1038 447 1038 345 928 c 128,-1,45
 243 818 243 818 243 658.5 c 128,-1,46
 243 499 243 499 318 389 c 128,-1,47
 393 279 393 279 512 236 c 1,48,-1
 605 1052 l 1,43,44
EndSplineSet
EndChar

StartChar: sterling
Encoding: 100 163 99
Width: 1322
Flags: HMW
LayerCount: 2
Fore
SplineSet
1007.5 1430.5 m 0,0,1
 1217 1366.46415094 1217 1366.46415094 1217 1218.5 c 0,2,3
 1217 1165 1217 1165 1181.5 1130 c 128,-1,4
 1146 1095 1146 1095 1081 1095 c 0,5,6
 1059.11764706 1095 1059.11764706 1095 1040 1127.5 c 0,7,8
 1035 1136 1035 1136 1032.5 1140 c 128,-1,9
 1030 1144 1030 1144 1025.5 1153.5 c 0,10,11
 981.876712329 1245.59360731 981.876712329 1245.59360731 930 1295 c 0,12,13
 857 1365 857 1365 743 1365 c 0,14,15
 496 1365 496 1365 449 1166 c 0,16,17
 436 1113 436 1113 436 1021 c 1,18,-1
 438 844 l 1,19,-1
 822 844 l 2,20,21
 934 844 934 844 960 822 c 0,22,23
 972 812 972 812 972 786 c 0,24,25
 972 738 972 738 934.5 722 c 128,-1,26
 897 706 897 706 828 706 c 2,27,-1
 422 706 l 1,28,-1
 422 167 l 2,29,30
 422 122 422 122 515 122 c 0,31,32
 719 122 719 122 879 137.5 c 128,-1,33
 1039 153 1039 153 1059 166 c 1,34,35
 1073 182 1073 182 1094 228 c 128,-1,36
 1115 274 1115 274 1118 279 c 0,37,38
 1160 356 1160 356 1218 356 c 0,39,40
 1288 356 1288 356 1288 259 c 128,-1,41
 1288 162 1288 162 1217 79 c 128,-1,42
 1146 -4 1146 -4 1052 -4 c 2,43,-1
 311 0 l 2,44,45
 155 0 155 0 114 10 c 0,46,47
 29 30 29 30 29 84 c 0,48,49
 29 104.555555556 29 104.555555556 42 111.777777778 c 128,-1,50
 55 119 55 119 61 121.5 c 128,-1,51
 67 124 67 124 99 132 c 1,52,53
 173 154 173 154 190 197 c 1,54,55
 203 253 203 253 203 312 c 2,56,-1
 202 708 l 1,57,58
 20 714 20 714 20 782 c 0,59,60
 20 818 20 818 73.5 831.5 c 128,-1,61
 127 845 127 845 213 848 c 1,62,-1
 213 925 l 2,63,64
 213 1181 213 1181 344.5 1326 c 128,-1,65
 476 1471 476 1471 721 1471 c 0,66,67
 875 1471 875 1471 1007.5 1430.5 c 0,0,1
EndSplineSet
EndChar

StartChar: currency
Encoding: 101 164 100
Width: 915
Flags: HMW
LayerCount: 2
Fore
SplineSet
102 1173 m 128,-1,1
 102 1188 102 1188 111.5 1198 c 128,-1,2
 121 1208 121 1208 136.5 1208 c 128,-1,3
 152 1208 152 1208 166 1194 c 2,4,-1
 338 1022 l 1,5,6
 396 1048 396 1048 461 1048 c 128,-1,7
 526 1048 526 1048 577 1025 c 1,8,-1
 746 1194 l 2,9,10
 760 1208 760 1208 775 1208 c 128,-1,11
 790 1208 790 1208 799.5 1197.5 c 128,-1,12
 809 1187 809 1187 809 1172 c 128,-1,13
 809 1157 809 1157 795 1143 c 2,14,-1
 638 986 l 1,15,16
 695 933.5 695 933.5 695 854 c 256,17,18
 695 774.5 695 774.5 638 722 c 1,19,-1
 797 563 l 1,20,21
 808 549 808 549 808 534 c 128,-1,22
 808 519 808 519 799.5 508.5 c 128,-1,23
 791 498 791 498 776 498 c 128,-1,24
 761 498 761 498 747 512 c 2,25,-1
 577 681 l 1,26,27
 525 658 525 658 456.5 658 c 128,-1,28
 388 658 388 658 334 681 c 1,29,-1
 165 512 l 2,30,31
 151 498 151 498 136 498 c 128,-1,32
 121 498 121 498 111 508.5 c 128,-1,33
 101 519 101 519 101 534 c 128,-1,34
 101 549 101 549 115 563 c 2,35,-1
 274 722 l 1,36,37
 222 774 222 774 222 850 c 128,-1,38
 222 926 222 926 279 981 c 1,39,-1
 117 1143 l 2,40,0
 102 1158 102 1158 102 1173 c 128,-1,1
358.5 944 m 128,-1,42
 320 909 320 909 320 854 c 128,-1,43
 320 799 320 799 355 763 c 128,-1,44
 390 727 390 727 452 727 c 128,-1,45
 514 727 514 727 555 760 c 128,-1,46
 596 793 596 793 596 854 c 128,-1,47
 596 915 596 915 558 947 c 128,-1,48
 520 979 520 979 458.5 979 c 128,-1,41
 397 979 397 979 358.5 944 c 128,-1,42
EndSplineSet
EndChar

StartChar: yen
Encoding: 102 165 101
Width: 1367
Flags: HMW
LayerCount: 2
Fore
SplineSet
494 1186 m 0,0,1
 494 1156.7 494 1156.7 367 1144 c 1,2,3
 374 1141 374 1141 420.5 1076 c 128,-1,4
 467 1011 467 1011 524 934.5 c 0,5,6
 632.217391304 789.260869565 632.217391304 789.260869565 715 671 c 1,7,8
 767 740 767 740 871 874.5 c 128,-1,9
 975 1009 975 1009 1027 1078 c 1,10,-1
 1027 1077 l 1,11,12
 1032 1084 1032 1084 1052 1107.5 c 128,-1,13
 1072 1131 1072 1131 1078 1144 c 1,14,15
 1012 1144 1012 1144 980.5 1159 c 128,-1,16
 949 1174 949 1174 949 1186 c 0,17,18
 949 1250 949 1250 1042 1280 c 0,19,20
 1107 1300 1107 1300 1152 1300 c 0,21,22
 1293 1300 1293 1300 1350.5 1273.5 c 128,-1,23
 1408 1247 1408 1247 1408 1215 c 128,-1,24
 1408 1183 1408 1183 1380.5 1165 c 128,-1,25
 1353 1147 1353 1147 1308 1136.5 c 128,-1,26
 1263 1126 1263 1126 1248 1117 c 1,27,-1
 878 636 l 1,28,-1
 1069 636 l 2,29,30
 1095 636 1095 636 1114 617.5 c 128,-1,31
 1133 599 1133 599 1133 573.5 c 128,-1,32
 1133 548 1133 548 1113.5 528.5 c 128,-1,33
 1094 509 1094 509 1069 509 c 2,34,-1
 785 509 l 1,35,-1
 785 426 l 1,36,-1
 1069 426 l 2,37,38
 1095 426 1095 426 1114 407.5 c 128,-1,39
 1133 389 1133 389 1133 363 c 256,40,41
 1133 338 1133 338 1113.5 318.5 c 128,-1,42
 1094 299 1094 299 1069 299 c 2,43,-1
 785 299 l 1,44,-1
 785 165 l 2,45,46
 785 141.558823529 785 141.558823529 840 134.279411765 c 128,-1,47
 895 127 895 127 898 126 c 0,48,49
 938 116 938 116 938 90 c 0,50,51
 938 -1 938 -1 753 -1 c 1,52,-1
 676 1 l 257,53,-1
 602 0 l 1,54,55
 414 0 414 0 414 90 c 0,56,57
 414 126 414 126 519 136.5 c 0,58,59
 572 141.8 572 141.8 572 165 c 2,60,-1
 572 299 l 1,61,-1
 300 299 l 2,62,63
 274 299 274 299 255 318 c 128,-1,64
 236 337 236 337 236 362.5 c 128,-1,65
 236 388 236 388 255 407 c 128,-1,66
 274 426 274 426 300 426 c 2,67,-1
 572 426 l 1,68,-1
 572 509 l 1,69,-1
 300 509 l 2,70,71
 274 509 274 509 255 528 c 128,-1,72
 236 547 236 547 236 572.5 c 128,-1,73
 236 598 236 598 255 617 c 128,-1,74
 274 636 274 636 300 636 c 2,75,-1
 482 636 l 1,76,77
 456 670 456 670 325 846.5 c 128,-1,78
 194 1023 194 1023 121 1117 c 0,79,80
 102 1141 102 1141 45.2395384519 1148.37429987 c 128,-1,81
 -11.5209230963 1155.74859974 -11.5209230963 1155.74859974 -29.7604615481 1166.38436331 c 128,-1,82
 -48 1177.02012687 -48 1177.02012687 -48 1208 c 0,83,84
 -48 1300 -48 1300 188 1300 c 2,85,-1
 248 1300 l 2,86,87
 494 1300 494 1300 494 1186 c 0,0,1
EndSplineSet
EndChar

StartChar: brokenbar
Encoding: 103 166 102
Width: 431
Flags: HMW
LayerCount: 2
Fore
SplineSet
155 1440 m 2,0,1
 155 1481 155 1481 172 1510.5 c 128,-1,2
 189 1540 189 1540 220 1540 c 0,3,4
 278 1540 278 1540 278 1440 c 2,5,-1
 278 944 l 2,6,7
 278 908 278 908 261 883 c 128,-1,8
 244 858 244 858 214.5 858 c 0,9,10
 185 858 185 858 169.5 882.5 c 128,-1,11
 154 907 154 907 154 944 c 2,12,-1
 155 1440 l 2,0,1
155 560 m 2,13,14
 155 601 155 601 172 630.5 c 128,-1,15
 189 660 189 660 220 660 c 0,16,17
 278 660 278 660 278 560 c 2,18,-1
 278 4 l 2,19,20
 278 -32 278 -32 261 -57 c 128,-1,21
 244 -82 244 -82 214.5 -82 c 0,22,23
 185 -82 185 -82 169.5 -57.5 c 128,-1,24
 154 -33 154 -33 154 4 c 2,25,-1
 155 560 l 2,13,14
EndSplineSet
EndChar

StartChar: section
Encoding: 104 167 103
Width: 1040
Flags: HMW
LayerCount: 2
Fore
SplineSet
854 1084 m 0,0,1
 813.5 1063 813.5 1063 776.25 1063 c 128,-1,2
 739 1063 739 1063 724.5 1071.5 c 128,-1,3
 710 1080 710 1080 710 1111 c 0,4,5
 710 1304 710 1304 505 1304 c 0,6,7
 420 1304 420 1304 357 1266.5 c 128,-1,8
 294 1229 294 1229 294 1165.5 c 128,-1,9
 294 1102 294 1102 396 1057 c 0,10,11
 437 1039 437 1039 607 987.5 c 128,-1,12
 777 936 777 936 845 886 c 0,13,14
 947 811 947 811 947 694 c 0,15,16
 947 541 947 541 784 460 c 1,17,18
 927 382 927 382 927 242 c 0,19,20
 927 63.5 927 63.5 702 -1 c 0,21,22
 620 -25 620 -25 553 -25 c 0,23,24
 394 -25 394 -25 273 32 c 0,25,26
 211 61 211 61 167.5 109 c 128,-1,27
 124 157 124 157 124 213.5 c 128,-1,28
 124 270 124 270 180 298 c 0,29,30
 220 319 220 319 258 319 c 128,-1,31
 296 319 296 319 310.5 310.5 c 128,-1,32
 325 302 325 302 325 271 c 0,33,34
 325 78 325 78 530 78 c 0,35,36
 615 78 615 78 678 115.5 c 128,-1,37
 741 153 741 153 741 216.5 c 128,-1,38
 741 280 741 280 639 325 c 0,39,40
 598 343 598 343 428 394.5 c 128,-1,41
 258 446 258 446 190 496 c 0,42,43
 88 571 88 571 88 688 c 0,44,45
 88 843 88 843 250 921 c 1,46,47
 108 999 108 999 108 1140 c 0,48,49
 108 1318.5 108 1318.5 333 1383 c 0,50,51
 416 1407 416 1407 482 1407 c 0,52,53
 641 1407 641 1407 762 1350 c 0,54,55
 824 1321 824 1321 867.5 1273 c 128,-1,56
 911 1225 911 1225 911 1168.75 c 128,-1,57
 911 1112.5 911 1112.5 854 1084 c 0,0,1
612 526 m 1,58,59
 749 548 749 548 749 664 c 0,60,61
 749 752.661290323 749 752.661290323 593 805.5 c 0,62,63
 539.899053628 823.485804416 539.899053628 823.485804416 488.449526814 837.742902208 c 128,-1,64
 437 852 437 852 423 856 c 1,65,66
 286 829 286 829 286 723 c 128,-1,67
 286 617 286 617 492 560 c 0,68,69
 598 530 598 530 612 526 c 1,58,59
EndSplineSet
EndChar

StartChar: dieresis
Encoding: 105 168 104
Width: 1015
Flags: HMW
LayerCount: 2
Fore
SplineSet
786 1366 m 256,0,1
 736 1366 736 1366 701.5 1400 c 128,-1,2
 667 1434 667 1434 667 1475.5 c 0,3,4
 667 1517 667 1517 700.5 1552 c 128,-1,5
 734 1587 734 1587 783.5 1587 c 0,6,7
 833 1587 833 1587 870.5 1557 c 128,-1,8
 908 1527 908 1527 908 1478.5 c 0,9,10
 908 1430 908 1430 871 1398 c 128,-1,11
 834 1366 834 1366 786 1366 c 256,0,1
356 1476 m 256,12,13
 356 1434 356 1434 322 1400 c 128,-1,14
 288 1366 288 1366 239.5 1366 c 0,15,16
 191 1366 191 1366 153 1396.5 c 128,-1,17
 115 1427 115 1427 115 1472 c 0,18,19
 115 1517 115 1517 149.5 1552 c 128,-1,20
 184 1587 184 1587 233 1587 c 0,21,22
 282 1587 282 1587 319 1556.5 c 128,-1,23
 356 1526 356 1526 356 1476 c 256,12,13
EndSplineSet
EndChar

StartChar: copyright
Encoding: 106 169 105
Width: 1639
Flags: HMW
LayerCount: 2
Fore
SplineSet
869 1085 m 0,0,1
 758 1085 758 1085 698.5 991.5 c 128,-1,2
 639 898 639 898 639 785.5 c 128,-1,3
 639 673 639 673 671 591.5 c 128,-1,4
 703 510 703 510 769 458.5 c 128,-1,5
 835 407 835 407 911.5 407 c 128,-1,6
 988 407 988 407 1041 430.5 c 128,-1,7
 1094 454 1094 454 1115 464.5 c 128,-1,8
 1136 475 1136 475 1149.5 475 c 128,-1,9
 1163 475 1163 475 1163 440 c 128,-1,10
 1163 405 1163 405 1133.5 369.5 c 0,11,12
 1036.69014085 253 1036.69014085 253 856 253 c 0,13,14
 636 253 636 253 514 389.5 c 128,-1,15
 392 526 392 526 392 712.5 c 128,-1,16
 392 899 392 899 515 1032 c 128,-1,17
 638 1165 638 1165 864 1165 c 0,18,19
 989 1165 989 1165 1082.5 1096 c 128,-1,20
 1176 1027 1176 1027 1176 917 c 0,21,22
 1176 893 1176 893 1153.5 876 c 128,-1,23
 1131 859 1131 859 1097 859 c 128,-1,24
 1063 859 1063 859 1038.5 885.5 c 128,-1,25
 1014 912 1014 912 994 962.5 c 128,-1,26
 974 1013 974 1013 966 1026 c 0,27,28
 930 1085 930 1085 869 1085 c 0,0,1
865 1403 m 0,29,30
 1009 1403 1009 1403 1143.5 1348 c 128,-1,31
 1278 1293 1278 1293 1372.5 1209 c 128,-1,32
 1467 1125 1467 1125 1530 998.5 c 128,-1,33
 1593 872 1593 872 1593 738.5 c 128,-1,34
 1593 605 1593 605 1565.5 512 c 128,-1,35
 1538 419 1538 419 1482 334 c 0,36,37
 1380 180 1380 180 1203.5 82 c 128,-1,38
 1027 -16 1027 -16 813 -16 c 128,-1,39
 599 -16 599 -16 425.5 79 c 128,-1,40
 252 174 252 174 149 329.75 c 128,-1,41
 46 485.5 46 485.5 46 688.25 c 128,-1,42
 46 891 46 891 159 1054.5 c 128,-1,43
 272 1218 272 1218 451 1310.5 c 128,-1,44
 630 1403 630 1403 865 1403 c 0,29,30
366 252 m 128,-1,46
 541 80 541 80 813 80 c 128,-1,47
 1085 80 1085 80 1264 257.5 c 128,-1,48
 1443 435 1443 435 1443 698 c 128,-1,49
 1443 961 1443 961 1271.5 1132.5 c 128,-1,50
 1100 1304 1100 1304 829 1304 c 128,-1,51
 558 1304 558 1304 374.5 1126.5 c 128,-1,52
 191 949 191 949 191 686.5 c 128,-1,45
 191 424 191 424 366 252 c 128,-1,46
EndSplineSet
EndChar

StartChar: ordfeminine
Encoding: 107 170 106
Width: 985
Flags: HMW
LayerCount: 2
Fore
SplineSet
723.5 1287 m 128,-1,1
 799 1212 799 1212 799 1043 c 2,2,-1
 799 926 l 1,3,-1
 797 838 l 1,4,5
 797 720 797 720 818 699 c 0,6,7
 827 690 827 690 858 682 c 0,8,9
 939 661.096774194 939 661.096774194 939 640 c 0,10,11
 939 548 939 548 757 548 c 0,12,13
 694 548 694 548 670.75 573 c 128,-1,14
 647.5 598 647.5 598 643 664 c 1,15,16
 554 536 554 536 370.5 536 c 128,-1,17
 187 536 187 536 118 658 c 0,18,19
 94 700 94 700 94 752.5 c 128,-1,20
 94 805 94 805 106 837.5 c 128,-1,21
 118 870 118 870 135.5 892 c 128,-1,22
 153 914 153 914 184 932 c 128,-1,23
 215 950 215 950 242 960 c 128,-1,24
 269 970 269 970 312 979 c 128,-1,25
 355 988 355 988 384.5 992 c 128,-1,26
 414 996 414 996 461 1002 c 128,-1,27
 508 1008 508 1008 548 1014.5 c 128,-1,28
 588 1021 588 1021 628 1041 c 1,29,30
 628 1152 628 1152 610 1191 c 0,31,32
 573 1269 573 1269 476 1269 c 0,33,34
 315 1269 315 1269 315 1100 c 1,35,-1
 316 1075 l 1,36,37
 287 1069 287 1069 248.5 1069 c 128,-1,38
 210 1069 210 1069 170 1095 c 128,-1,39
 130 1121 130 1121 130 1161.5 c 128,-1,40
 130 1202 130 1202 148 1233.5 c 128,-1,41
 166 1265 166 1265 199 1286 c 0,42,43
 318.428571429 1362 318.428571429 1362 483.214285714 1362 c 128,-1,0
 648 1362 648 1362 723.5 1287 c 128,-1,1
305 852.5 m 128,-1,45
 282 823 282 823 282 766 c 128,-1,46
 282 709 282 709 318 672.5 c 128,-1,47
 354 636 354 636 422 636 c 0,48,49
 548 636 548 636 595 734 c 0,50,51
 628 803 628 803 628 950 c 1,52,53
 597 940 597 940 545 932 c 128,-1,54
 493 924 493 924 451.5 917 c 128,-1,55
 410 910 410 910 369 896 c 128,-1,44
 328 882 328 882 305 852.5 c 128,-1,45
EndSplineSet
EndChar

StartChar: guillemotleft
Encoding: 108 171 107
Width: 1197
Flags: HMW
LayerCount: 2
Fore
SplineSet
544 566 m 0,0,1
 602 645 602 645 724.5 736 c 128,-1,2
 847 827 847 827 931 876.5 c 128,-1,3
 1015 926 1015 926 1043.5 926 c 128,-1,4
 1072 926 1072 926 1090.5 911.5 c 128,-1,5
 1109 897 1109 897 1109 875 c 0,6,7
 1109 813.610169492 1109 813.610169492 842 616 c 0,8,9
 746 545 746 545 707 524 c 1,10,11
 841.459533608 443.673525377 841.459533608 443.673525377 1020 272 c 0,12,13
 1109 185.225 1109 185.225 1109 158.6125 c 128,-1,14
 1109 132 1109 132 1092 116 c 128,-1,15
 1075 100 1075 100 1053 100 c 0,16,17
 979.95 100 979.95 100 753 278 c 0,18,19
 658 352 658 352 591.5 422 c 128,-1,20
 525 492 525 492 525 516.5 c 128,-1,21
 525 541 525 541 544 566 c 0,0,1
61 566 m 0,22,23
 119 645 119 645 239.5 735 c 128,-1,24
 360 825 360 825 446.5 875.5 c 128,-1,25
 533 926 533 926 561 926 c 128,-1,26
 589 926 589 926 607.5 911.5 c 128,-1,27
 626 897 626 897 626 875 c 128,-1,28
 626 853 626 853 601 824 c 0,29,30
 537 749 537 749 399.5 647 c 128,-1,31
 262 545 262 545 223 524 c 1,32,33
 295 484 295 484 399 395.5 c 0,34,35
 555.430876581 262.383340602 555.430876581 262.383340602 590.71543829 218.191670301 c 128,-1,36
 626 174 626 174 626 152.5 c 128,-1,37
 626 131 626 131 609.5 115.5 c 128,-1,38
 593 100 593 100 570.5 100 c 0,39,40
 496.95 100 496.95 100 270 278 c 0,41,42
 179 349 179 349 110.5 421.5 c 128,-1,43
 42 494 42 494 42 517.5 c 128,-1,44
 42 541 42 541 61 566 c 0,22,23
EndSplineSet
EndChar

StartChar: logicalnot
Encoding: 109 172 108
Width: 1182
Flags: HMW
LayerCount: 2
Fore
SplineSet
79.5 556 m 128,-1,1
 47 569 47 569 47 625.5 c 128,-1,2
 47 682 47 682 78.5 703 c 128,-1,3
 110 724 110 724 196 724 c 2,4,-1
 955 724 l 2,5,6
 1066 724 1066 724 1066 652 c 1,7,-1
 1060 350 l 2,8,9
 1058 279 1058 279 1036 247.5 c 128,-1,10
 1014 216 1014 216 957 216 c 0,11,12
 861 216 861 216 861 282 c 1,13,-1
 864 418 l 2,14,15
 866 504 866 504 866 543 c 1,16,-1
 179 543 l 2,17,0
 112 543 112 543 79.5 556 c 128,-1,1
EndSplineSet
EndChar

StartChar: uni00AD
Encoding: 110 173 109
Width: 1203
Flags: HMW
LayerCount: 2
Fore
SplineSet
1085 504 m 128,-1,1
 1117 486 1117 486 1117 432.5 c 128,-1,2
 1117 379 1117 379 1086 360.5 c 128,-1,3
 1055 342 1055 342 981 342 c 2,4,-1
 225 342 l 2,5,6
 162 342 162 342 130.5 359 c 128,-1,7
 99 376 99 376 99 430 c 128,-1,8
 99 484 99 484 132 503 c 128,-1,9
 165 522 165 522 247 522 c 2,10,-1
 987 522 l 2,11,0
 1053 522 1053 522 1085 504 c 128,-1,1
EndSplineSet
EndChar

StartChar: registered
Encoding: 111 174 110
Width: 1639
Flags: HMW
LayerCount: 2
Fore
SplineSet
632 324 m 2,0,-1
 547 323 l 1,1,2
 418 323 418 323 418 372 c 0,3,4
 418 386 418 386 465.5 393.5 c 128,-1,5
 513 401 513 401 513 418 c 2,6,-1
 513 1004 l 2,7,8
 513 1017 513 1017 489.5 1022 c 128,-1,9
 466 1027 466 1027 442 1032.5 c 128,-1,10
 418 1038 418 1038 418 1052 c 0,11,12
 418 1078 418 1078 469 1088 c 128,-1,13
 520 1098 520 1098 626 1098 c 2,14,-1
 721 1098 l 2,15,16
 902 1098 902 1098 978 1075.5 c 128,-1,17
 1054 1053 1054 1053 1100 1009.5 c 128,-1,18
 1146 966 1146 966 1146 887 c 0,19,20
 1146 763 1146 763 1018 700 c 0,21,22
 982 682 982 682 942 673 c 1,23,-1
 971 634 l 1,24,25
 1069 469 1069 469 1141 404 c 1,26,27
 1185 379 1185 379 1250 379 c 1,28,29
 1259 370 1259 370 1259 357 c 0,30,31
 1259 314 1259 314 1147 314 c 128,-1,32
 1035 314 1035 314 982 345 c 1,33,34
 923.592015579 401.523855891 923.592015579 401.523855891 890.29600779 465.261927945 c 128,-1,35
 857 529 857 529 829.5 585 c 128,-1,36
 802 641 802 641 790 665 c 1,37,-1
 683 665 l 1,38,-1
 683 418 l 2,39,40
 683 400 683 400 730 393 c 128,-1,41
 777 386 777 386 777 368 c 0,42,43
 777 340 777 340 740 332 c 128,-1,44
 703 324 703 324 632 324 c 2,0,-1
865 1403 m 0,45,46
 1009 1403 1009 1403 1143.5 1348 c 128,-1,47
 1278 1293 1278 1293 1372.5 1209 c 128,-1,48
 1467 1125 1467 1125 1530 998.5 c 128,-1,49
 1593 872 1593 872 1593 738.5 c 128,-1,50
 1593 605 1593 605 1565.5 512 c 128,-1,51
 1538 419 1538 419 1482 334 c 0,52,53
 1380 180 1380 180 1203.5 82 c 128,-1,54
 1027 -16 1027 -16 813 -16 c 128,-1,55
 599 -16 599 -16 425.5 79 c 128,-1,56
 252 174 252 174 149 329.75 c 128,-1,57
 46 485.5 46 485.5 46 688.25 c 128,-1,58
 46 891 46 891 159 1054.5 c 128,-1,59
 272 1218 272 1218 451 1310.5 c 128,-1,60
 630 1403 630 1403 865 1403 c 0,45,46
366 252 m 128,-1,62
 541 80 541 80 813 80 c 128,-1,63
 1085 80 1085 80 1264 257.5 c 128,-1,64
 1443 435 1443 435 1443 698 c 128,-1,65
 1443 961 1443 961 1271.5 1132.5 c 128,-1,66
 1100 1304 1100 1304 829 1304 c 128,-1,67
 558 1304 558 1304 374.5 1126.5 c 128,-1,68
 191 949 191 949 191 686.5 c 128,-1,61
 191 424 191 424 366 252 c 128,-1,62
776 741 m 2,69,70
 964 741 964 741 964 887 c 0,71,72
 964 1022 964 1022 759 1022 c 0,73,74
 715 1022 715 1022 700 1008 c 128,-1,75
 685 994 685 994 683 953 c 1,76,-1
 683 741 l 1,77,-1
 776 741 l 2,69,70
EndSplineSet
EndChar

StartChar: macron
Encoding: 112 175 111
Width: 841
Flags: HMW
LayerCount: 2
Fore
SplineSet
132.5 263 m 128,-1,1
 110 279 110 279 110 307.5 c 132,-1,2
 110 336 110 336 135 354.5 c 128,-1,3
 160 373 160 373 195 373 c 2,4,-1
 669 373 l 2,5,6
 703 373 703 373 726 357 c 128,-1,7
 749 341 749 341 749 312.5 c 128,-1,8
 749 284 749 284 724 265.5 c 128,-1,9
 699 247 699 247 663 247 c 2,10,-1
 189 247 l 2,11,0
 155 247 155 247 132.5 263 c 128,-1,1
EndSplineSet
EndChar

StartChar: degree
Encoding: 113 176 112
Width: 705
Flags: HMW
LayerCount: 2
Fore
SplineSet
233 1256 m 128,-1,1
 233 1207 233 1207 265 1179 c 128,-1,2
 297 1151 297 1151 349.5 1151 c 128,-1,3
 402 1151 402 1151 434.5 1181.5 c 128,-1,4
 467 1212 467 1212 467 1261.5 c 128,-1,5
 467 1311 467 1311 435.5 1338 c 128,-1,6
 404 1365 404 1365 351.5 1365 c 128,-1,7
 299 1365 299 1365 266 1335 c 128,-1,0
 233 1305 233 1305 233 1256 c 128,-1,1
356 1453 m 0,8,9
 595 1453 595 1453 595 1264 c 0,10,11
 595 1166 595 1166 525.5 1114.5 c 128,-1,12
 456 1063 456 1063 349 1063 c 0,13,14
 188 1063 188 1063 128 1170 c 0,15,16
 108 1207 108 1207 108 1256 c 0,17,18
 108 1352 108 1352 178.5 1402.5 c 128,-1,19
 249 1453 249 1453 356 1453 c 0,8,9
EndSplineSet
EndChar

StartChar: plusminus
Encoding: 114 177 113
Width: 870
Flags: HMW
LayerCount: 2
Fore
SplineSet
135 61.5 m 128,-1,1
 116 72 116 72 116 108 c 128,-1,2
 116 144 116 144 138.5 155.5 c 128,-1,3
 161 167 161 167 214 167 c 2,4,-1
 691 167 l 2,5,6
 775 167 775 167 775 119 c 0,7,8
 775 76 775 76 750.5 63.5 c 128,-1,9
 726 51 726 51 671 51 c 2,10,-1
 203 51 l 2,11,0
 154 51 154 51 135 61.5 c 128,-1,1
512 321 m 2,12,13
 512 276 512 276 495 254.5 c 128,-1,14
 478 233 478 233 435 233 c 0,15,16
 354 233 354 233 354 325 c 2,17,-1
 354 551 l 1,18,-1
 134 551 l 2,19,20
 82 551 82 551 64 567.5 c 128,-1,21
 46 584 46 584 46 631 c 0,22,23
 46 693 46 693 138 693 c 2,24,-1
 354 693 l 1,25,-1
 354 920 l 2,26,27
 354 1011 354 1011 426 1011 c 0,28,29
 474 1011 474 1011 493 989 c 128,-1,30
 512 967 512 967 512 917 c 2,31,-1
 512 693 l 1,32,-1
 729 693 l 2,33,34
 780 693 780 693 800 677 c 128,-1,35
 820 661 820 661 820 620 c 128,-1,36
 820 579 820 579 796.5 565 c 128,-1,37
 773 551 773 551 726 551 c 2,38,-1
 512 551 l 1,39,-1
 512 321 l 2,12,13
EndSplineSet
EndChar

StartChar: twosuperior
Encoding: 115 178 114
Width: 774
Flags: HMW
LayerCount: 2
Fore
SplineSet
140 732 m 0,0,1
 80 732 80 732 80 774.5 c 128,-1,2
 80 817 80 817 139 856 c 128,-1,3
 198 895 198 895 278.5 923 c 128,-1,4
 359 951 359 951 420 951 c 0,5,6
 529 951 529 951 593.5 888.5 c 128,-1,7
 658 826 658 826 658 720 c 0,8,9
 658 484.5 658 484.5 217 120 c 1,10,-1
 485 120 l 2,11,12
 514 120 514 120 540.5 154 c 128,-1,13
 567 188 567 188 576 233 c 1,14,-1
 585 242 l 1,15,16
 628 242 628 242 657 213 c 128,-1,17
 686 184 686 184 686 133 c 128,-1,18
 686 82 686 82 659 41.5 c 128,-1,19
 632 1 632 1 588 1 c 2,20,-1
 148 1 l 2,21,22
 107 1 107 1 79.5 25 c 128,-1,23
 52 49 52 49 52 77 c 128,-1,24
 52 105 52 105 80.5 136 c 128,-1,25
 109 167 109 167 220.5 280 c 128,-1,26
 332 393 332 393 383 456 c 0,27,28
 499 601 499 601 499 699 c 0,29,30
 499 753 499 753 470.5 786 c 128,-1,31
 442 819 442 819 392 819 c 0,32,33
 333 819 333 819 300.5 806 c 2,34,35
 260.5 790 l 2,36,37
 232.444444444 778.777777778 232.444444444 778.777777778 222.222222222 772.388888889 c 0,38,39
 157.6 732 157.6 732 140 732 c 0,0,1
EndSplineSet
EndChar

StartChar: threesuperior
Encoding: 116 179 115
Width: 809
Flags: HMW
LayerCount: 2
Fore
SplineSet
492 752 m 0,0,1
 492 843 492 843 358 843 c 0,2,3
 305 843 305 843 244.5 810 c 128,-1,4
 184 777 184 777 142 737 c 1,5,-1
 123 730 l 1,6,7
 105 730 105 730 90 744 c 128,-1,8
 75 758 75 758 75 776 c 1,9,-1
 78 792 l 1,10,-1
 78 794 l 1,11,12
 127 866 127 866 213.5 909 c 128,-1,13
 300 952 300 952 413 952 c 0,14,15
 578 952 578 952 639 841 c 0,16,17
 660 804 660 804 660 750 c 0,18,19
 660 640 660 640 512 564 c 1,20,21
 669 525 669 525 720 398 c 0,22,23
 737 357 737 357 737 289 c 0,24,25
 737 154.5625 737 154.5625 631.5 69.78125 c 128,-1,26
 526 -15 526 -15 373 -15 c 0,27,28
 289 -15 289 -15 236 5.5 c 128,-1,29
 183 26 183 26 166 33 c 128,-1,30
 149 40 149 40 121 54.5 c 128,-1,31
 93 69 93 69 78.5 81.5 c 0,32,33
 41 113.827586207 41 113.827586207 41 152.413793103 c 128,-1,34
 41 191 41 191 87 191 c 0,35,36
 98 191 98 191 124 174.5 c 0,37,38
 252.424242424 93 252.424242424 93 371 93 c 0,39,40
 450 93 450 93 510 151 c 128,-1,41
 570 209 570 209 570 287 c 0,42,43
 570 424 570 424 451 466 c 0,44,45
 415 479 415 479 385.5 479 c 128,-1,46
 356 479 356 479 315.5 465.5 c 128,-1,47
 275 452 275 452 256 452 c 128,-1,48
 237 452 237 452 224.5 468 c 128,-1,49
 212 484 212 484 212 504 c 1,50,-1
 226 531 l 1,51,52
 247 542 247 542 297 563.5 c 0,53,54
 403.830188679 609.436981132 403.830188679 609.436981132 447.91509434 651.718490566 c 128,-1,55
 492 694 492 694 492 752 c 0,0,1
EndSplineSet
EndChar

StartChar: acute
Encoding: 117 180 116
Width: 527
Flags: HMW
LayerCount: 2
Fore
SplineSet
292.5 1673.5 m 128,-1,1
 327 1704 327 1704 374.5 1704 c 128,-1,2
 422 1704 422 1704 459 1676 c 128,-1,3
 496 1648 496 1648 496 1597 c 128,-1,4
 496 1546 496 1546 368 1380 c 0,5,6
 177.254901961 1132.62745098 177.254901961 1132.62745098 124 1106 c 1,7,-1
 110 1120 l 1,8,-1
 110 1125 l 2,9,10
 110 1171 110 1171 173.5 1376.5 c 128,-1,11
 237 1582 237 1582 247.5 1612.5 c 128,-1,0
 258 1643 258 1643 292.5 1673.5 c 128,-1,1
EndSplineSet
EndChar

StartChar: mu
Encoding: 118 181 117
Width: 1287
Flags: HMW
LayerCount: 2
Fore
SplineSet
178 -175 m 1,0,-1
 193 406 l 1,1,-1
 193 749 l 2,2,3
 193 823 193 823 122 828 c 1,4,5
 62.8848920863 830.68705036 62.8848920863 830.68705036 56.9424460432 840.34352518 c 128,-1,6
 51 850 51 850 51 862 c 0,7,8
 51 912 51 912 109 938 c 128,-1,9
 167 964 167 964 247.5 964 c 128,-1,10
 328 964 328 964 357 942 c 128,-1,11
 386 920 386 920 386 838 c 2,12,-1
 386 433 l 2,13,14
 386 278 386 278 417.5 218.5 c 128,-1,15
 449 159 449 159 497 134 c 128,-1,16
 545 109 545 109 636 109 c 0,17,18
 887 109 887 109 907 312 c 0,19,20
 913 372 913 372 913 437 c 2,21,-1
 912 749 l 2,22,23
 912 822 912 822 840 828 c 0,24,25
 834 829 834 829 824.5 829.5 c 128,-1,26
 815 830 815 830 810.5 830.5 c 128,-1,27
 806 831 806 831 799 832 c 128,-1,28
 792 833 792 833 788.5 834 c 128,-1,29
 785 835 785 835 780.5 837.5 c 128,-1,30
 776 840 776 840 774.5 843 c 0,31,32
 770 852 770 852 770 861 c 0,33,34
 770 896 770 896 800.5 920 c 0,35,36
 856.416666667 964 856.416666667 964 951.708333333 964 c 128,-1,37
 1047 964 1047 964 1076 942 c 128,-1,38
 1105 920 1105 920 1105 838 c 2,39,-1
 1106 198 l 2,40,41
 1106 130 1106 130 1178 125 c 0,42,43
 1229.21998186 121.730639456 1229.21998186 121.730639456 1240.10999093 114.42938922 c 128,-1,44
 1251 107.128138984 1251 107.128138984 1251 86 c 0,45,46
 1251 41 1251 41 1190.5 15 c 128,-1,47
 1130 -11 1130 -11 1050 -11 c 128,-1,48
 970 -11 970 -11 947.5 17.5 c 128,-1,49
 925 46 925 46 925 149 c 1,50,51
 804 -27 804 -27 555 -27 c 0,52,53
 427 -27 427 -27 346 39 c 1,54,55
 360 -126 360 -126 361 -206 c 1,56,-1
 361 -219 l 2,57,58
 361 -283 361 -283 345 -315.5 c 128,-1,59
 329 -348 329 -348 291 -348 c 128,-1,60
 253 -348 253 -348 233.5 -341 c 128,-1,61
 214 -334 214 -334 202.5 -323.5 c 128,-1,62
 191 -313 191 -313 185.5 -288.5 c 0,63,64
 178 -255.090909091 178 -255.090909091 178 -175 c 1,0,-1
EndSplineSet
EndChar

StartChar: paragraph
Encoding: 119 182 118
Width: 1025
Flags: HMW
LayerCount: 2
Fore
SplineSet
777 -22 m 0,0,1
 675 -22 675 -22 675 46 c 2,2,-1
 675 1290 l 1,3,-1
 576 1290 l 1,4,-1
 577 66 l 2,5,6
 577 32 577 32 553 5.5 c 128,-1,7
 529 -21 529 -21 498 -21 c 0,8,9
 396 -21 396 -21 396 46 c 2,10,-1
 395 739 l 1,11,12
 240 742 240 742 130 806 c 0,13,14
 -4 884 -4 884 -4 1036 c 0,15,16
 -4 1290.825 -4 1290.825 240 1362.5 c 0,17,18
 374.468085106 1402 374.468085106 1402 595 1402 c 2,19,-1
 670 1402 l 2,20,21
 890 1402 890 1402 958 1322 c 0,22,23
 979 1296 979 1296 979 1268.5 c 128,-1,24
 979 1241 979 1241 960 1223.5 c 128,-1,25
 941 1206 941 1206 918.5 1199.5 c 128,-1,26
 896 1193 896 1193 877 1176 c 128,-1,27
 858 1159 858 1159 858 1131 c 2,28,-1
 859 61 l 2,29,30
 859 26 859 26 831.5 2 c 128,-1,31
 804 -22 804 -22 777 -22 c 0,0,1
EndSplineSet
EndChar

StartChar: periodcentered
Encoding: 120 183 119
Width: 486
Flags: HMW
LayerCount: 2
Fore
SplineSet
147 695 m 128,-1,1
 104 727 104 727 104 776.5 c 128,-1,2
 104 826 104 826 151 861 c 128,-1,3
 198 896 198 896 244 896 c 128,-1,4
 290 896 290 896 337.5 865 c 128,-1,5
 385 834 385 834 385 791 c 0,6,7
 385 702 385 702 294 672 c 0,8,9
 268 663 268 663 229 663 c 128,-1,0
 190 663 190 663 147 695 c 128,-1,1
EndSplineSet
EndChar

StartChar: cedilla
Encoding: 121 184 120
Width: 593
Flags: HMW
LayerCount: 2
Fore
SplineSet
303.5 -343 m 128,-1,1
 329 -330 329 -330 329 -304.5 c 128,-1,2
 329 -279 329 -279 302.5 -262 c 0,3,4
 258.852941176 -234 258.852941176 -234 181 -234 c 1,5,6
 213 -144 213 -144 243 -36 c 1,7,-1
 261 17 l 1,8,-1
 373 13 l 1,9,-1
 373 12 l 1,10,-1
 325 -128 l 1,11,-1
 326 -131 l 1,12,-1
 326 -128 l 1,13,14
 397 -135 397 -135 445 -150.5 c 128,-1,15
 493 -166 493 -166 525.5 -201.5 c 128,-1,16
 558 -237 558 -237 558 -291 c 0,17,18
 558 -374 558 -374 486.5 -419.5 c 128,-1,19
 415 -465 415 -465 312 -465 c 0,20,21
 265 -465 265 -465 193.5 -448.5 c 0,22,23
 28 -410.307692308 28 -410.307692308 28 -352 c 0,24,25
 28 -333 28 -333 42 -320 c 128,-1,26
 56 -307 56 -307 74 -307 c 128,-1,27
 92 -307 92 -307 116 -318 c 128,-1,28
 140 -329 140 -329 148 -329 c 1,29,30
 211 -356 211 -356 244.5 -356 c 128,-1,0
 278 -356 278 -356 303.5 -343 c 128,-1,1
EndSplineSet
EndChar

StartChar: onesuperior
Encoding: 122 185 121
Width: 531
Flags: HMW
LayerCount: 2
Fore
SplineSet
359 124 m 1,0,1
 368 119 368 119 395 112 c 0,2,3
 456 96.1851851852 456 96.1851851852 456 70 c 0,4,5
 456 0 456 0 325 0 c 2,6,-1
 233 0 l 2,7,8
 96 0 96 0 96 70 c 0,9,10
 96 97 96 97 171 115 c 0,11,12
 189 120 189 120 197 124 c 1,13,-1
 197 772 l 1,14,15
 192 774 192 774 162.5 782.5 c 0,16,17
 96 801.661016949 96 801.661016949 96 820 c 0,18,19
 96 869 96 869 171 895.5 c 128,-1,20
 246 922 246 922 288 922 c 128,-1,21
 330 922 330 922 344.5 908 c 128,-1,22
 359 894 359 894 359 851 c 2,23,-1
 359 124 l 1,0,1
EndSplineSet
EndChar

StartChar: ordmasculine
Encoding: 123 186 122
Width: 1040
Flags: HMW
LayerCount: 2
Fore
SplineSet
839 1244 m 128,-1,1
 958 1130 958 1130 958 946.5 c 128,-1,2
 958 763 958 763 827 645.5 c 128,-1,3
 696 528 696 528 505 528 c 128,-1,4
 314 528 314 528 198.5 647 c 128,-1,5
 83 766 83 766 83 947 c 128,-1,6
 83 1128 83 1128 214 1243 c 128,-1,7
 345 1358 345 1358 532.5 1358 c 128,-1,0
 720 1358 720 1358 839 1244 c 128,-1,1
706 1158.5 m 128,-1,9
 630 1256 630 1256 511.5 1256 c 128,-1,10
 393 1256 393 1256 329 1174 c 128,-1,11
 265 1092 265 1092 265 960 c 128,-1,12
 265 828 265 828 340 731 c 128,-1,13
 415 634 415 634 532.5 634 c 128,-1,14
 650 634 650 634 716 715 c 128,-1,15
 782 796 782 796 782 928.5 c 128,-1,8
 782 1061 782 1061 706 1158.5 c 128,-1,9
EndSplineSet
EndChar

StartChar: guillemotright
Encoding: 124 187 123
Width: 1192
Flags: HMW
LayerCount: 2
Fore
SplineSet
1137 480 m 0,0,1
 1082 401 1082 401 953 299 c 128,-1,2
 824 197 824 197 743.75 148.5 c 128,-1,3
 663.5 100 663.5 100 636.25 100 c 128,-1,4
 609 100 609 100 590.5 114.5 c 128,-1,5
 572 129 572 129 572 151.5 c 0,6,7
 572 216.771929825 572 216.771929825 839 426 c 1,8,9
 934 499 934 499 975 524 c 1,10,11
 917 555 917 555 808.5 639.5 c 128,-1,12
 700 724 700 724 636 782.5 c 128,-1,13
 572 841 572 841 572 867 c 128,-1,14
 572 893 572 893 587.5 909.5 c 128,-1,15
 603 926 603 926 618 926 c 128,-1,16
 633 926 633 926 640 925 c 128,-1,17
 647 924 647 924 655.5 922 c 128,-1,18
 664 920 664 920 669.5 918.5 c 128,-1,19
 675 917 675 917 684 912.5 c 0,20,21
 717 896 717 896 722 893 c 128,-1,22
 727 890 727 890 738 883.5 c 0,23,24
 954.333333333 755.666666667 954.333333333 755.666666667 1086 624 c 0,25,26
 1156 554 1156 554 1156 530 c 128,-1,27
 1156 506 1156 506 1137 480 c 0,0,1
654 480 m 0,28,29
 599 401 599 401 471.5 300 c 128,-1,30
 344 199 344 199 262 149.5 c 128,-1,31
 180 100 180 100 153 100 c 128,-1,32
 126 100 126 100 107.5 114.5 c 128,-1,33
 89 129 89 129 89 151 c 0,34,35
 89 215.771929825 89 215.771929825 356 425 c 0,36,37
 455 502 455 502 491 524 c 1,38,39
 428 557 428 557 315 647.5 c 128,-1,40
 202 738 202 738 178 760 c 0,41,42
 89 841 89 841 89 867 c 128,-1,43
 89 893 89 893 105 909.5 c 128,-1,44
 121 926 121 926 136 926 c 128,-1,45
 151 926 151 926 158 925 c 128,-1,46
 165 924 165 924 173.5 922 c 128,-1,47
 182 920 182 920 187.5 918.5 c 128,-1,48
 193 917 193 917 202 912.5 c 0,49,50
 235 896 235 896 240 893 c 128,-1,51
 245 890 245 890 256 883.5 c 0,52,53
 472.333333333 755.666666667 472.333333333 755.666666667 604 624 c 0,54,55
 673 555 673 555 673 530.5 c 128,-1,56
 673 506 673 506 654 480 c 0,28,29
EndSplineSet
EndChar

StartChar: AE
Encoding: 135 198 134
Width: 2308
Flags: HMW
LayerCount: 2
Fore
SplineSet
2180 356 m 0,0,1
 2258 356 2258 356 2258 262 c 0,2,3
 2258 168 2258 168 2176.5 82 c 0,4,5
 2095 -4 2095 -4 1988 -4 c 2,6,-1
 1227 0 l 2,7,8
 1084 0 1084 0 1045 10 c 0,9,10
 969 29 969 29 969 90 c 0,11,12
 969 120 969 120 1004 127 c 0,13,14
 1039 134 1039 134 1044 134 c 0,15,16
 1119 141.5 1119 141.5 1119 215 c 2,17,-1
 1119 470 l 1,18,-1
 535 470 l 1,19,20
 323 187 323 187 314.5 162.5 c 0,21,22
 306 138 306 138 317 134 c 1,23,-1
 317 135 l 1,24,25
 336 121 336 121 363 115.5 c 0,26,27
 390 110 390 110 397.5 105.5 c 0,28,29
 405 101 405 101 401 89 c 0,30,31
 368 0 368 0 143 0 c 0,32,33
 -16 0 -16 0 -16 65 c 0,34,35
 -16 76 -16 76 -10 91.5 c 0,36,37
 -4 107 -4 107 33.5 116 c 0,38,39
 71 125 71 125 113.5 144.5 c 0,40,41
 156 164 156 164 200 221 c 1,42,-1
 994 1280 l 1,43,44
 994 1306 994 1306 1001 1327 c 0,45,46
 1030 1404 1030 1404 1186 1404 c 2,47,-1
 2060 1404 l 2,48,49
 2139 1404 2139 1404 2184 1342.25 c 0,50,51
 2229 1280.5 2229 1280.5 2229 1198 c 0,52,53
 2229 1050 2229 1050 2126 1050 c 0,54,55
 2058 1050 2058 1050 2035.5 1093.5 c 0,56,57
 2013 1137 2013 1137 2013 1211 c 2,58,-1
 2013 1262 l 1,59,-1
 2014 1286 l 1,60,-1
 1338 1286 l 1,61,-1
 1338 787 l 1,62,-1
 1767 787 l 1,63,64
 1774 794 1774 794 1798.5 840 c 0,65,66
 1823 886 1823 886 1834.5 903.5 c 0,67,68
 1846 921 1846 921 1858 921 c 0,69,70
 1971 921 1971 921 1971 729 c 0,71,72
 1971 602 1971 602 1919 550 c 0,73,74
 1897 528 1897 528 1874 528 c 0,75,76
 1851 528 1851 528 1836 543 c 0,77,78
 1821 558 1821 558 1787 635 c 1,79,-1
 1786 636 l 2,80,81
 1786 637 1786 637 1766 672 c 1,82,-1
 1338 672 l 1,83,-1
 1338 131 l 1,84,-1
 1977 131 l 1,85,86
 1992 146 1992 146 2035 215 c 128,-1,87
 2078 284 2078 284 2111 320 c 0,88,89
 2144 356 2144 356 2180 356 c 0,0,1
1121 1244 m 1,90,-1
 1121 1280 l 1,91,-1
 609 566 l 1,92,-1
 1119 566 l 1,93,-1
 1119 1190 l 2,94,95
 1119 1210 1119 1210 1121 1244 c 1,90,-1
EndSplineSet
EndChar

StartChar: multiply
Encoding: 152 215 151
Width: 716
Flags: HMW
LayerCount: 2
Fore
SplineSet
618 462 m 2,0,1
 654 426 654 426 654 400 c 128,-1,2
 654 374 654 374 629 348.5 c 128,-1,3
 604 323 604 323 574 323 c 128,-1,4
 544 323 544 323 509 358 c 2,5,-1
 349 519 l 1,6,-1
 191 361 l 2,7,8
 152 322 152 322 129 322 c 128,-1,9
 106 322 106 322 80.5 345.5 c 128,-1,10
 55 369 55 369 55 397 c 128,-1,11
 55 425 55 425 93 463 c 2,12,-1
 249 620 l 1,13,-1
 88 780 l 1,14,15
 51 814 51 814 51 843 c 128,-1,16
 51 872 51 872 76 897 c 128,-1,17
 101 922 101 922 129.5 922 c 128,-1,18
 158 922 158 922 196 884 c 2,19,-1
 355 725 l 1,20,-1
 511 882 l 2,21,22
 550 921 550 921 576 921 c 128,-1,23
 602 921 602 921 626 897 c 128,-1,24
 650 873 650 873 650 846.5 c 128,-1,25
 650 820 650 820 609 779 c 2,26,-1
 455 624 l 1,27,-1
 618 462 l 2,0,1
EndSplineSet
EndChar

StartChar: Oslash
Encoding: 153 216 152
Width: 1762
Flags: HMW
LayerCount: 2
Fore
SplineSet
536 -139 m 2,0,1
 517 -179 517 -179 488 -179 c 128,-1,2
 459 -179 459 -179 439.5 -164.5 c 128,-1,3
 420 -150 420 -150 420 -125 c 128,-1,4
 420 -100 420 -100 430 -81 c 2,5,-1
 1189 1516 l 1,6,7
 1205 1553 1205 1553 1239 1553 c 0,8,9
 1313 1553 1313 1553 1313 1493 c 0,10,11
 1313 1484 1313 1484 1308 1466 c 1,12,-1
 536 -139 l 2,0,1
1488 672 m 0,13,14
 1488 855 1488 855 1408 990.5 c 128,-1,15
 1328 1126 1328 1126 1186 1209.5 c 128,-1,16
 1044 1293 1044 1293 846 1293 c 0,17,18
 572 1293 572 1293 413 1125 c 128,-1,19
 254 957 254 957 254 713 c 128,-1,20
 254 469 254 469 427 289.5 c 128,-1,21
 600 110 600 110 872 110 c 128,-1,22
 1144 110 1144 110 1316 274 c 128,-1,23
 1488 438 1488 438 1488 672 c 0,13,14
1710 750 m 0,24,25
 1710 532 1710 532 1603 356 c 128,-1,26
 1496 180 1496 180 1309 77.5 c 128,-1,27
 1122 -25 1122 -25 869 -25 c 0,28,29
 518 -25 518 -25 282 158 c 0,30,31
 210 215 210 215 151 294 c 1,32,33
 35 454 35 454 35 637 c 0,34,35
 35 987 35 987 272.5 1201.5 c 128,-1,36
 510 1416 510 1416 876 1416 c 0,37,38
 1063 1416 1063 1416 1226.5 1360 c 128,-1,39
 1390 1304 1390 1304 1509 1197 c 0,40,41
 1710 1016.26890756 1710 1016.26890756 1710 750 c 0,24,25
EndSplineSet
EndChar

StartChar: Thorn
Encoding: 159 222 158
Width: 1338
Flags: HMW
LayerCount: 2
Fore
SplineSet
466 1154 m 1,0,-1
 568 1154 l 2,1,2
 754 1154 754 1154 846 1146 c 128,-1,3
 938 1138 938 1138 1031.5 1112 c 128,-1,4
 1125 1086 1125 1086 1178 1051 c 0,5,6
 1301 970 1301 970 1301 822 c 0,7,8
 1301 566 1301 566 1006 478 c 0,9,10
 823 424 823 424 529 424 c 2,11,-1
 466 424 l 1,12,-1
 466 172 l 2,13,14
 466 142 466 142 549 128 c 128,-1,15
 632 114 632 114 632 90 c 0,16,17
 632 29 632 29 556 12 c 0,18,19
 504 1 504 1 352 1 c 128,-1,20
 200 1 200 1 156 10 c 0,21,22
 73 28 73 28 73 80 c 0,23,24
 73 98 73 98 87.5 109.5 c 128,-1,25
 102 121 102 121 118.5 124 c 128,-1,26
 135 127 135 127 160.5 130 c 0,27,28
 240 139.352941176 240 139.352941176 240 172 c 2,29,-1
 240 1232 l 2,30,31
 240 1262 240 1262 156.5 1275.5 c 128,-1,32
 73 1289 73 1289 73 1314 c 0,33,34
 73 1375 73 1375 150 1392 c 0,35,36
 202 1403 202 1403 354 1403 c 128,-1,37
 506 1403 506 1403 550 1394 c 0,38,39
 632 1376 632 1376 632 1324 c 0,40,41
 632 1289.97058824 632 1289.97058824 586 1280.5 c 0,42,43
 569 1277 569 1277 544 1274 c 0,44,45
 466 1264.64 466 1264.64 466 1232 c 2,46,-1
 466 1154 l 1,0,-1
586 540 m 2,47,48
 1075 540 1075 540 1075 804 c 0,49,50
 1075 939 1075 939 936 994 c 0,51,52
 832 1035 832 1035 634 1035 c 2,53,-1
 552 1035 l 2,54,55
 475 1035 475 1035 466 1023 c 1,56,-1
 466 543 l 1,57,58
 499 540 499 540 537 540 c 2,59,-1
 586 540 l 2,47,48
EndSplineSet
EndChar

StartChar: germandbls
Encoding: 160 223 159
Width: 1180
Flags: HMW
LayerCount: 2
Fore
SplineSet
942 296 m 0,0,1
 942 484 942 484 829 600.5 c 128,-1,2
 716 717 716 717 537 717 c 0,3,4
 507 717 507 717 507 757 c 0,5,6
 507 812 507 812 570 827 c 0,7,8
 649 846 649 846 714.5 904 c 128,-1,9
 780 962 780 962 780 1035 c 0,10,11
 780 1154 780 1154 722 1229.5 c 128,-1,12
 664 1305 664 1305 571 1305 c 128,-1,13
 478 1305 478 1305 439.5 1250 c 128,-1,14
 401 1195 401 1195 401 1041 c 2,15,-1
 401 90 l 2,16,17
 401 33 401 33 379 15.5 c 128,-1,18
 357 -2 357 -2 321 -2 c 0,19,20
 144.710343239 -2 144.710343239 -2 88.3551716196 15.0055039526 c 128,-1,21
 32 32.0110079052 32 32.0110079052 32 90 c 0,22,23
 32 124.714285714 32 124.714285714 100.5 134.5 c 0,24,25
 132 139 132 139 143 144 c 0,26,27
 182 160 182 160 182 215 c 2,28,-1
 182 950 l 2,29,30
 182 1186.22727273 182 1186.22727273 263 1293 c 0,31,32
 347.206896552 1404 347.206896552 1404 567 1404 c 0,33,34
 665 1404 665 1404 753 1366 c 128,-1,35
 841 1328 841 1328 897 1255 c 128,-1,36
 953 1182 953 1182 953 1082 c 128,-1,37
 953 982 953 982 913 929 c 0,38,39
 835 824 835 824 652 773 c 1,40,41
 857.53464689 758.612574718 857.53464689 758.612574718 995 659 c 0,42,43
 1143 551.753623188 1143 551.753623188 1143 369.376811594 c 128,-1,44
 1143 187 1143 187 1045.5 80 c 128,-1,45
 948 -27 948 -27 781 -27 c 0,46,47
 612.198019802 -27 612.198019802 -27 521.5 71.5 c 0,48,49
 475 122 475 122 475 180.5 c 128,-1,50
 475 239 475 239 507 265.5 c 128,-1,51
 539 292 539 292 586.5 292 c 128,-1,52
 634 292 634 292 665.5 257.5 c 128,-1,53
 697 223 697 223 697 178 c 128,-1,54
 697 133 697 133 692 76 c 1,55,56
 734 59 734 59 768 59 c 0,57,58
 845 59 845 59 893.5 134.5 c 128,-1,59
 942 210 942 210 942 296 c 0,0,1
EndSplineSet
EndChar

StartChar: ae
Encoding: 167 230 166
Width: 1689
Flags: HMW
LayerCount: 2
Fore
SplineSet
378 -24 m 0,0,1
 241 -24 241 -24 151.5 47.5 c 128,-1,2
 62 119 62 119 62 242 c 0,3,4
 62 411 62 411 238 482 c 0,5,6
 331 519 331 519 389.5 526.5 c 128,-1,7
 448 534 448 534 503.5 540.5 c 128,-1,8
 559 547 559 547 593 551.5 c 0,9,10
 686.583497053 563.886051081 686.583497053 563.886051081 721 582 c 1,11,12
 721 724 721 724 698 776 c 0,13,14
 652 880 652 880 532 880 c 2,15,-1
 530 880 l 1,16,17
 418 879 418 879 367 826.5 c 128,-1,18
 316 774 316 774 316 661 c 1,19,-1
 317 639 l 1,20,21
 275 634 275 634 237.5 634 c 128,-1,22
 200 634 200 634 153.5 663.5 c 128,-1,23
 107 693 107 693 107 734.5 c 128,-1,24
 107 776 107 776 122.5 808.5 c 128,-1,25
 138 841 138 841 161 862.5 c 128,-1,26
 184 884 184 884 219.5 902.5 c 0,27,28
 360.540540541 976 360.540540541 976 540 976 c 0,29,30
 774 976 774 976 853 823 c 1,31,32
 997 976 997 976 1219 976 c 0,33,34
 1390 976 1390 976 1507.5 865.5 c 128,-1,35
 1625 755 1625 755 1625 588 c 0,36,37
 1625 507 1625 507 1497 507 c 2,38,-1
 918 507 l 1,39,40
 920 345 920 345 1023 234 c 128,-1,41
 1126 123 1126 123 1283 123 c 0,42,43
 1387 123 1387 123 1485 184 c 0,44,45
 1537 216 1537 216 1551.5 216 c 128,-1,46
 1566 216 1566 216 1584.5 201.5 c 128,-1,47
 1603 187 1603 187 1603 175.5 c 128,-1,48
 1603 164 1603 164 1588.5 136 c 128,-1,49
 1574 108 1574 108 1530.5 75 c 0,50,51
 1396.04545455 -27 1396.04545455 -27 1216 -27 c 0,52,53
 1087 -27 1087 -27 982.5 28 c 128,-1,54
 878 83 878 83 815 171 c 1,55,56
 675 -24 675 -24 378 -24 c 0,0,1
475 80 m 0,57,58
 544 80 544 80 596.5 112.5 c 128,-1,59
 649 145 649 145 676 198 c 0,60,61
 721 286 721 286 721 492 c 1,62,63
 684 479 684 479 535.5 454 c 128,-1,64
 387 429 387 429 346 403 c 0,65,66
 275 358 275 358 275 252 c 0,67,68
 275 80 275 80 475 80 c 0,57,58
1162 608 m 2,69,70
 1318 608 1318 608 1441 612 c 1,71,72
 1438 790 1438 790 1308 851 c 0,73,74
 1265 871 1265 871 1214 871 c 0,75,76
 1100 871 1100 871 1016.5 791 c 128,-1,77
 933 711 933 711 928 608 c 1,78,-1
 1162 608 l 2,69,70
EndSplineSet
EndChar

StartChar: eth
Encoding: 177 240 176
Width: 1166
Flags: HMW
LayerCount: 2
Back
SplineSet
540 -25 m 4,0,1
 314 -25 314 -25 176 117.5 c 0
 38 260 38 260 38 479 c 0,2,3
 38 625 38 625 111 739 c 0
 184 853 184 853 308.5 913.5 c 0
 433 974 433 974 586 974 c 0,4,5
 806 974 806 974 949 837 c 0
 1092 700 1092 700 1092 483 c 0,6,7
 1092 333 1092 333 1019 216.5 c 0
 946 100 946 100 820.5 37.5 c 0
 695 -25 695 -25 540 -25 c 4,0,1
897 447 m 4,8,9
 897 562 897 562 856 657 c 0
 815 752 815 752 734 810 c 0
 653 868 653 868 547 868 c 0,10,11
 404 868 404 868 323 764.5 c 0
 242 661 242 661 242 501.5 c 0,12,13
 242 328 242 328 337 207 c 0
 432 86 432 86 583 86 c 0,14,15
 729 86 729 86 813 187 c 0
 897 288 897 288 897 447 c 4,8,9
EndSplineSet
Fore
SplineSet
534 1425 m 1,0,1
 358 1530 358 1530 266 1530 c 0,2,3
 200 1530 200 1530 200 1466 c 0,4,5
 200 1430 200 1430 235 1419 c 0,6,7
 376 1378 376 1378 480 1323 c 1,8,-1
 406 1185 l 2,9,10
 393 1162 393 1162 393 1135.5 c 128,-1,11
 393 1109 393 1109 410 1092 c 128,-1,12
 427 1075 427 1075 458 1075 c 128,-1,13
 489 1075 489 1075 514 1120 c 2,14,-1
 587 1255 l 1,15,16
 766.511904762 1131.80555556 766.511904762 1131.80555556 835 972 c 0,17,18
 865 902 865 902 880 819 c 1,19,20
 720 959 720 959 520 959 c 128,-1,21
 320 959 320 959 179 825.5 c 128,-1,22
 38 692 38 692 38 473 c 128,-1,23
 38 254 38 254 181 114.5 c 128,-1,24
 324 -25 324 -25 563 -25 c 0,25,26
 967.259911894 -25 967.259911894 -25 1072 346.5 c 0,27,28
 1104 460 1104 460 1104 603 c 0,29,30
 1104 859 1104 859 981 1053.5 c 128,-1,31
 858 1248 858 1248 647 1368 c 1,32,-1
 721 1506 l 2,33,34
 735 1531 735 1531 735 1556.5 c 128,-1,35
 735 1582 735 1582 718 1599 c 128,-1,36
 701 1616 701 1616 669.5 1616 c 128,-1,37
 638 1616 638 1616 613 1571 c 2,38,-1
 534 1425 l 1,0,1
341 199 m 128,-1,40
 242 311 242 311 242 485 c 128,-1,41
 242 659 242 659 333 754.5 c 128,-1,42
 424 850 424 850 575 850 c 128,-1,43
 726 850 726 850 890 727 c 1,44,45
 914 626 914 626 914 534.5 c 128,-1,46
 914 443 914 443 896 364 c 128,-1,47
 878 285 878 285 842 222 c 0,48,49
 764.857142857 87 764.857142857 87 602.428571429 87 c 128,-1,39
 440 87 440 87 341 199 c 128,-1,40
EndSplineSet
EndChar

StartChar: oslash
Encoding: 185 248 184
Width: 1119
Flags: HMW
LayerCount: 2
Fore
SplineSet
887 1158 m 0,0,1
 906 1158 906 1158 923.5 1145.5 c 128,-1,2
 941 1133 941 1133 941 1118 c 128,-1,3
 941 1103 941 1103 933 1077 c 1,4,-1
 320 -169 l 2,5,6
 299 -213 299 -213 259 -213 c 0,7,8
 241 -213 241 -213 227 -201 c 128,-1,9
 213 -189 213 -189 213 -167 c 128,-1,10
 213 -145 213 -145 224 -121 c 2,11,-1
 824 1117 l 2,12,13
 844 1158 844 1158 887 1158 c 0,0,1
578 974 m 0,14,15
 798 974 798 974 941 837 c 128,-1,16
 1084 700 1084 700 1084 476.5 c 128,-1,17
 1084 253 1084 253 925 114 c 128,-1,18
 766 -25 766 -25 537 -25 c 128,-1,19
 308 -25 308 -25 169 118.5 c 128,-1,20
 30 262 30 262 30 479 c 0,21,22
 30 625 30 625 103 739 c 128,-1,23
 176 853 176 853 300.5 913.5 c 128,-1,24
 425 974 425 974 578 974 c 0,14,15
805.5 187 m 128,-1,26
 889 288 889 288 889 451.5 c 128,-1,27
 889 615 889 615 798.5 741.5 c 128,-1,28
 708 868 708 868 552 868 c 128,-1,29
 396 868 396 868 315 765 c 128,-1,30
 234 662 234 662 234 495 c 128,-1,31
 234 328 234 328 329 207 c 128,-1,32
 424 86 424 86 573 86 c 128,-1,25
 722 86 722 86 805.5 187 c 128,-1,26
EndSplineSet
EndChar

StartChar: thorn
Encoding: 191 254 190
Width: 1131
Flags: HMW
LayerCount: 2
Fore
SplineSet
337 201 m 1,0,1
 456 107 456 107 593 107 c 128,-1,2
 730 107 730 107 806 197 c 128,-1,3
 882 287 882 287 882 448.5 c 128,-1,4
 882 610 882 610 787.5 730 c 128,-1,5
 693 850 693 850 568 850 c 128,-1,6
 443 850 443 850 337 752 c 1,7,-1
 337 201 l 1,0,1
338 854 m 1,8,9
 487 981 487 981 677 981 c 128,-1,10
 867 981 867 981 982.5 848.5 c 128,-1,11
 1098 716 1098 716 1098 498 c 128,-1,12
 1098 280 1098 280 961.5 131 c 128,-1,13
 825 -18 825 -18 635 -18 c 0,14,15
 486.5 -18 486.5 -18 341 66 c 1,16,-1
 341 -345 l 2,17,18
 341 -383 341 -383 287.5 -415.5 c 128,-1,19
 234 -448 234 -448 185 -448 c 0,20,21
 147 -448 147 -448 147 -357 c 2,22,-1
 147 1247 l 2,23,24
 147 1338 147 1338 76 1345 c 0,25,26
 69 1346 69 1346 58 1347 c 128,-1,27
 47 1348 47 1348 42 1348.5 c 128,-1,28
 37 1349 37 1349 29.5 1350.5 c 128,-1,29
 22 1352 22 1352 18.5 1354 c 128,-1,30
 15 1356 15 1356 11 1359 c 0,31,32
 4 1364.25 4 1364.25 4 1387.625 c 128,-1,33
 4 1411 4 1411 34.5 1436 c 0,34,35
 90.62 1482 90.62 1482 186 1482 c 0,36,37
 287.4 1482 287.4 1482 304.2 1470 c 0,38,39
 338 1445.85714286 338 1445.85714286 338 1407 c 2,40,-1
 338 854 l 1,8,9
EndSplineSet
EndChar

StartChar: dotlessi
Encoding: 238 305 192
Width: 595
Flags: HMW
LayerCount: 2
Fore
SplineSet
336 0 m 2,0,-1
 250 -1 l 1,1,2
 119.111111111 -1 119.111111111 -1 88 39 c 0,3,4
 74 57 74 57 74 81.5 c 128,-1,5
 74 106 74 106 88.5 114.5 c 128,-1,6
 103 123 103 123 131 126.5 c 128,-1,7
 159 130 159 130 170 134 c 0,8,9
 203 146 203 146 203 191 c 2,10,-1
 203 729 l 2,11,12
 203 820 203 820 132 827 c 0,13,14
 125 828 125 828 114 829 c 128,-1,15
 103 830 103 830 98 830.5 c 128,-1,16
 93 831 93 831 85.5 832.5 c 128,-1,17
 78 834 78 834 74.5 836 c 128,-1,18
 71 838 71 838 67 841 c 0,19,20
 60 846.25 60 846.25 60 869.625 c 128,-1,21
 60 893 60 893 90.5 918 c 0,22,23
 146.62 964 146.62 964 242 964 c 0,24,25
 329.888888889 964 329.888888889 964 345.444444444 957 c 128,-1,26
 361 950 361 950 372.5 942 c 0,27,28
 393 927.739130435 393 927.739130435 393 889 c 2,29,-1
 393 191 l 2,30,31
 393 131 393 131 458 126 c 0,32,33
 495 124 495 124 508.5 115 c 128,-1,34
 522 106 522 106 522 78 c 0,35,36
 522 28 522 28 461 11 c 0,37,38
 419 0 419 0 336 0 c 2,0,-1
EndSplineSet
EndChar

StartChar: Lslash
Encoding: 254 321 193
Width: 1386
Flags: HMW
LayerCount: 2
Fore
SplineSet
172 504 m 2,0,1
 155.5 498 155.5 498 133.75 498 c 128,-1,2
 112 498 112 498 94 520 c 128,-1,3
 76 542 76 542 76 569 c 0,4,5
 76 628 76 628 137 649 c 1,6,-1
 608 801 l 1,7,8
 628 806 628 806 647.5 806 c 128,-1,9
 667 806 667 806 685 785 c 128,-1,10
 703 764 703 764 703 730 c 0,11,12
 703 675 703 675 642 656 c 2,13,-1
 172 504 l 2,0,1
1284 356 m 0,14,15
 1354 356 1354 356 1354 259 c 128,-1,16
 1354 162 1354 162 1283 79 c 128,-1,17
 1212 -4 1212 -4 1118 -4 c 2,18,-1
 377 0 l 2,19,20
 221 0 221 0 180 10 c 0,21,22
 95 30 95 30 95 84 c 0,23,24
 95 104.555555556 95 104.555555556 108 111.777777778 c 128,-1,25
 121 119 121 119 127 121.5 c 128,-1,26
 133 124 133 124 165 132 c 1,27,28
 239 154 239 154 256 197 c 1,29,30
 269 253 269 253 269 312 c 2,31,-1
 269 1093 l 2,32,33
 269 1224 269 1224 222 1249 c 0,34,35
 200 1261 200 1261 117 1288 c 0,36,37
 95 1295 95 1295 95 1320 c 0,38,39
 95 1374 95 1374 174 1392 c 0,40,41
 224 1404 224 1404 379.5 1404 c 128,-1,42
 535 1404 535 1404 576 1394 c 0,43,44
 662 1374 662 1374 662 1321 c 0,45,46
 662 1290.75 662 1290.75 623 1281 c 0,47,48
 607 1277 607 1277 599.5 1274.5 c 128,-1,49
 592 1272 592 1272 579 1268.5 c 128,-1,50
 566 1265 566 1265 559.5 1263 c 128,-1,51
 553 1261 553 1261 544 1257 c 0,52,53
 524.953488372 1248.53488372 524.953488372 1248.53488372 516 1236 c 1,54,55
 488 1202 488 1202 488 1093 c 2,56,-1
 488 167 l 2,57,58
 488 141 488 141 513.5 131 c 128,-1,59
 539 121 539 121 589 121 c 0,60,61
 780.285714286 121 780.285714286 121 942.642857143 137 c 128,-1,62
 1105 153 1105 153 1125 166 c 1,63,64
 1139 182 1139 182 1160 228 c 128,-1,65
 1181 274 1181 274 1184 279 c 0,66,67
 1226 356 1226 356 1284 356 c 0,14,15
EndSplineSet
EndChar

StartChar: lslash
Encoding: 255 322 194
Width: 659
Flags: HMW
LayerCount: 2
Fore
SplineSet
547 977 m 0,0,1
 611 977 611 977 611 894 c 0,2,3
 611 870 611 870 593 852 c 128,-1,4
 575 834 575 834 550 827 c 1,5,-1
 140 675 l 2,6,7
 123.5 669 123.5 669 101.75 669 c 128,-1,8
 80 669 80 669 62 691 c 128,-1,9
 44 713 44 713 44 740 c 0,10,11
 44 799 44 799 105 820 c 1,12,-1
 516 972 l 1,13,14
 536 977 536 977 547 977 c 0,0,1
370 0 m 2,15,-1
 284 -1 l 1,16,17
 153.111111111 -1 153.111111111 -1 122 39 c 0,18,19
 108 57 108 57 108 81.5 c 128,-1,20
 108 106 108 106 122 114.5 c 128,-1,21
 136 123 136 123 164 126 c 128,-1,22
 192 129 192 129 203 134 c 0,23,24
 236 147.5 236 147.5 236 191 c 2,25,-1
 236 1247 l 2,26,27
 236 1338 236 1338 164 1345 c 0,28,29
 157 1346 157 1346 146 1347 c 128,-1,30
 135 1348 135 1348 130 1348.5 c 128,-1,31
 125 1349 125 1349 117.5 1350.5 c 128,-1,32
 110 1352 110 1352 106.5 1354 c 128,-1,33
 103 1356 103 1356 99.5 1359 c 0,34,35
 93 1364.57142857 93 1364.57142857 93 1387.78571429 c 128,-1,36
 93 1411 93 1411 123.5 1436 c 0,37,38
 179.62 1482 179.62 1482 275 1482 c 0,39,40
 376.4 1482 376.4 1482 393.2 1470 c 0,41,42
 427 1445.85714286 427 1445.85714286 427 1407 c 2,43,-1
 427 191 l 2,44,45
 427 131 427 131 492 126 c 0,46,47
 529 124 529 124 542.5 115 c 128,-1,48
 556 106 556 106 556 78 c 0,49,50
 556 28 556 28 495 11 c 0,51,52
 453 0 453 0 370 0 c 2,15,-1
EndSplineSet
EndChar

StartChar: OE
Encoding: 268 338 195
Width: 2158
Flags: HMW
LayerCount: 2
Fore
SplineSet
2033 342 m 0,0,1
 2117 342 2117 342 2117 251 c 0,2,3
 2117 203 2117 203 2095 155.5 c 128,-1,4
 2073 108 2073 108 2041 76 c 1,5,6
 1965 -4 1965 -4 1862 -4 c 2,7,-1
 1167 0 l 1,8,-1
 797 0 l 2,9,10
 479 0 479 0 256 168 c 128,-1,11
 33 336 33 336 33 624.5 c 128,-1,12
 33 913 33 913 253 1106.5 c 128,-1,13
 473 1300 473 1300 810 1300 c 2,14,-1
 1929 1300 l 2,15,16
 2002 1300 2002 1300 2046.5 1243 c 128,-1,17
 2091 1186 2091 1186 2091 1103 c 0,18,19
 2091 960 2091 960 1988 960 c 0,20,21
 1924 960 1924 960 1901 998 c 128,-1,22
 1878 1036 1878 1036 1878 1115 c 1,23,-1
 1879 1175 l 1,24,-1
 1276 1175 l 1,25,-1
 1276 757 l 1,26,-1
 1277 736 l 1,27,-1
 1657 736 l 1,28,29
 1665 744 1665 744 1681.5 776 c 0,30,31
 1723.78125 858 1723.78125 858 1744 858 c 0,32,33
 1854 858 1854 858 1854 674 c 0,34,35
 1854 553 1854 553 1804 504 c 0,36,37
 1783 483 1783 483 1763 483 c 128,-1,38
 1743 483 1743 483 1733.5 487 c 128,-1,39
 1724 491 1724 491 1715.5 502.5 c 0,40,41
 1700.18991098 523.213649852 1700.18991098 523.213649852 1681.09495549 563.606824926 c 128,-1,42
 1662 604 1662 604 1657 614 c 1,43,-1
 1276 614 l 1,44,-1
 1276 136 l 1,45,-1
 1849 136 l 1,46,47
 1864 152 1864 152 1898.5 208 c 0,48,49
 1981.05357143 342 1981.05357143 342 2033 342 c 0,0,1
1055 139 m 1,50,51
 1061 332 1061 332 1061 516 c 2,52,-1
 1061 924 l 1,53,-1
 1062 1161 l 1,54,55
 961 1171 961 1171 805 1171 c 0,56,57
 536 1171 536 1171 392.5 1024.5 c 128,-1,58
 249 878 249 878 249 664 c 128,-1,59
 249 450 249 450 404.5 294.5 c 128,-1,60
 560 139 560 139 814 139 c 2,61,-1
 1055 139 l 1,50,51
EndSplineSet
EndChar

StartChar: florin
Encoding: 311 402 202
Width: 1097
Flags: HMW
LayerCount: 2
Fore
SplineSet
1134 1329 m 0,0,1
 1134 1276 1134 1276 1092 1236 c 128,-1,2
 1050 1196 1050 1196 997 1196 c 0,3,4
 911 1196 911 1196 911 1268 c 0,5,6
 911 1286 911 1286 923 1332 c 1,7,8
 890 1348 890 1348 851 1348 c 0,9,10
 670 1348 670 1348 670 1054 c 0,11,12
 670 1009 670 1009 675 962 c 1,13,-1
 835 962 l 2,14,15
 897 962 897 962 897 932 c 0,16,17
 897 891 897 891 859.5 863.5 c 128,-1,18
 822 836 822 836 801 836 c 2,19,-1
 653 836 l 1,20,21
 554 332 554 332 423 138 c 0,22,23
 312.075630252 -27 312.075630252 -27 164 -27 c 0,24,25
 93 -27 93 -27 48.5 1 c 128,-1,26
 4 29 4 29 4 82.5 c 128,-1,27
 4 136 4 136 43 173 c 128,-1,28
 82 210 82 210 132 210 c 0,29,30
 215 210 215 210 215 138 c 1,31,32
 205 119 205 119 205 74 c 1,33,34
 289 74 289 74 348 334 c 0,35,36
 364 402 364 402 378 474 c 1,37,-1
 462 833 l 1,38,-1
 392 833 l 2,39,40
 347 833 347 833 347 877 c 0,41,42
 347 932.052631579 347 932.052631579 392 951 c 0,43,44
 419 962 419 962 500 962 c 1,45,-1
 543 1109 l 1,46,47
 606 1362.5 606 1362.5 807 1436 c 0,48,49
 869 1459 869 1459 924 1459 c 0,50,51
 1134 1459 1134 1459 1134 1329 c 0,0,1
EndSplineSet
EndChar

StartChar: circumflex
Encoding: 314 710 203
Width: 907
Flags: HMW
LayerCount: 2
Fore
SplineSet
82 1275 m 1,0,1
 98 1313 98 1313 176.5 1417.5 c 128,-1,2
 255 1522 255 1522 341.5 1615.5 c 128,-1,3
 428 1709 428 1709 456 1709 c 128,-1,4
 484 1709 484 1709 649 1507 c 128,-1,5
 814 1305 814 1305 824 1275 c 1,6,-1
 803 1263 l 1,7,8
 761 1266 761 1266 548 1411 c 1,9,-1
 512 1435 l 1,10,-1
 512 1434 l 1,11,-1
 456 1474 l 1,12,-1
 422 1451 l 1,13,14
 400 1438 400 1438 332 1387.5 c 0,15,16
 173.446915127 1269.75101785 173.446915127 1269.75101785 111 1263 c 1,17,-1
 82 1275 l 1,0,1
EndSplineSet
EndChar

StartChar: caron
Encoding: 315 711 204
Width: 761
Flags: HMW
LayerCount: 2
Fore
SplineSet
754 1695 m 1,0,1
 728 1629 728 1629 613 1494 c 128,-1,2
 498 1359 498 1359 447 1310.5 c 128,-1,3
 396 1262 396 1262 385 1262 c 128,-1,4
 374 1262 374 1262 314.5 1316 c 128,-1,5
 255 1370 255 1370 152.5 1491.5 c 128,-1,6
 50 1613 50 1613 12 1695 c 1,7,-1
 40 1708 l 1,8,9
 74 1705 74 1705 286 1564 c 2,10,-1
 386 1498 l 1,11,-1
 436 1534 l 1,12,-1
 478 1560 l 1,13,14
 624.830985915 1662.78169014 624.830985915 1662.78169014 667.915492958 1684.89084507 c 128,-1,15
 711 1707 711 1707 733 1708 c 1,16,-1
 754 1695 l 1,0,1
EndSplineSet
EndChar

StartChar: breve
Encoding: 316 728 205
Width: 1003
Flags: HMW
LayerCount: 2
Fore
SplineSet
920 417 m 1,0,1
 916 246 916 246 804.5 153 c 128,-1,2
 693 60 693 60 508.5 60 c 0,3,4
 324 60 324 60 215 154 c 128,-1,5
 106 248 106 248 102 417 c 1,6,-1
 235 417 l 1,7,8
 243 333 243 333 322 286 c 128,-1,9
 401 239 401 239 511 239 c 0,10,11
 673 239 673 239 752 330 c 0,12,13
 783 365 783 365 787 417 c 1,14,-1
 920 417 l 1,0,1
EndSplineSet
EndChar

